<svg width="18" height="22" viewBox="0 0 18 22" fill="none" xmlns="http://www.w3.org/2000/svg">
<path d="M14.511 11.5818C14.5012 9.90642 15.259 8.64373 16.7894 7.71269C15.9335 6.4844 14.6386 5.80884 12.9316 5.67864C11.3154 5.5509 9.5472 6.62196 8.89974 6.62196C8.2155 6.62196 6.65081 5.72286 5.41967 5.72286C2.8789 5.76216 0.178711 7.75199 0.178711 11.8004C0.178711 12.9968 0.396982 14.2325 0.833524 15.505C1.41721 17.1804 3.52145 21.2853 5.71642 21.219C6.86418 21.192 7.67595 20.4034 9.16951 20.4034C10.6189 20.4034 11.3694 21.219 12.6496 21.219C14.8642 21.187 16.7673 17.4555 17.3216 15.7752C14.3516 14.3725 14.511 11.6678 14.511 11.5818ZM11.9335 4.08923C13.1769 2.61037 13.0641 1.26416 13.0273 0.780212C11.9286 0.844084 10.6582 1.52947 9.93469 2.37208C9.13763 3.2761 8.66921 4.39384 8.76976 5.65407C9.95676 5.74497 11.0408 5.13328 11.9335 4.08923Z" fill="white"/>
</svg>
