<svg width="390" height="83" viewBox="0 0 390 83" preserveAspectRatio="none" fill="none" xmlns="http://www.w3.org/2000/svg">
<path d="M84.3416 3.05993C42.8526 3.05993 14.6287 30.082 0.00317383 21.2056L0.00319707 51.8516H390.001L390.001 24.591C360.482 24.591 352.761 0.351616 305.231 0.351616C268.666 0.351616 252.61 22.966 194.254 22.966C135.897 22.966 125.831 3.05993 84.3416 3.05993Z" fill="#327B7B"/>
<path d="M84.3377 28.3418C42.8487 28.3418 34.8229 51.0916 -0.000732422 51.0916V82.3521L389.997 82.3777L389.997 51.0916C360.478 51.0916 351.132 32.966 300.489 32.966C268.122 32.966 252.607 47.5708 194.25 47.5708C135.893 47.5708 125.827 28.3418 84.3377 28.3418Z" fill="#1E6864"/>
</svg>
