<svg width="54" height="55" viewBox="0 0 54 55" fill="none" xmlns="http://www.w3.org/2000/svg">
<g clip-path="url(#clip0_0_923)">
<path fill-rule="evenodd" clip-rule="evenodd" d="M47.6718 2.28222H34.0376C32.9966 1.26213 31.6237 0.700195 30.164 0.700195C28.6591 0.700195 27.2933 1.30453 26.2943 2.28222H12.6562C10.4754 2.28222 8.70116 4.05642 8.70116 6.23729V42.0439H3.16406C2.7271 42.044 2.37305 42.398 2.37305 42.8349C2.37315 44.3616 2.99394 45.7457 3.99674 46.7483C4.99932 47.7508 6.3838 48.372 7.91015 48.3721H8.70116V50.745C8.70127 51.8014 9.11259 52.7947 9.85963 53.5417C10.6067 54.2888 11.5999 54.7001 12.6562 54.7001H47.6718C49.8527 54.7 51.6269 52.9258 51.627 50.7449V6.23729C51.6269 4.05642 49.8527 2.28243 47.6718 2.28222ZM11.8652 42.0439H10.2832V6.23729C10.2832 4.92885 11.3478 3.86425 12.6562 3.86425H25.1623C24.9279 4.35616 24.7645 4.88793 24.6843 5.44617L12.6562 5.44628C12.2194 5.44628 11.8652 5.80044 11.8652 6.23729V42.0439ZM25.4179 10.1924C25.8549 10.1924 26.2089 9.8382 26.2089 9.40135V6.23729C26.2089 4.05652 27.9832 2.28222 30.164 2.28222C31.2546 2.28222 32.2431 2.72561 32.9595 3.44185C33.6756 4.15798 34.1192 5.14685 34.1192 6.23708L34.1191 9.40114C34.1191 9.61102 34.2024 9.81215 34.3508 9.96054C34.4992 10.1089 34.7003 10.1924 34.9101 10.1924H36.4921C37.5233 10.1924 38.4032 10.8537 38.7295 11.7744H21.5985C21.9248 10.8537 22.8046 10.1924 23.8359 10.1924H25.4179ZM24.627 7.02831V8.61034H23.836C21.6551 8.61034 19.8809 10.3846 19.8809 12.5655C19.8809 12.7839 19.9695 12.9817 20.1126 13.1248C20.2558 13.2679 20.4535 13.3564 20.6719 13.3565H39.6563C40.0932 13.3564 40.4473 13.0024 40.4473 12.5655C40.4471 10.3845 38.673 8.61044 36.4921 8.61034H35.7011L35.7012 7.02841L46.8809 7.02831V42.8349C46.8809 43.8914 46.4696 44.8844 45.7224 45.6316C44.9754 46.3786 43.9822 46.7901 42.9257 46.7899C40.7449 46.7903 38.9707 45.0159 38.9706 42.8349C38.9706 42.3981 38.6165 42.044 38.1796 42.0439H13.4473V7.02831H24.627ZM7.91025 46.7901C6 46.7898 4.40195 45.4292 4.0346 43.626H37.4449C37.6218 44.8571 38.2035 45.959 39.0543 46.7901H7.91025ZM50.0448 50.745C50.0448 52.0536 48.9803 53.1181 47.6718 53.1181H12.6562C12.0224 53.1181 11.4265 52.8714 10.9782 52.4231C10.53 51.9749 10.2832 51.379 10.2832 50.7451V48.3721L42.9257 48.372C44.4047 48.372 45.7952 47.7961 46.8411 46.7503C47.8871 45.7044 48.4629 44.3139 48.4629 42.8349V6.23729C48.4628 6.02741 48.3795 5.82628 48.2312 5.67789C48.0828 5.5296 47.8817 5.44628 47.6718 5.44617L35.6448 5.44628C35.5663 4.89436 35.4063 4.36217 35.1699 3.86436H47.6718C48.9801 3.86425 50.0449 4.92875 50.0448 6.2374V50.745ZM35.5749 23.5134C35.266 23.8224 34.7652 23.8224 34.4563 23.5134L32.8743 21.9314C32.5653 21.6225 32.5653 21.1218 32.8743 20.8128C33.1832 20.5038 33.684 20.5038 33.9929 20.8128L35.0156 21.8355L37.6204 19.2307C37.9293 18.9218 38.43 18.9218 38.739 19.2307C39.048 19.5396 39.048 20.0404 38.739 20.3493L35.5749 23.5134ZM35.0156 28.1635L37.6202 25.5589C37.9291 25.2499 38.4299 25.2499 38.739 25.5587C39.0481 25.8677 39.0481 26.3684 38.739 26.6773L35.575 29.8414C35.2661 30.1503 34.7653 30.1503 34.4564 29.8414L32.8743 28.2594C32.5653 27.9505 32.5653 27.4497 32.8743 27.1408C33.1833 26.8319 33.684 26.8319 33.9929 27.1408L35.0156 28.1635ZM34.4563 36.1697C34.7652 36.4786 35.266 36.4786 35.5749 36.1697L38.739 33.0057C39.0479 32.6966 39.0479 32.1959 38.739 31.887C38.43 31.578 37.9293 31.578 37.6204 31.887L35.0156 34.4917L33.9929 33.469C33.684 33.1601 33.1832 33.1601 32.8743 33.469C32.5653 33.7779 32.5653 34.2787 32.8743 34.5876L34.4563 36.1697ZM30.2695 28.4913H20.6719C20.4534 28.4912 20.2557 28.4026 20.1126 28.2595C19.9695 28.1165 19.8809 27.9186 19.8809 27.7002C19.8809 27.2633 20.2349 26.9093 20.6719 26.9092H30.2695C30.7063 26.9093 31.0604 27.2633 31.0605 27.7002C31.0605 28.1372 30.7065 28.4912 30.2695 28.4913ZM20.6719 22.1631H30.2695C30.7065 22.163 31.0605 21.8089 31.0605 21.3721C31.0604 20.9352 30.7064 20.5811 30.2695 20.5811H20.6719C20.2349 20.5811 19.8809 20.9352 19.8809 21.3721C19.881 21.5905 19.9695 21.7882 20.1126 21.9314C20.2557 22.0745 20.4534 22.163 20.6719 22.1631ZM20.6719 33.2373H30.2695C30.7064 33.2374 31.0604 33.5915 31.0605 34.0283C31.0605 34.4652 30.7065 34.8193 30.2695 34.8193H20.6719C20.4534 34.8193 20.2557 34.7307 20.1126 34.5876C19.9695 34.4445 19.881 34.2467 19.8809 34.0283C19.8809 33.5915 20.2349 33.2373 20.6719 33.2373ZM32.5372 6.23741C32.5372 7.54586 31.4727 8.61035 30.1642 8.61046C29.5099 8.61035 28.9166 8.34425 28.487 7.91457C28.0572 7.48479 27.7911 6.89153 27.791 6.2373C27.791 4.92875 28.8555 3.86426 30.1641 3.86426C31.4724 3.86436 32.5371 4.92875 32.5372 6.23741ZM30.1641 5.44629C29.9528 5.44629 29.7542 5.52845 29.6048 5.6779C29.4553 5.82735 29.373 6.02605 29.3732 6.23741C29.373 6.44866 29.4553 6.64726 29.6048 6.79671C29.7542 6.94616 29.9529 7.02843 30.1642 7.02832C30.3754 7.02832 30.5739 6.94605 30.7234 6.79661C30.8728 6.64716 30.9551 6.44856 30.9551 6.2373C30.9551 6.02605 30.8728 5.82735 30.7234 5.6779C30.574 5.52855 30.3753 5.44629 30.1641 5.44629Z" fill="#F175B9"/>
</g>
<defs>
<clipPath id="clip0_0_923">
<rect width="54" height="54" fill="white" transform="translate(0 0.700195)"/>
</clipPath>
</defs>
</svg>
