<svg width="342" height="352" viewBox="0 0 342 352" fill="none" xmlns="http://www.w3.org/2000/svg">
<rect x="0.5" y="0.5" width="341" height="351" rx="22.4682" fill="#134A47"/>
<rect x="0.5" y="0.5" width="341" height="351" rx="22.4682" stroke="url(#paint0_linear_0_530)"/>
<path d="M39 267L38 65" stroke="#2E7B7A" stroke-width="2"/>
<line x1="301" y1="277" x2="301" y2="65" stroke="#2E7B7A" stroke-width="2" stroke-dasharray="4 4"/>
<path d="M40 260H301V203C265.839 214.5 49.41 177.5 40 53V172V260Z" fill="url(#paint1_linear_0_530)" fill-opacity="0.4"/>
<path d="M300.703 259H40.0006L40.0008 248.21C241.5 262.5 293.5 108 300.703 62V169.391V259Z" fill="url(#paint2_linear_0_530)" fill-opacity="0.4"/>
<line y1="-0.5" x2="310" y2="-0.5" transform="matrix(-1 -7.27321e-08 -1.05081e-07 1 326 98)" stroke="white" stroke-opacity="0.6" stroke-dasharray="4.59 4.59"/>
<line y1="-0.5" x2="310" y2="-0.5" transform="matrix(-1 -7.27321e-08 -1.05081e-07 1 326 152)" stroke="white" stroke-opacity="0.6" stroke-dasharray="4.59 4.59"/>
<line y1="-0.5" x2="310" y2="-0.5" transform="matrix(-1 -7.27321e-08 -1.05081e-07 1 326 206)" stroke="white" stroke-opacity="0.6" stroke-dasharray="4.59 4.59"/>
<line y1="-0.5" x2="310" y2="-0.5" transform="matrix(-1 -7.27321e-08 -1.05081e-07 1 326 260)" stroke="white" stroke-opacity="0.6" stroke-dasharray="4.59 4.59"/>
<path d="M299.957 204C299.957 204 217.556 209.546 145.996 174C45.7742 124.218 40.8704 72.5007 40.8704 72.5007" stroke="url(#paint3_linear_0_530)" stroke-width="6" stroke-linecap="round"/>
<path d="M43.0146 247C43.0146 247 118.531 254.065 172.962 229.001C280.462 179.501 302.017 66.0001 302.017 66.0001" stroke="url(#paint4_linear_0_530)" stroke-width="6" stroke-linecap="round"/>
<circle cx="39" cy="246" r="6" fill="white"/>
<circle cx="302.012" cy="202" r="6.5" fill="#5A91FF" stroke="white" stroke-width="3"/>
<path d="M301 218L309 228L293 228L301 218Z" fill="#5A91FF"/>
<rect x="188" y="228" width="143" height="50" rx="16" fill="#5A91FF"/>
<path d="M209.746 250V239.818H213.375C214.167 239.818 214.823 239.962 215.344 240.251C215.864 240.539 216.253 240.933 216.512 241.434C216.77 241.931 216.9 242.491 216.9 243.114C216.9 243.741 216.769 244.304 216.507 244.805C216.248 245.302 215.857 245.696 215.334 245.988C214.813 246.276 214.159 246.42 213.37 246.42H210.874V245.118H213.231C213.731 245.118 214.137 245.032 214.449 244.859C214.76 244.684 214.989 244.445 215.135 244.143C215.281 243.842 215.354 243.499 215.354 243.114C215.354 242.73 215.281 242.388 215.135 242.09C214.989 241.792 214.759 241.558 214.444 241.389C214.132 241.22 213.721 241.136 213.211 241.136H211.282V250H209.746ZM218.581 250V242.364H220.018V243.577H220.098C220.237 243.166 220.482 242.843 220.833 242.607C221.188 242.369 221.589 242.249 222.037 242.249C222.129 242.249 222.239 242.253 222.365 242.259C222.494 242.266 222.595 242.274 222.668 242.284V243.706C222.608 243.689 222.502 243.671 222.35 243.651C222.197 243.628 222.045 243.616 221.892 243.616C221.541 243.616 221.228 243.691 220.953 243.84C220.681 243.986 220.466 244.19 220.306 244.452C220.147 244.71 220.068 245.005 220.068 245.337V250H218.581ZM226.898 250.154C226.182 250.154 225.557 249.99 225.023 249.662C224.49 249.334 224.075 248.875 223.78 248.285C223.485 247.695 223.338 247.005 223.338 246.217C223.338 245.424 223.485 244.732 223.78 244.138C224.075 243.545 224.49 243.085 225.023 242.756C225.557 242.428 226.182 242.264 226.898 242.264C227.613 242.264 228.238 242.428 228.772 242.756C229.305 243.085 229.72 243.545 230.015 244.138C230.31 244.732 230.457 245.424 230.457 246.217C230.457 247.005 230.31 247.695 230.015 248.285C229.72 248.875 229.305 249.334 228.772 249.662C228.238 249.99 227.613 250.154 226.898 250.154ZM226.903 248.906C227.367 248.906 227.751 248.784 228.056 248.538C228.361 248.293 228.586 247.967 228.732 247.559C228.881 247.151 228.956 246.702 228.956 246.212C228.956 245.724 228.881 245.277 228.732 244.869C228.586 244.458 228.361 244.129 228.056 243.88C227.751 243.631 227.367 243.507 226.903 243.507C226.435 243.507 226.047 243.631 225.739 243.88C225.434 244.129 225.207 244.458 225.058 244.869C224.912 245.277 224.839 245.724 224.839 246.212C224.839 246.702 224.912 247.151 225.058 247.559C225.207 247.967 225.434 248.293 225.739 248.538C226.047 248.784 226.435 248.906 226.903 248.906ZM235.333 250.154C234.594 250.154 233.958 249.987 233.424 249.652C232.894 249.314 232.486 248.848 232.201 248.255C231.916 247.662 231.773 246.982 231.773 246.217C231.773 245.441 231.919 244.757 232.211 244.163C232.503 243.567 232.914 243.101 233.444 242.766C233.974 242.432 234.599 242.264 235.318 242.264C235.898 242.264 236.415 242.372 236.869 242.587C237.323 242.799 237.69 243.098 237.968 243.482C238.25 243.867 238.417 244.316 238.47 244.83H237.023C236.944 244.472 236.762 244.163 236.477 243.905C236.195 243.646 235.817 243.517 235.343 243.517C234.929 243.517 234.566 243.626 234.254 243.845C233.946 244.061 233.706 244.369 233.533 244.77C233.361 245.168 233.275 245.638 233.275 246.182C233.275 246.739 233.359 247.219 233.528 247.624C233.697 248.028 233.936 248.341 234.244 248.563C234.556 248.785 234.922 248.896 235.343 248.896C235.625 248.896 235.88 248.845 236.109 248.742C236.341 248.636 236.535 248.485 236.69 248.29C236.849 248.094 236.96 247.859 237.023 247.584H238.47C238.417 248.078 238.256 248.518 237.988 248.906C237.719 249.294 237.36 249.599 236.909 249.821C236.462 250.043 235.936 250.154 235.333 250.154ZM240.06 250V242.364H241.497V243.577H241.576C241.715 243.166 241.961 242.843 242.312 242.607C242.667 242.369 243.068 242.249 243.515 242.249C243.608 242.249 243.717 242.253 243.843 242.259C243.972 242.266 244.074 242.274 244.146 242.284V243.706C244.087 243.689 243.981 243.671 243.828 243.651C243.676 243.628 243.523 243.616 243.371 243.616C243.02 243.616 242.706 243.691 242.431 243.84C242.16 243.986 241.944 244.19 241.785 244.452C241.626 244.71 241.546 245.005 241.546 245.337V250H240.06ZM247.587 250.169C247.103 250.169 246.665 250.08 246.274 249.901C245.883 249.718 245.573 249.455 245.345 249.11C245.119 248.765 245.007 248.343 245.007 247.842C245.007 247.411 245.089 247.057 245.255 246.778C245.421 246.5 245.645 246.28 245.926 246.117C246.208 245.955 246.523 245.832 246.871 245.749C247.219 245.666 247.574 245.603 247.935 245.56C248.392 245.507 248.763 245.464 249.048 245.431C249.334 245.395 249.541 245.337 249.67 245.257C249.799 245.178 249.864 245.048 249.864 244.869V244.835C249.864 244.4 249.741 244.064 249.496 243.825C249.254 243.587 248.893 243.467 248.412 243.467C247.912 243.467 247.517 243.578 247.229 243.8C246.944 244.019 246.747 244.263 246.637 244.531L245.24 244.213C245.406 243.749 245.648 243.375 245.966 243.089C246.288 242.801 246.657 242.592 247.075 242.463C247.492 242.33 247.932 242.264 248.392 242.264C248.697 242.264 249.02 242.301 249.362 242.374C249.706 242.443 250.028 242.572 250.326 242.761C250.628 242.95 250.875 243.22 251.067 243.572C251.259 243.92 251.355 244.372 251.355 244.929V250H249.904V248.956H249.844C249.748 249.148 249.604 249.337 249.411 249.523C249.219 249.708 248.972 249.862 248.671 249.985C248.369 250.108 248.008 250.169 247.587 250.169ZM247.91 248.976C248.321 248.976 248.672 248.895 248.964 248.732C249.259 248.57 249.483 248.358 249.635 248.096C249.791 247.831 249.869 247.547 249.869 247.246V246.261C249.816 246.314 249.713 246.364 249.561 246.411C249.411 246.454 249.241 246.492 249.048 246.525C248.856 246.555 248.669 246.583 248.487 246.609C248.304 246.633 248.152 246.652 248.029 246.669C247.741 246.705 247.477 246.767 247.239 246.853C247.003 246.939 246.815 247.063 246.672 247.226C246.533 247.385 246.463 247.597 246.463 247.862C246.463 248.23 246.599 248.509 246.871 248.697C247.143 248.883 247.489 248.976 247.91 248.976ZM259.058 244.228L257.71 244.467C257.654 244.294 257.564 244.13 257.442 243.974C257.322 243.819 257.16 243.691 256.955 243.592C256.749 243.492 256.492 243.442 256.184 243.442C255.763 243.442 255.412 243.537 255.13 243.726C254.848 243.911 254.707 244.152 254.707 244.447C254.707 244.702 254.802 244.907 254.991 245.063C255.18 245.219 255.485 245.347 255.906 245.446L257.119 245.724C257.821 245.887 258.345 246.137 258.69 246.475C259.034 246.813 259.207 247.252 259.207 247.793C259.207 248.25 259.074 248.658 258.809 249.016C258.547 249.37 258.181 249.649 257.71 249.851C257.243 250.053 256.701 250.154 256.085 250.154C255.229 250.154 254.532 249.972 253.991 249.607C253.451 249.239 253.12 248.717 252.997 248.041L254.434 247.822C254.523 248.197 254.707 248.48 254.986 248.673C255.264 248.862 255.627 248.956 256.075 248.956C256.562 248.956 256.951 248.855 257.243 248.653C257.535 248.447 257.68 248.197 257.68 247.902C257.68 247.663 257.591 247.463 257.412 247.3C257.236 247.138 256.966 247.015 256.602 246.933L255.309 246.649C254.596 246.487 254.069 246.228 253.728 245.874C253.39 245.519 253.221 245.07 253.221 244.526C253.221 244.076 253.347 243.681 253.599 243.343C253.851 243.005 254.199 242.741 254.643 242.553C255.087 242.36 255.596 242.264 256.169 242.264C256.994 242.264 257.644 242.443 258.118 242.801C258.592 243.156 258.905 243.631 259.058 244.228ZM264.406 242.364V243.557H260.235V242.364H264.406ZM261.353 240.534H262.84V247.758C262.84 248.046 262.883 248.263 262.969 248.409C263.055 248.552 263.166 248.649 263.302 248.702C263.441 248.752 263.592 248.777 263.754 248.777C263.874 248.777 263.978 248.769 264.068 248.752C264.157 248.736 264.227 248.722 264.276 248.712L264.545 249.94C264.459 249.973 264.336 250.007 264.177 250.04C264.018 250.076 263.819 250.096 263.58 250.099C263.189 250.106 262.825 250.036 262.487 249.891C262.149 249.745 261.875 249.519 261.666 249.214C261.458 248.91 261.353 248.527 261.353 248.066V240.534ZM266.05 250V242.364H267.537V250H266.05ZM266.801 241.185C266.542 241.185 266.32 241.099 266.135 240.927C265.952 240.751 265.861 240.542 265.861 240.3C265.861 240.055 265.952 239.846 266.135 239.674C266.32 239.498 266.542 239.411 266.801 239.411C267.059 239.411 267.28 239.498 267.462 239.674C267.648 239.846 267.74 240.055 267.74 240.3C267.74 240.542 267.648 240.751 267.462 240.927C267.28 241.099 267.059 241.185 266.801 241.185ZM271.023 245.466V250H269.536V242.364H270.963V243.607H271.058C271.233 243.202 271.508 242.877 271.883 242.632C272.261 242.387 272.736 242.264 273.31 242.264C273.83 242.264 274.286 242.374 274.677 242.592C275.068 242.808 275.371 243.129 275.587 243.557C275.802 243.984 275.91 244.513 275.91 245.143V250H274.423V245.322C274.423 244.768 274.279 244.336 273.991 244.024C273.703 243.709 273.307 243.552 272.803 243.552C272.458 243.552 272.151 243.626 271.883 243.776C271.618 243.925 271.407 244.143 271.252 244.432C271.099 244.717 271.023 245.062 271.023 245.466ZM280.126 250.169C279.642 250.169 279.204 250.08 278.813 249.901C278.422 249.718 278.112 249.455 277.884 249.11C277.658 248.765 277.546 248.343 277.546 247.842C277.546 247.411 277.628 247.057 277.794 246.778C277.96 246.5 278.184 246.28 278.465 246.117C278.747 245.955 279.062 245.832 279.41 245.749C279.758 245.666 280.113 245.603 280.474 245.56C280.931 245.507 281.302 245.464 281.588 245.431C281.873 245.395 282.08 245.337 282.209 245.257C282.338 245.178 282.403 245.048 282.403 244.869V244.835C282.403 244.4 282.28 244.064 282.035 243.825C281.793 243.587 281.432 243.467 280.951 243.467C280.451 243.467 280.056 243.578 279.768 243.8C279.483 244.019 279.286 244.263 279.176 244.531L277.779 244.213C277.945 243.749 278.187 243.375 278.505 243.089C278.827 242.801 279.196 242.592 279.614 242.463C280.031 242.33 280.471 242.264 280.931 242.264C281.236 242.264 281.559 242.301 281.901 242.374C282.245 242.443 282.567 242.572 282.865 242.761C283.167 242.95 283.414 243.22 283.606 243.572C283.798 243.92 283.894 244.372 283.894 244.929V250H282.443V248.956H282.383C282.287 249.148 282.143 249.337 281.95 249.523C281.758 249.708 281.511 249.862 281.21 249.985C280.908 250.108 280.547 250.169 280.126 250.169ZM280.449 248.976C280.86 248.976 281.211 248.895 281.503 248.732C281.798 248.57 282.022 248.358 282.174 248.096C282.33 247.831 282.408 247.547 282.408 247.246V246.261C282.355 246.314 282.252 246.364 282.1 246.411C281.95 246.454 281.78 246.492 281.588 246.525C281.395 246.555 281.208 246.583 281.026 246.609C280.843 246.633 280.691 246.652 280.568 246.669C280.28 246.705 280.017 246.767 279.778 246.853C279.543 246.939 279.354 247.063 279.211 247.226C279.072 247.385 279.002 247.597 279.002 247.862C279.002 248.23 279.138 248.509 279.41 248.697C279.682 248.883 280.028 248.976 280.449 248.976ZM289.439 242.364V243.557H285.268V242.364H289.439ZM286.386 240.534H287.873V247.758C287.873 248.046 287.916 248.263 288.002 248.409C288.088 248.552 288.199 248.649 288.335 248.702C288.474 248.752 288.625 248.777 288.788 248.777C288.907 248.777 289.011 248.769 289.101 248.752C289.19 248.736 289.26 248.722 289.31 248.712L289.578 249.94C289.492 249.973 289.369 250.007 289.21 250.04C289.051 250.076 288.852 250.096 288.614 250.099C288.223 250.106 287.858 250.036 287.52 249.891C287.182 249.745 286.908 249.519 286.7 249.214C286.491 248.91 286.386 248.527 286.386 248.066V240.534ZM291.083 250V242.364H292.57V250H291.083ZM291.834 241.185C291.575 241.185 291.353 241.099 291.168 240.927C290.985 240.751 290.894 240.542 290.894 240.3C290.894 240.055 290.985 239.846 291.168 239.674C291.353 239.498 291.575 239.411 291.834 239.411C292.093 239.411 292.313 239.498 292.495 239.674C292.681 239.846 292.774 240.055 292.774 240.3C292.774 240.542 292.681 240.751 292.495 240.927C292.313 241.099 292.093 241.185 291.834 241.185ZM297.786 250.154C297.07 250.154 296.446 249.99 295.912 249.662C295.378 249.334 294.964 248.875 294.669 248.285C294.374 247.695 294.227 247.005 294.227 246.217C294.227 245.424 294.374 244.732 294.669 244.138C294.964 243.545 295.378 243.085 295.912 242.756C296.446 242.428 297.07 242.264 297.786 242.264C298.502 242.264 299.127 242.428 299.661 242.756C300.194 243.085 300.608 243.545 300.903 244.138C301.198 244.732 301.346 245.424 301.346 246.217C301.346 247.005 301.198 247.695 300.903 248.285C300.608 248.875 300.194 249.334 299.661 249.662C299.127 249.99 298.502 250.154 297.786 250.154ZM297.791 248.906C298.255 248.906 298.64 248.784 298.945 248.538C299.25 248.293 299.475 247.967 299.621 247.559C299.77 247.151 299.844 246.702 299.844 246.212C299.844 245.724 299.77 245.277 299.621 244.869C299.475 244.458 299.25 244.129 298.945 243.88C298.64 243.631 298.255 243.507 297.791 243.507C297.324 243.507 296.936 243.631 296.628 243.88C296.323 244.129 296.096 244.458 295.947 244.869C295.801 245.277 295.728 245.724 295.728 246.212C295.728 246.702 295.801 247.151 295.947 247.559C296.096 247.967 296.323 248.293 296.628 248.538C296.936 248.784 297.324 248.906 297.791 248.906ZM304.492 245.466V250H303.005V242.364H304.432V243.607H304.526C304.702 243.202 304.977 242.877 305.352 242.632C305.73 242.387 306.205 242.264 306.779 242.264C307.299 242.264 307.755 242.374 308.146 242.592C308.537 242.808 308.84 243.129 309.056 243.557C309.271 243.984 309.379 244.513 309.379 245.143V250H307.892V245.322C307.892 244.768 307.748 244.336 307.46 244.024C307.171 243.709 306.775 243.552 306.271 243.552C305.927 243.552 305.62 243.626 305.352 243.776C305.087 243.925 304.876 244.143 304.72 244.432C304.568 244.717 304.492 245.062 304.492 245.466ZM231.276 261.228L229.929 261.467C229.873 261.294 229.783 261.13 229.661 260.974C229.541 260.819 229.379 260.691 229.173 260.592C228.968 260.492 228.711 260.442 228.403 260.442C227.982 260.442 227.63 260.537 227.349 260.726C227.067 260.911 226.926 261.152 226.926 261.447C226.926 261.702 227.021 261.907 227.21 262.063C227.398 262.219 227.703 262.347 228.124 262.446L229.337 262.724C230.04 262.887 230.564 263.137 230.908 263.475C231.253 263.813 231.425 264.252 231.425 264.793C231.425 265.25 231.293 265.658 231.028 266.016C230.766 266.37 230.4 266.649 229.929 266.851C229.462 267.053 228.92 267.154 228.303 267.154C227.448 267.154 226.75 266.972 226.21 266.607C225.67 266.239 225.339 265.717 225.216 265.041L226.653 264.822C226.742 265.197 226.926 265.48 227.205 265.673C227.483 265.862 227.846 265.956 228.293 265.956C228.781 265.956 229.17 265.855 229.462 265.653C229.753 265.447 229.899 265.197 229.899 264.902C229.899 264.663 229.81 264.463 229.631 264.3C229.455 264.138 229.185 264.015 228.82 263.933L227.528 263.649C226.815 263.487 226.288 263.228 225.947 262.874C225.609 262.519 225.44 262.07 225.44 261.526C225.44 261.076 225.566 260.681 225.817 260.343C226.069 260.005 226.417 259.741 226.862 259.553C227.306 259.36 227.814 259.264 228.388 259.264C229.213 259.264 229.863 259.443 230.337 259.801C230.811 260.156 231.124 260.631 231.276 261.228ZM233.999 269.864C233.777 269.864 233.575 269.845 233.393 269.809C233.211 269.776 233.075 269.739 232.985 269.7L233.343 268.482C233.615 268.554 233.857 268.586 234.069 268.576C234.281 268.566 234.468 268.487 234.631 268.337C234.797 268.188 234.942 267.945 235.068 267.607L235.252 267.099L232.458 259.364H234.049L235.983 265.29H236.063L237.997 259.364H239.593L236.445 268.019C236.3 268.417 236.114 268.753 235.889 269.028C235.663 269.307 235.395 269.516 235.083 269.655C234.772 269.794 234.41 269.864 233.999 269.864ZM240.99 267V259.364H242.416V260.607H242.511C242.67 260.186 242.93 259.857 243.291 259.622C243.653 259.384 244.085 259.264 244.589 259.264C245.099 259.264 245.527 259.384 245.872 259.622C246.22 259.861 246.477 260.189 246.642 260.607H246.722C246.904 260.199 247.194 259.874 247.592 259.632C247.99 259.387 248.463 259.264 249.014 259.264C249.706 259.264 250.271 259.481 250.709 259.915C251.15 260.35 251.37 261.004 251.37 261.879V267H249.884V262.018C249.884 261.501 249.743 261.127 249.461 260.895C249.179 260.663 248.843 260.547 248.452 260.547C247.968 260.547 247.592 260.696 247.323 260.994C247.055 261.289 246.921 261.669 246.921 262.133V267H245.439V261.924C245.439 261.51 245.31 261.177 245.051 260.925C244.793 260.673 244.456 260.547 244.042 260.547C243.76 260.547 243.5 260.621 243.262 260.771C243.026 260.916 242.836 261.12 242.69 261.382C242.547 261.644 242.476 261.947 242.476 262.292V267H240.99ZM253.363 269.864V259.364H254.814V260.602H254.939C255.025 260.442 255.149 260.259 255.311 260.05C255.474 259.841 255.699 259.659 255.988 259.503C256.276 259.344 256.657 259.264 257.131 259.264C257.748 259.264 258.298 259.42 258.782 259.732C259.266 260.043 259.645 260.492 259.92 261.079C260.199 261.665 260.338 262.371 260.338 263.197C260.338 264.022 260.2 264.73 259.925 265.32C259.65 265.906 259.272 266.359 258.792 266.677C258.311 266.992 257.762 267.149 257.146 267.149C256.682 267.149 256.302 267.071 256.007 266.915C255.716 266.76 255.487 266.577 255.321 266.369C255.156 266.16 255.028 265.974 254.939 265.812H254.849V269.864H253.363ZM254.819 263.182C254.819 263.719 254.897 264.189 255.053 264.594C255.209 264.998 255.434 265.315 255.729 265.543C256.024 265.769 256.385 265.881 256.813 265.881C257.257 265.881 257.628 265.764 257.926 265.528C258.225 265.29 258.45 264.967 258.603 264.559C258.758 264.151 258.836 263.692 258.836 263.182C258.836 262.678 258.76 262.226 258.608 261.825C258.458 261.424 258.233 261.107 257.931 260.875C257.633 260.643 257.26 260.527 256.813 260.527C256.382 260.527 256.017 260.638 255.719 260.86C255.424 261.082 255.2 261.392 255.048 261.79C254.895 262.187 254.819 262.652 254.819 263.182ZM265.568 259.364V260.557H261.397V259.364H265.568ZM262.515 257.534H264.002V264.758C264.002 265.046 264.045 265.263 264.131 265.409C264.217 265.552 264.328 265.649 264.464 265.702C264.603 265.752 264.754 265.777 264.917 265.777C265.036 265.777 265.14 265.769 265.23 265.752C265.319 265.736 265.389 265.722 265.439 265.712L265.707 266.94C265.621 266.973 265.498 267.007 265.339 267.04C265.18 267.076 264.981 267.096 264.743 267.099C264.351 267.106 263.987 267.036 263.649 266.891C263.311 266.745 263.037 266.519 262.828 266.214C262.62 265.91 262.515 265.527 262.515 265.066V257.534ZM270.347 267.154C269.631 267.154 269.006 266.99 268.472 266.662C267.939 266.334 267.525 265.875 267.23 265.285C266.935 264.695 266.787 264.005 266.787 263.217C266.787 262.424 266.935 261.732 267.23 261.138C267.525 260.545 267.939 260.085 268.472 259.756C269.006 259.428 269.631 259.264 270.347 259.264C271.063 259.264 271.687 259.428 272.221 259.756C272.755 260.085 273.169 260.545 273.464 261.138C273.759 261.732 273.906 262.424 273.906 263.217C273.906 264.005 273.759 264.695 273.464 265.285C273.169 265.875 272.755 266.334 272.221 266.662C271.687 266.99 271.063 267.154 270.347 267.154ZM270.352 265.906C270.816 265.906 271.2 265.784 271.505 265.538C271.81 265.293 272.035 264.967 272.181 264.559C272.33 264.151 272.405 263.702 272.405 263.212C272.405 262.724 272.33 262.277 272.181 261.869C272.035 261.458 271.81 261.129 271.505 260.88C271.2 260.631 270.816 260.507 270.352 260.507C269.884 260.507 269.497 260.631 269.188 260.88C268.883 261.129 268.656 261.458 268.507 261.869C268.361 262.277 268.289 262.724 268.289 263.212C268.289 263.702 268.361 264.151 268.507 264.559C268.656 264.967 268.883 265.293 269.188 265.538C269.497 265.784 269.884 265.906 270.352 265.906ZM275.566 267V259.364H276.993V260.607H277.087C277.246 260.186 277.506 259.857 277.868 259.622C278.229 259.384 278.661 259.264 279.165 259.264C279.676 259.264 280.103 259.384 280.448 259.622C280.796 259.861 281.053 260.189 281.218 260.607H281.298C281.48 260.199 281.77 259.874 282.168 259.632C282.566 259.387 283.04 259.264 283.59 259.264C284.283 259.264 284.848 259.481 285.285 259.915C285.726 260.35 285.946 261.004 285.946 261.879V267H284.46V262.018C284.46 261.501 284.319 261.127 284.037 260.895C283.756 260.663 283.419 260.547 283.028 260.547C282.544 260.547 282.168 260.696 281.9 260.994C281.631 261.289 281.497 261.669 281.497 262.133V267H280.015V261.924C280.015 261.51 279.886 261.177 279.627 260.925C279.369 260.673 279.033 260.547 278.618 260.547C278.337 260.547 278.076 260.621 277.838 260.771C277.602 260.916 277.412 261.12 277.266 261.382C277.123 261.644 277.052 261.947 277.052 262.292V267H275.566ZM293.661 261.228L292.314 261.467C292.257 261.294 292.168 261.13 292.045 260.974C291.926 260.819 291.764 260.691 291.558 260.592C291.353 260.492 291.096 260.442 290.787 260.442C290.367 260.442 290.015 260.537 289.733 260.726C289.452 260.911 289.311 261.152 289.311 261.447C289.311 261.702 289.405 261.907 289.594 262.063C289.783 262.219 290.088 262.347 290.509 262.446L291.722 262.724C292.425 262.887 292.948 263.137 293.293 263.475C293.638 263.813 293.81 264.252 293.81 264.793C293.81 265.25 293.678 265.658 293.412 266.016C293.151 266.37 292.784 266.649 292.314 266.851C291.846 267.053 291.305 267.154 290.688 267.154C289.833 267.154 289.135 266.972 288.595 266.607C288.055 266.239 287.723 265.717 287.601 265.041L289.037 264.822C289.127 265.197 289.311 265.48 289.589 265.673C289.868 265.862 290.231 265.956 290.678 265.956C291.165 265.956 291.555 265.855 291.846 265.653C292.138 265.447 292.284 265.197 292.284 264.902C292.284 264.663 292.194 264.463 292.015 264.3C291.84 264.138 291.57 264.015 291.205 263.933L289.912 263.649C289.2 263.487 288.673 263.228 288.331 262.874C287.993 262.519 287.824 262.07 287.824 261.526C287.824 261.076 287.95 260.681 288.202 260.343C288.454 260.005 288.802 259.741 289.246 259.553C289.69 259.36 290.199 259.264 290.773 259.264C291.598 259.264 292.247 259.443 292.721 259.801C293.195 260.156 293.509 260.631 293.661 261.228Z" fill="white"/>
<path d="M16.5084 299.273H18.0042L20.284 303.24H20.3778L22.6576 299.273H24.1533L20.9871 304.574V308H19.6746V304.574L16.5084 299.273ZM31.6135 303.636C31.6135 304.568 31.4431 305.369 31.1021 306.04C30.7612 306.707 30.2939 307.222 29.7002 307.582C29.1092 307.94 28.4374 308.119 27.6845 308.119C26.9288 308.119 26.2541 307.94 25.6604 307.582C25.0695 307.222 24.6036 306.706 24.2627 306.036C23.9217 305.365 23.7513 304.565 23.7513 303.636C23.7513 302.705 23.9217 301.905 24.2627 301.237C24.6036 300.567 25.0695 300.053 25.6604 299.695C26.2541 299.334 26.9288 299.153 27.6845 299.153C28.4374 299.153 29.1092 299.334 29.7002 299.695C30.2939 300.053 30.7612 300.567 31.1021 301.237C31.4431 301.905 31.6135 302.705 31.6135 303.636ZM30.3095 303.636C30.3095 302.926 30.1945 302.328 29.9644 301.842C29.7371 301.354 29.4246 300.984 29.0269 300.734C28.632 300.482 28.1845 300.355 27.6845 300.355C27.1817 300.355 26.7328 300.482 26.3379 300.734C25.9431 300.984 25.6306 301.354 25.4004 301.842C25.1732 302.328 25.0595 302.926 25.0595 303.636C25.0595 304.347 25.1732 304.946 25.4004 305.435C25.6306 305.92 25.9431 306.29 26.3379 306.543C26.7328 306.793 27.1817 306.918 27.6845 306.918C28.1845 306.918 28.632 306.793 29.0269 306.543C29.4246 306.29 29.7371 305.92 29.9644 305.435C30.1945 304.946 30.3095 304.347 30.3095 303.636ZM37.9487 299.273H39.2697V305.013C39.2697 305.624 39.1262 306.165 38.8393 306.636C38.5524 307.105 38.149 307.474 37.6291 307.744C37.1092 308.011 36.4998 308.145 35.801 308.145C35.1049 308.145 34.497 308.011 33.9771 307.744C33.4572 307.474 33.0538 307.105 32.7669 306.636C32.4799 306.165 32.3365 305.624 32.3365 305.013V299.273H33.6532V304.906C33.6532 305.301 33.7399 305.652 33.9132 305.959C34.0893 306.266 34.3379 306.507 34.6589 306.683C34.9799 306.857 35.3606 306.943 35.801 306.943C36.2441 306.943 36.6262 306.857 36.9473 306.683C37.2711 306.507 37.5183 306.266 37.6887 305.959C37.862 305.652 37.9487 305.301 37.9487 304.906V299.273ZM43.2597 308H41.8619L45.0026 299.273H46.5239L49.6645 308H48.2668L45.7994 300.858H45.7313L43.2597 308ZM43.494 304.582H48.0281V305.69H43.494V304.582ZM50.0061 308V299.273H53.1169C53.793 299.273 54.3541 299.389 54.8001 299.622C55.249 299.855 55.5842 300.178 55.8058 300.589C56.0274 300.999 56.1382 301.472 56.1382 302.009C56.1382 302.543 56.0259 303.013 55.8015 303.419C55.5799 303.822 55.2447 304.136 54.7958 304.361C54.3498 304.585 53.7887 304.697 53.1126 304.697H50.7561V303.564H52.9933C53.4194 303.564 53.766 303.503 54.0331 303.381C54.3029 303.259 54.5004 303.081 54.6254 302.848C54.7504 302.615 54.8129 302.335 54.8129 302.009C54.8129 301.679 54.749 301.393 54.6211 301.152C54.4961 300.911 54.2987 300.726 54.0288 300.598C53.7617 300.467 53.4109 300.402 52.9762 300.402H51.3228V308H50.0061ZM54.3143 304.062L56.4706 308H54.9706L52.8569 304.062H54.3143ZM56.8217 308V299.273H62.2933V300.406H58.1385V303.065H62.0078V304.195H58.1385V306.866H62.3444V308H56.8217ZM65.3905 308V299.273H66.7073V303.065H71.0581V299.273H72.3791V308H71.0581V304.195H66.7073V308H65.3905ZM73.378 308V299.273H78.8496V300.406H74.6948V303.065H78.5641V304.195H74.6948V306.866H78.9007V308H73.378ZM79.6898 308V299.273H82.8006C83.4767 299.273 84.0378 299.389 84.4838 299.622C84.9327 299.855 85.2679 300.178 85.4895 300.589C85.7111 300.999 85.8219 301.472 85.8219 302.009C85.8219 302.543 85.7096 303.013 85.4852 303.419C85.2636 303.822 84.9284 304.136 84.4795 304.361C84.0335 304.585 83.4724 304.697 82.7963 304.697H80.4398V303.564H82.677C83.1031 303.564 83.4497 303.503 83.7167 303.381C83.9866 303.259 84.1841 303.081 84.3091 302.848C84.4341 302.615 84.4966 302.335 84.4966 302.009C84.4966 301.679 84.4327 301.393 84.3048 301.152C84.1798 300.911 83.9824 300.726 83.7125 300.598C83.4454 300.467 83.0946 300.402 82.6599 300.402H81.0065V308H79.6898ZM83.998 304.062L86.1542 308H84.6542L82.5406 304.062H83.998ZM86.5054 308V299.273H91.977V300.406H87.8222V303.065H91.6915V304.195H87.8222V306.866H92.0281V308H86.5054Z" fill="white"/>
<path d="M278.65 309H275.2V298.818H278.72C279.731 298.818 280.599 299.022 281.325 299.43C282.054 299.834 282.614 300.416 283.005 301.175C283.396 301.934 283.592 302.842 283.592 303.899C283.592 304.96 283.395 305.871 283 306.634C282.609 307.396 282.044 307.981 281.305 308.388C280.569 308.796 279.684 309 278.65 309ZM277.044 307.404H278.561C279.27 307.404 279.862 307.275 280.336 307.016C280.81 306.754 281.166 306.365 281.404 305.848C281.643 305.328 281.762 304.678 281.762 303.899C281.762 303.12 281.643 302.474 281.404 301.96C281.166 301.443 280.813 301.057 280.345 300.802C279.881 300.543 279.305 300.414 278.615 300.414H277.044V307.404ZM285.186 309H283.218L286.802 298.818H289.079L292.669 309H290.7L287.98 300.906H287.901L285.186 309ZM285.251 305.008H290.62V306.489H285.251V305.008ZM291.356 298.818H293.439L295.93 303.322H296.029L298.52 298.818H300.603L296.899 305.202V309H295.06V305.202L291.356 298.818ZM307.586 298.818V309H305.742V300.613H305.682L303.301 302.134V300.444L305.831 298.818H307.586ZM312.872 309.139C312.133 309.139 311.477 309.015 310.903 308.766C310.333 308.518 309.886 308.178 309.561 307.747C309.24 307.313 309.081 306.821 309.084 306.271C309.081 305.843 309.173 305.45 309.362 305.092C309.551 304.734 309.806 304.436 310.128 304.197C310.453 303.955 310.814 303.801 311.212 303.735V303.665C310.688 303.549 310.264 303.283 309.939 302.865C309.618 302.444 309.458 301.959 309.462 301.408C309.458 300.885 309.604 300.417 309.899 300.006C310.194 299.595 310.599 299.272 311.112 299.037C311.626 298.798 312.213 298.679 312.872 298.679C313.525 298.679 314.107 298.798 314.617 299.037C315.131 299.272 315.535 299.595 315.83 300.006C316.129 300.417 316.278 300.885 316.278 301.408C316.278 301.959 316.114 302.444 315.786 302.865C315.461 303.283 315.042 303.549 314.528 303.665V303.735C314.926 303.801 315.283 303.955 315.602 304.197C315.923 304.436 316.178 304.734 316.367 305.092C316.56 305.45 316.656 305.843 316.656 306.271C316.656 306.821 316.493 307.313 316.168 307.747C315.844 308.178 315.396 308.518 314.826 308.766C314.259 309.015 313.608 309.139 312.872 309.139ZM312.872 307.717C313.253 307.717 313.585 307.653 313.867 307.523C314.148 307.391 314.367 307.205 314.523 306.967C314.679 306.728 314.758 306.453 314.761 306.141C314.758 305.817 314.674 305.53 314.508 305.281C314.345 305.029 314.122 304.832 313.837 304.69C313.555 304.547 313.234 304.476 312.872 304.476C312.508 304.476 312.183 304.547 311.898 304.69C311.613 304.832 311.387 305.029 311.222 305.281C311.059 305.53 310.98 305.817 310.983 306.141C310.98 306.453 311.056 306.728 311.212 306.967C311.368 307.202 311.586 307.386 311.868 307.518C312.153 307.651 312.488 307.717 312.872 307.717ZM312.872 303.079C313.184 303.079 313.459 303.016 313.698 302.89C313.939 302.764 314.13 302.588 314.269 302.363C314.408 302.138 314.48 301.877 314.483 301.582C314.48 301.291 314.41 301.036 314.274 300.817C314.138 300.595 313.949 300.424 313.707 300.305C313.466 300.182 313.187 300.121 312.872 300.121C312.551 300.121 312.267 300.182 312.022 300.305C311.78 300.424 311.591 300.595 311.455 300.817C311.323 301.036 311.258 301.291 311.261 301.582C311.258 301.877 311.324 302.138 311.46 302.363C311.6 302.585 311.79 302.761 312.032 302.89C312.277 303.016 312.557 303.079 312.872 303.079ZM321.135 309.194C320.316 309.194 319.613 308.987 319.027 308.572C318.444 308.155 317.994 307.553 317.68 306.768C317.368 305.979 317.212 305.029 317.212 303.919C317.216 302.809 317.373 301.864 317.685 301.085C317.999 300.303 318.448 299.706 319.032 299.295C319.618 298.884 320.319 298.679 321.135 298.679C321.95 298.679 322.651 298.884 323.238 299.295C323.824 299.706 324.274 300.303 324.585 301.085C324.9 301.867 325.057 302.812 325.057 303.919C325.057 305.033 324.9 305.984 324.585 306.773C324.274 307.558 323.824 308.158 323.238 308.572C322.654 308.987 321.953 309.194 321.135 309.194ZM321.135 307.638C321.771 307.638 322.273 307.325 322.641 306.698C323.012 306.068 323.198 305.142 323.198 303.919C323.198 303.11 323.113 302.431 322.944 301.881C322.775 301.33 322.537 300.916 322.229 300.638C321.92 300.356 321.556 300.215 321.135 300.215C320.502 300.215 320.001 300.53 319.633 301.16C319.265 301.786 319.08 302.706 319.077 303.919C319.073 304.731 319.154 305.414 319.32 305.967C319.489 306.521 319.728 306.938 320.036 307.22C320.344 307.499 320.711 307.638 321.135 307.638Z" fill="white"/>
<circle cx="302" cy="65" r="6.5" fill="#3DF7FF" stroke="white" stroke-width="3"/>
<path d="M286 65L276 73L276 57L286 65Z" fill="#3DF7FF"/>
<rect x="124" y="40" width="152" height="50" rx="16" fill="#3DF7FF"/>
<path d="M146.329 62V51.8182H149.958C150.75 51.8182 151.406 51.9624 151.927 52.2507C152.447 52.5391 152.836 52.9335 153.095 53.4339C153.353 53.9311 153.483 54.4912 153.483 55.1143C153.483 55.7408 153.352 56.3042 153.09 56.8047C152.831 57.3018 152.44 57.6963 151.917 57.9879C151.396 58.2763 150.742 58.4205 149.953 58.4205H147.457V57.1179H149.814C150.314 57.1179 150.72 57.0317 151.032 56.8594C151.343 56.6837 151.572 56.4451 151.718 56.1435C151.864 55.8419 151.937 55.4988 151.937 55.1143C151.937 54.7299 151.864 54.3885 151.718 54.0902C151.572 53.7919 151.342 53.5582 151.027 53.3892C150.715 53.2202 150.304 53.1357 149.794 53.1357H147.865V62H146.329ZM155.164 62V54.3636H156.601V55.5767H156.681C156.82 55.1657 157.065 54.8426 157.416 54.6072C157.771 54.3686 158.172 54.2493 158.62 54.2493C158.712 54.2493 158.822 54.2526 158.948 54.2592C159.077 54.2659 159.178 54.2741 159.251 54.2841V55.706C159.191 55.6894 159.085 55.6712 158.933 55.6513C158.78 55.6281 158.628 55.6165 158.475 55.6165C158.124 55.6165 157.811 55.6911 157.536 55.8402C157.264 55.986 157.049 56.1899 156.889 56.4517C156.73 56.7102 156.651 57.0052 156.651 57.3366V62H155.164ZM163.481 62.1541C162.765 62.1541 162.14 61.9901 161.606 61.6619C161.073 61.3338 160.658 60.8748 160.363 60.2848C160.068 59.6948 159.921 59.0054 159.921 58.2166C159.921 57.4245 160.068 56.7318 160.363 56.1385C160.658 55.5452 161.073 55.0845 161.606 54.7564C162.14 54.4283 162.765 54.2642 163.481 54.2642C164.196 54.2642 164.821 54.4283 165.355 54.7564C165.888 55.0845 166.303 55.5452 166.598 56.1385C166.893 56.7318 167.04 57.4245 167.04 58.2166C167.04 59.0054 166.893 59.6948 166.598 60.2848C166.303 60.8748 165.888 61.3338 165.355 61.6619C164.821 61.9901 164.196 62.1541 163.481 62.1541ZM163.486 60.9062C163.95 60.9062 164.334 60.7836 164.639 60.5384C164.944 60.2931 165.169 59.9666 165.315 59.5589C165.464 59.1513 165.539 58.7022 165.539 58.2116C165.539 57.7244 165.464 57.277 165.315 56.8693C165.169 56.4583 164.944 56.1286 164.639 55.88C164.334 55.6314 163.95 55.5071 163.486 55.5071C163.018 55.5071 162.63 55.6314 162.322 55.88C162.017 56.1286 161.79 56.4583 161.641 56.8693C161.495 57.277 161.422 57.7244 161.422 58.2116C161.422 58.7022 161.495 59.1513 161.641 59.5589C161.79 59.9666 162.017 60.2931 162.322 60.5384C162.63 60.7836 163.018 60.9062 163.486 60.9062ZM171.558 62.1491C170.942 62.1491 170.391 61.9917 169.908 61.6768C169.427 61.3587 169.049 60.9062 168.774 60.3196C168.502 59.7296 168.366 59.022 168.366 58.1967C168.366 57.3714 168.504 56.6655 168.779 56.0788C169.057 55.4922 169.439 55.0431 169.922 54.7315C170.406 54.42 170.955 54.2642 171.568 54.2642C172.042 54.2642 172.423 54.3438 172.712 54.5028C173.003 54.6586 173.229 54.8409 173.388 55.0497C173.55 55.2585 173.676 55.4425 173.766 55.6016H173.855V51.8182H175.342V62H173.89V60.8118H173.766C173.676 60.9742 173.547 61.1598 173.378 61.3686C173.212 61.5774 172.983 61.7597 172.692 61.9155C172.4 62.0713 172.022 62.1491 171.558 62.1491ZM171.886 60.8814C172.314 60.8814 172.675 60.7687 172.97 60.5433C173.268 60.3146 173.494 59.9981 173.646 59.5938C173.802 59.1894 173.88 58.7187 173.88 58.1818C173.88 57.6515 173.804 57.1875 173.651 56.7898C173.499 56.392 173.275 56.0821 172.98 55.8601C172.685 55.638 172.32 55.527 171.886 55.527C171.439 55.527 171.066 55.643 170.768 55.875C170.469 56.107 170.244 56.4235 170.092 56.8246C169.942 57.2256 169.868 57.678 169.868 58.1818C169.868 58.6922 169.944 59.1513 170.097 59.5589C170.249 59.9666 170.474 60.2898 170.773 60.5284C171.074 60.7637 171.445 60.8814 171.886 60.8814ZM182.301 58.8331V54.3636H183.792V62H182.33V60.6776H182.251C182.075 61.0852 181.793 61.425 181.406 61.6967C181.021 61.9652 180.542 62.0994 179.969 62.0994C179.478 62.0994 179.044 61.9917 178.666 61.7763C178.292 61.5575 177.997 61.2344 177.781 60.8068C177.569 60.3793 177.463 59.8506 177.463 59.2209V54.3636H178.95V59.0419C178.95 59.5623 179.094 59.9766 179.382 60.2848C179.671 60.593 180.045 60.7472 180.506 60.7472C180.784 60.7472 181.061 60.6776 181.336 60.5384C181.614 60.3991 181.845 60.1887 182.027 59.907C182.213 59.6252 182.304 59.2673 182.301 58.8331ZM189.006 62.1541C188.267 62.1541 187.63 61.9867 187.097 61.652C186.567 61.3139 186.159 60.8482 185.874 60.255C185.589 59.6617 185.446 58.9822 185.446 58.2166C185.446 57.4411 185.592 56.7566 185.884 56.1634C186.175 55.5668 186.586 55.1011 187.117 54.7663C187.647 54.4316 188.272 54.2642 188.991 54.2642C189.571 54.2642 190.088 54.3719 190.542 54.5874C190.996 54.7995 191.362 55.0978 191.641 55.4822C191.923 55.8667 192.09 56.3158 192.143 56.8295H190.696C190.617 56.4716 190.434 56.1634 190.149 55.9048C189.868 55.6463 189.49 55.517 189.016 55.517C188.602 55.517 188.239 55.6264 187.927 55.8452C187.619 56.0606 187.379 56.3688 187.206 56.7699C187.034 57.1676 186.948 57.6383 186.948 58.1818C186.948 58.7386 187.032 59.2192 187.201 59.6236C187.37 60.0279 187.609 60.3411 187.917 60.5632C188.229 60.7853 188.595 60.8963 189.016 60.8963C189.298 60.8963 189.553 60.8449 189.782 60.7422C190.014 60.6361 190.207 60.4853 190.363 60.2898C190.522 60.0942 190.633 59.8589 190.696 59.5838H192.143C192.09 60.0777 191.929 60.5185 191.661 60.9062C191.392 61.294 191.033 61.599 190.582 61.821C190.134 62.0431 189.609 62.1541 189.006 62.1541ZM197.297 54.3636V55.5568H193.126V54.3636H197.297ZM194.245 52.5341H195.731V59.7578C195.731 60.0462 195.774 60.2633 195.861 60.4091C195.947 60.5516 196.058 60.6494 196.194 60.7024C196.333 60.7521 196.484 60.777 196.646 60.777C196.765 60.777 196.87 60.7687 196.959 60.7521C197.049 60.7356 197.118 60.7223 197.168 60.7124L197.437 61.9403C197.35 61.9735 197.228 62.0066 197.069 62.0398C196.91 62.0762 196.711 62.0961 196.472 62.0994C196.081 62.1061 195.716 62.0365 195.378 61.8906C195.04 61.7448 194.767 61.5194 194.558 61.2145C194.349 60.9096 194.245 60.5268 194.245 60.0661V52.5341ZM198.942 62V54.3636H200.428V62H198.942ZM199.692 53.1854C199.434 53.1854 199.212 53.0992 199.026 52.9268C198.844 52.7512 198.753 52.5424 198.753 52.3004C198.753 52.0552 198.844 51.8464 199.026 51.674C199.212 51.4983 199.434 51.4105 199.692 51.4105C199.951 51.4105 200.171 51.4983 200.354 51.674C200.539 51.8464 200.632 52.0552 200.632 52.3004C200.632 52.5424 200.539 52.7512 200.354 52.9268C200.171 53.0992 199.951 53.1854 199.692 53.1854ZM208.961 54.3636L206.191 62H204.601L201.826 54.3636H203.422L205.356 60.2401H205.436L207.365 54.3636H208.961ZM210.358 62V54.3636H211.844V62H210.358ZM211.108 53.1854C210.85 53.1854 210.628 53.0992 210.442 52.9268C210.26 52.7512 210.169 52.5424 210.169 52.3004C210.169 52.0552 210.26 51.8464 210.442 51.674C210.628 51.4983 210.85 51.4105 211.108 51.4105C211.367 51.4105 211.587 51.4983 211.77 51.674C211.955 51.8464 212.048 52.0552 212.048 52.3004C212.048 52.5424 211.955 52.7512 211.77 52.9268C211.587 53.0992 211.367 53.1854 211.108 53.1854ZM217.409 54.3636V55.5568H213.237V54.3636H217.409ZM214.356 52.5341H215.843V59.7578C215.843 60.0462 215.886 60.2633 215.972 60.4091C216.058 60.5516 216.169 60.6494 216.305 60.7024C216.444 60.7521 216.595 60.777 216.757 60.777C216.877 60.777 216.981 60.7687 217.071 60.7521C217.16 60.7356 217.23 60.7223 217.279 60.7124L217.548 61.9403C217.462 61.9735 217.339 62.0066 217.18 62.0398C217.021 62.0762 216.822 62.0961 216.583 62.0994C216.192 62.1061 215.828 62.0365 215.49 61.8906C215.152 61.7448 214.878 61.5194 214.669 61.2145C214.46 60.9096 214.356 60.5268 214.356 60.0661V52.5341ZM219.993 64.8636C219.771 64.8636 219.568 64.8454 219.386 64.8089C219.204 64.7758 219.068 64.7393 218.978 64.6996L219.336 63.4815C219.608 63.5545 219.85 63.5859 220.062 63.576C220.274 63.5661 220.462 63.4865 220.624 63.3374C220.79 63.1882 220.936 62.9446 221.062 62.6065L221.245 62.0994L218.451 54.3636H220.042L221.976 60.2898H222.056L223.99 54.3636H225.586L222.439 63.0192C222.293 63.4169 222.107 63.7533 221.882 64.0284C221.656 64.3068 221.388 64.5156 221.076 64.6548C220.765 64.794 220.404 64.8636 219.993 64.8636ZM232.91 62.169C232.426 62.169 231.989 62.0795 231.598 61.9006C231.206 61.7183 230.897 61.4548 230.668 61.1101C230.443 60.7654 230.33 60.3428 230.33 59.8423C230.33 59.4115 230.413 59.0568 230.578 58.7784C230.744 58.5 230.968 58.2796 231.25 58.1172C231.531 57.9548 231.846 57.8321 232.194 57.7493C232.542 57.6664 232.897 57.6035 233.258 57.5604C233.715 57.5073 234.087 57.4643 234.372 57.4311C234.657 57.3946 234.864 57.3366 234.993 57.2571C235.122 57.1776 235.187 57.0483 235.187 56.8693V56.8345C235.187 56.4003 235.064 56.0639 234.819 55.8253C234.577 55.5866 234.216 55.4673 233.735 55.4673C233.235 55.4673 232.84 55.5784 232.552 55.8004C232.267 56.0192 232.07 56.2628 231.96 56.5312L230.563 56.2131C230.729 55.7491 230.971 55.3745 231.289 55.0895C231.611 54.8011 231.98 54.5923 232.398 54.4631C232.816 54.3305 233.255 54.2642 233.715 54.2642C234.02 54.2642 234.344 54.3007 234.685 54.3736C235.03 54.4432 235.351 54.5724 235.649 54.7614C235.951 54.9503 236.198 55.2204 236.39 55.5717C236.582 55.9197 236.679 56.3722 236.679 56.929V62H235.227V60.956H235.167C235.071 61.1482 234.927 61.3371 234.735 61.5227C234.542 61.7083 234.295 61.8625 233.994 61.9851C233.692 62.1077 233.331 62.169 232.91 62.169ZM233.233 60.9759C233.644 60.9759 233.996 60.8946 234.287 60.7322C234.582 60.5698 234.806 60.3577 234.958 60.0959C235.114 59.8307 235.192 59.5473 235.192 59.2457V58.2614C235.139 58.3144 235.036 58.3641 234.884 58.4105C234.735 58.4536 234.564 58.4917 234.372 58.5249C234.179 58.5547 233.992 58.5829 233.81 58.6094C233.628 58.6326 233.475 58.6525 233.353 58.669C233.064 58.7055 232.801 58.7668 232.562 58.853C232.327 58.9392 232.138 59.0634 231.995 59.2259C231.856 59.3849 231.786 59.5971 231.786 59.8622C231.786 60.2301 231.922 60.5085 232.194 60.6974C232.466 60.883 232.812 60.9759 233.233 60.9759ZM240.145 57.4659V62H238.658V54.3636H240.085V55.6065H240.18C240.355 55.2022 240.631 54.8774 241.005 54.6321C241.383 54.3868 241.859 54.2642 242.432 54.2642C242.952 54.2642 243.408 54.3736 243.799 54.5923C244.19 54.8078 244.493 55.1293 244.709 55.5568C244.924 55.9844 245.032 56.513 245.032 57.1428V62H243.546V57.3217C243.546 56.7682 243.401 56.3357 243.113 56.0241C242.825 55.7093 242.429 55.5518 241.925 55.5518C241.58 55.5518 241.274 55.6264 241.005 55.7756C240.74 55.9247 240.529 56.1435 240.374 56.4318C240.221 56.7169 240.145 57.0616 240.145 57.4659ZM249.884 62.1491C249.268 62.1491 248.718 61.9917 248.234 61.6768C247.753 61.3587 247.375 60.9062 247.1 60.3196C246.828 59.7296 246.693 59.022 246.693 58.1967C246.693 57.3714 246.83 56.6655 247.105 56.0788C247.384 55.4922 247.765 55.0431 248.249 54.7315C248.733 54.42 249.281 54.2642 249.894 54.2642C250.368 54.2642 250.749 54.3438 251.038 54.5028C251.329 54.6586 251.555 54.8409 251.714 55.0497C251.876 55.2585 252.002 55.4425 252.092 55.6016H252.181V51.8182H253.668V62H252.216V60.8118H252.092C252.002 60.9742 251.873 61.1598 251.704 61.3686C251.538 61.5774 251.31 61.7597 251.018 61.9155C250.726 62.0713 250.348 62.1491 249.884 62.1491ZM250.212 60.8814C250.64 60.8814 251.001 60.7687 251.296 60.5433C251.595 60.3146 251.82 59.9981 251.972 59.5938C252.128 59.1894 252.206 58.7187 252.206 58.1818C252.206 57.6515 252.13 57.1875 251.977 56.7898C251.825 56.392 251.601 56.0821 251.306 55.8601C251.011 55.638 250.647 55.527 250.212 55.527C249.765 55.527 249.392 55.643 249.094 55.875C248.796 56.107 248.57 56.4235 248.418 56.8246C248.269 57.2256 248.194 57.678 248.194 58.1818C248.194 58.6922 248.27 59.1513 248.423 59.5589C248.575 59.9666 248.801 60.2898 249.099 60.5284C249.4 60.7637 249.772 60.8814 250.212 60.8814ZM161.772 72.1293H160.22C160.161 71.7978 160.05 71.5062 159.887 71.2543C159.725 71.0024 159.526 70.7886 159.291 70.6129C159.055 70.4373 158.792 70.3047 158.5 70.2152C158.212 70.1257 157.905 70.081 157.581 70.081C156.994 70.081 156.469 70.2285 156.005 70.5234C155.544 70.8184 155.179 71.2509 154.911 71.821C154.646 72.3911 154.513 73.0871 154.513 73.9091C154.513 74.7377 154.646 75.437 154.911 76.0071C155.179 76.5772 155.545 77.008 156.009 77.2997C156.474 77.5914 156.996 77.7372 157.576 77.7372C157.897 77.7372 158.202 77.6941 158.49 77.608C158.782 77.5185 159.045 77.3875 159.281 77.2152C159.516 77.0429 159.715 76.8324 159.877 76.5838C160.043 76.3319 160.157 76.0436 160.22 75.7188L161.772 75.7237C161.689 76.2242 161.528 76.6849 161.289 77.1058C161.054 77.5234 160.751 77.8847 160.38 78.1896C160.012 78.4912 159.591 78.7249 159.117 78.8906C158.643 79.0563 158.126 79.1392 157.566 79.1392C156.684 79.1392 155.898 78.9304 155.209 78.5128C154.52 78.0919 153.976 77.4903 153.578 76.7081C153.184 75.9259 152.987 74.9929 152.987 73.9091C152.987 72.822 153.186 71.889 153.583 71.1101C153.981 70.3279 154.525 69.728 155.214 69.3104C155.903 68.8894 156.687 68.679 157.566 68.679C158.106 68.679 158.61 68.7569 159.077 68.9126C159.548 69.0651 159.97 69.2905 160.345 69.5888C160.719 69.8838 161.029 70.245 161.274 70.6726C161.52 71.0968 161.685 71.5824 161.772 72.1293ZM166.707 79.1541C165.991 79.1541 165.366 78.9901 164.833 78.6619C164.299 78.3338 163.885 77.8748 163.59 77.2848C163.295 76.6948 163.147 76.0054 163.147 75.2166C163.147 74.4245 163.295 73.7318 163.59 73.1385C163.885 72.5452 164.299 72.0845 164.833 71.7564C165.366 71.4283 165.991 71.2642 166.707 71.2642C167.423 71.2642 168.048 71.4283 168.581 71.7564C169.115 72.0845 169.529 72.5452 169.824 73.1385C170.119 73.7318 170.267 74.4245 170.267 75.2166C170.267 76.0054 170.119 76.6948 169.824 77.2848C169.529 77.8748 169.115 78.3338 168.581 78.6619C168.048 78.9901 167.423 79.1541 166.707 79.1541ZM166.712 77.9062C167.176 77.9062 167.561 77.7836 167.866 77.5384C168.17 77.2931 168.396 76.9666 168.542 76.5589C168.691 76.1513 168.765 75.7022 168.765 75.2116C168.765 74.7244 168.691 74.277 168.542 73.8693C168.396 73.4583 168.17 73.1286 167.866 72.88C167.561 72.6314 167.176 72.5071 166.712 72.5071C166.245 72.5071 165.857 72.6314 165.549 72.88C165.244 73.1286 165.017 73.4583 164.868 73.8693C164.722 74.277 164.649 74.7244 164.649 75.2116C164.649 75.7022 164.722 76.1513 164.868 76.5589C165.017 76.9666 165.244 77.2931 165.549 77.5384C165.857 77.7836 166.245 77.9062 166.712 77.9062ZM173.413 74.4659V79H171.926V71.3636H173.353V72.6065H173.447C173.623 72.2022 173.898 71.8774 174.273 71.6321C174.65 71.3868 175.126 71.2642 175.699 71.2642C176.22 71.2642 176.676 71.3736 177.067 71.5923C177.458 71.8078 177.761 72.1293 177.976 72.5568C178.192 72.9844 178.3 73.513 178.3 74.1428V79H176.813V74.3217C176.813 73.7682 176.669 73.3357 176.381 73.0241C176.092 72.7093 175.696 72.5518 175.192 72.5518C174.848 72.5518 174.541 72.6264 174.273 72.7756C174.007 72.9247 173.797 73.1435 173.641 73.4318C173.489 73.7169 173.413 74.0616 173.413 74.4659ZM183.51 79.1541C182.771 79.1541 182.134 78.9867 181.601 78.652C181.07 78.3139 180.663 77.8482 180.378 77.255C180.093 76.6617 179.95 75.9822 179.95 75.2166C179.95 74.4411 180.096 73.7566 180.388 73.1634C180.679 72.5668 181.09 72.1011 181.621 71.7663C182.151 71.4316 182.776 71.2642 183.495 71.2642C184.075 71.2642 184.592 71.3719 185.046 71.5874C185.5 71.7995 185.866 72.0978 186.145 72.4822C186.427 72.8667 186.594 73.3158 186.647 73.8295H185.2C185.121 73.4716 184.938 73.1634 184.653 72.9048C184.372 72.6463 183.994 72.517 183.52 72.517C183.105 72.517 182.743 72.6264 182.431 72.8452C182.123 73.0606 181.882 73.3688 181.71 73.7699C181.538 74.1676 181.452 74.6383 181.452 75.1818C181.452 75.7386 181.536 76.2192 181.705 76.6236C181.874 77.0279 182.113 77.3411 182.421 77.5632C182.733 77.7853 183.099 77.8963 183.52 77.8963C183.802 77.8963 184.057 77.8449 184.285 77.7422C184.517 77.6361 184.711 77.4853 184.867 77.2898C185.026 77.0942 185.137 76.8589 185.2 76.5838H186.647C186.594 77.0777 186.433 77.5185 186.165 77.9062C185.896 78.294 185.537 78.599 185.086 78.821C184.638 79.0431 184.113 79.1541 183.51 79.1541ZM191.528 79.1541C190.775 79.1541 190.127 78.9934 189.584 78.6719C189.044 78.3471 188.626 77.8913 188.331 77.3047C188.039 76.7147 187.894 76.0237 187.894 75.2315C187.894 74.4493 188.039 73.7599 188.331 73.1634C188.626 72.5668 189.037 72.1011 189.564 71.7663C190.094 71.4316 190.714 71.2642 191.423 71.2642C191.854 71.2642 192.272 71.3355 192.676 71.478C193.081 71.6205 193.444 71.8442 193.765 72.1491C194.087 72.4541 194.34 72.8501 194.526 73.3374C194.711 73.8213 194.804 74.4096 194.804 75.1023V75.6293H188.734V74.5156H193.347C193.347 74.1245 193.268 73.7782 193.109 73.4766C192.95 73.1716 192.726 72.9313 192.438 72.7557C192.153 72.58 191.818 72.4922 191.433 72.4922C191.016 72.4922 190.651 72.5949 190.34 72.8004C190.031 73.0026 189.793 73.2678 189.624 73.5959C189.458 73.9207 189.375 74.2737 189.375 74.6548V75.5249C189.375 76.0353 189.465 76.4695 189.644 76.8274C189.826 77.1854 190.079 77.4588 190.404 77.6477C190.729 77.8333 191.109 77.9261 191.543 77.9261C191.824 77.9261 192.081 77.8864 192.313 77.8068C192.545 77.724 192.746 77.6013 192.915 77.4389C193.084 77.2765 193.213 77.076 193.303 76.8374L194.71 77.0909C194.597 77.5052 194.395 77.8681 194.103 78.1797C193.815 78.4879 193.452 78.7282 193.014 78.9006C192.58 79.0696 192.085 79.1541 191.528 79.1541ZM197.94 74.4659V79H196.453V71.3636H197.88V72.6065H197.975C198.15 72.2022 198.425 71.8774 198.8 71.6321C199.178 71.3868 199.653 71.2642 200.227 71.2642C200.747 71.2642 201.203 71.3736 201.594 71.5923C201.985 71.8078 202.288 72.1293 202.504 72.5568C202.719 72.9844 202.827 73.513 202.827 74.1428V79H201.34V74.3217C201.34 73.7682 201.196 73.3357 200.908 73.0241C200.62 72.7093 200.224 72.5518 199.72 72.5518C199.375 72.5518 199.068 72.6264 198.8 72.7756C198.535 72.9247 198.324 73.1435 198.169 73.4318C198.016 73.7169 197.94 74.0616 197.94 74.4659ZM208.385 71.3636V72.5568H204.214V71.3636H208.385ZM205.333 69.5341H206.819V76.7578C206.819 77.0462 206.862 77.2633 206.948 77.4091C207.035 77.5516 207.146 77.6494 207.282 77.7024C207.421 77.7521 207.572 77.777 207.734 77.777C207.853 77.777 207.958 77.7687 208.047 77.7521C208.137 77.7356 208.206 77.7223 208.256 77.7124L208.524 78.9403C208.438 78.9735 208.316 79.0066 208.157 79.0398C207.997 79.0762 207.799 79.0961 207.56 79.0994C207.169 79.1061 206.804 79.0365 206.466 78.8906C206.128 78.7448 205.855 78.5194 205.646 78.2145C205.437 77.9096 205.333 77.5268 205.333 77.0661V69.5341ZM210.03 79V71.3636H211.466V72.5767H211.546C211.685 72.1657 211.93 71.8426 212.282 71.6072C212.636 71.3686 213.037 71.2493 213.485 71.2493C213.578 71.2493 213.687 71.2526 213.813 71.2592C213.942 71.2659 214.043 71.2741 214.116 71.2841V72.706C214.057 72.6894 213.95 72.6712 213.798 72.6513C213.646 72.6281 213.493 72.6165 213.341 72.6165C212.989 72.6165 212.676 72.6911 212.401 72.8402C212.129 72.986 211.914 73.1899 211.755 73.4517C211.596 73.7102 211.516 74.0052 211.516 74.3366V79H210.03ZM217.557 79.169C217.073 79.169 216.635 79.0795 216.244 78.9006C215.853 78.7183 215.543 78.4548 215.314 78.1101C215.089 77.7654 214.976 77.3428 214.976 76.8423C214.976 76.4115 215.059 76.0568 215.225 75.7784C215.391 75.5 215.614 75.2796 215.896 75.1172C216.178 74.9548 216.493 74.8321 216.841 74.7493C217.189 74.6664 217.543 74.6035 217.905 74.5604C218.362 74.5073 218.733 74.4643 219.018 74.4311C219.303 74.3946 219.51 74.3366 219.64 74.2571C219.769 74.1776 219.834 74.0483 219.834 73.8693V73.8345C219.834 73.4003 219.711 73.0639 219.466 72.8253C219.224 72.5866 218.862 72.4673 218.382 72.4673C217.881 72.4673 217.487 72.5784 217.199 72.8004C216.914 73.0192 216.716 73.2628 216.607 73.5312L215.21 73.2131C215.376 72.7491 215.618 72.3745 215.936 72.0895C216.257 71.8011 216.627 71.5923 217.044 71.4631C217.462 71.3305 217.901 71.2642 218.362 71.2642C218.667 71.2642 218.99 71.3007 219.331 71.3736C219.676 71.4432 219.998 71.5724 220.296 71.7614C220.598 71.9503 220.844 72.2204 221.037 72.5717C221.229 72.9197 221.325 73.3722 221.325 73.929V79H219.873V77.956H219.814C219.718 78.1482 219.573 78.3371 219.381 78.5227C219.189 78.7083 218.942 78.8625 218.64 78.9851C218.339 79.1077 217.977 79.169 217.557 79.169ZM217.88 77.9759C218.291 77.9759 218.642 77.8946 218.934 77.7322C219.229 77.5698 219.452 77.3577 219.605 77.0959C219.761 76.8307 219.839 76.5473 219.839 76.2457V75.2614C219.785 75.3144 219.683 75.3641 219.53 75.4105C219.381 75.4536 219.21 75.4917 219.018 75.5249C218.826 75.5547 218.639 75.5829 218.456 75.6094C218.274 75.6326 218.122 75.6525 217.999 75.669C217.711 75.7055 217.447 75.7668 217.209 75.853C216.973 75.9392 216.784 76.0634 216.642 76.2259C216.503 76.3849 216.433 76.5971 216.433 76.8622C216.433 77.2301 216.569 77.5085 216.841 77.6974C217.112 77.883 217.459 77.9759 217.88 77.9759ZM226.87 71.3636V72.5568H222.698V71.3636H226.87ZM223.817 69.5341H225.304V76.7578C225.304 77.0462 225.347 77.2633 225.433 77.4091C225.519 77.5516 225.63 77.6494 225.766 77.7024C225.905 77.7521 226.056 77.777 226.218 77.777C226.338 77.777 226.442 77.7687 226.532 77.7521C226.621 77.7356 226.691 77.7223 226.74 77.7124L227.009 78.9403C226.923 78.9735 226.8 79.0066 226.641 79.0398C226.482 79.0762 226.283 79.0961 226.044 79.0994C225.653 79.1061 225.289 79.0365 224.951 78.8906C224.612 78.7448 224.339 78.5194 224.13 78.2145C223.921 77.9096 223.817 77.5268 223.817 77.0661V69.5341ZM228.514 79V71.3636H230V79H228.514ZM229.265 70.1854C229.006 70.1854 228.784 70.0992 228.598 69.9268C228.416 69.7512 228.325 69.5424 228.325 69.3004C228.325 69.0552 228.416 68.8464 228.598 68.674C228.784 68.4983 229.006 68.4105 229.265 68.4105C229.523 68.4105 229.744 68.4983 229.926 68.674C230.111 68.8464 230.204 69.0552 230.204 69.3004C230.204 69.5424 230.111 69.7512 229.926 69.9268C229.744 70.0992 229.523 70.1854 229.265 70.1854ZM235.217 79.1541C234.501 79.1541 233.876 78.9901 233.343 78.6619C232.809 78.3338 232.395 77.8748 232.1 77.2848C231.805 76.6948 231.657 76.0054 231.657 75.2166C231.657 74.4245 231.805 73.7318 232.1 73.1385C232.395 72.5452 232.809 72.0845 233.343 71.7564C233.876 71.4283 234.501 71.2642 235.217 71.2642C235.933 71.2642 236.558 71.4283 237.091 71.7564C237.625 72.0845 238.039 72.5452 238.334 73.1385C238.629 73.7318 238.777 74.4245 238.777 75.2166C238.777 76.0054 238.629 76.6948 238.334 77.2848C238.039 77.8748 237.625 78.3338 237.091 78.6619C236.558 78.9901 235.933 79.1541 235.217 79.1541ZM235.222 77.9062C235.686 77.9062 236.07 77.7836 236.375 77.5384C236.68 77.2931 236.906 76.9666 237.051 76.5589C237.201 76.1513 237.275 75.7022 237.275 75.2116C237.275 74.7244 237.201 74.277 237.051 73.8693C236.906 73.4583 236.68 73.1286 236.375 72.88C236.07 72.6314 235.686 72.5071 235.222 72.5071C234.755 72.5071 234.367 72.6314 234.059 72.88C233.754 73.1286 233.527 73.4583 233.377 73.8693C233.232 74.277 233.159 74.7244 233.159 75.2116C233.159 75.7022 233.232 76.1513 233.377 76.5589C233.527 76.9666 233.754 77.2931 234.059 77.5384C234.367 77.7836 234.755 77.9062 235.222 77.9062ZM241.922 74.4659V79H240.436V71.3636H241.863V72.6065H241.957C242.133 72.2022 242.408 71.8774 242.782 71.6321C243.16 71.3868 243.636 71.2642 244.209 71.2642C244.73 71.2642 245.185 71.3736 245.576 71.5923C245.968 71.8078 246.271 72.1293 246.486 72.5568C246.702 72.9844 246.809 73.513 246.809 74.1428V79H245.323V74.3217C245.323 73.7682 245.179 73.3357 244.89 73.0241C244.602 72.7093 244.206 72.5518 243.702 72.5518C243.357 72.5518 243.051 72.6264 242.782 72.7756C242.517 72.9247 242.307 73.1435 242.151 73.4318C241.999 73.7169 241.922 74.0616 241.922 74.4659Z" fill="#134A47"/>
<defs>
<linearGradient id="paint0_linear_0_530" x1="23.2071" y1="178.627" x2="334.193" y2="188.151" gradientUnits="userSpaceOnUse">
<stop stop-color="#F175B9"/>
<stop offset="0.305" stop-color="#8089FF"/>
<stop offset="0.81" stop-color="#3DF7FF"/>
</linearGradient>
<linearGradient id="paint1_linear_0_530" x1="300.992" y1="253.398" x2="38.5346" y2="219.631" gradientUnits="userSpaceOnUse">
<stop offset="0.513085" stop-color="#5A91FF"/>
<stop offset="0.799452" stop-color="#5A91FF" stop-opacity="0.58"/>
<stop offset="1" stop-color="#5A91FF" stop-opacity="0"/>
</linearGradient>
<linearGradient id="paint2_linear_0_530" x1="301.979" y1="89.1954" x2="28.2098" y2="138.146" gradientUnits="userSpaceOnUse">
<stop stop-color="#3DF7FF" stop-opacity="0"/>
<stop offset="0.2" stop-color="#3DF7FF" stop-opacity="0.512923"/>
<stop offset="0.351763" stop-color="#3DF7FF"/>
<stop offset="0.661149" stop-color="#8089FF"/>
<stop offset="1" stop-color="#F175B9"/>
</linearGradient>
<linearGradient id="paint3_linear_0_530" x1="32.5" y1="47.5006" x2="325.31" y2="186.11" gradientUnits="userSpaceOnUse">
<stop stop-color="#365799" stop-opacity="0"/>
<stop offset="0.42" stop-color="#5A91FF"/>
<stop offset="1" stop-color="#5A91FF"/>
</linearGradient>
<linearGradient id="paint4_linear_0_530" x1="39.957" y1="234.501" x2="318.528" y2="184.979" gradientUnits="userSpaceOnUse">
<stop offset="0.16752" stop-color="#F175B9"/>
<stop offset="0.329568" stop-color="#8089FF"/>
<stop offset="0.62492" stop-color="#3DF7FF"/>
</linearGradient>
</defs>
</svg>
