<svg width="640" height="441" viewBox="0 0 640 441" fill="none" xmlns="http://www.w3.org/2000/svg">
<rect x="0.5" y="0.588257" width="639" height="439" rx="22.4682" fill="#134A47"/>
<rect x="0.5" y="0.588257" width="639" height="439" rx="22.4682" stroke="url(#paint0_linear_0_1394)"/>
<path d="M79 341H561V270.588C414.5 270.588 81.5 240.5 79 34.5004V212.5V341Z" fill="url(#paint1_linear_0_1394)" fill-opacity="0.4"/>
<path d="M560 340.5H78V323.289C404.5 351.088 537 128.088 560 85.5004V224.097V340.5Z" fill="url(#paint2_linear_0_1394)" fill-opacity="0.4"/>
<line x1="559" y1="365.088" x2="559" y2="88.0883" stroke="#2E7B7A" stroke-width="2" stroke-dasharray="8 8"/>
<path d="M79 365.088L79 78.0882" stroke="#2E7B7A" stroke-width="2"/>
<line y1="-0.5" x2="560" y2="-0.5" transform="matrix(-1 -7.27321e-08 -1.05081e-07 1 600 131.088)" stroke="white" stroke-opacity="0.6" stroke-dasharray="4.59 4.59"/>
<line y1="-0.5" x2="560" y2="-0.5" transform="matrix(-1 -7.27321e-08 -1.05081e-07 1 600 201.088)" stroke="white" stroke-opacity="0.6" stroke-dasharray="4.59 4.59"/>
<line y1="-0.5" x2="560" y2="-0.5" transform="matrix(-1 -7.27321e-08 -1.05081e-07 1 600 271.088)" stroke="white" stroke-opacity="0.6" stroke-dasharray="4.59 4.59"/>
<line y1="-0.5" x2="560" y2="-0.5" transform="matrix(-1 -7.27321e-08 -1.05081e-07 1 600 341.088)" stroke="white" stroke-opacity="0.6" stroke-dasharray="4.59 4.59"/>
<path d="M559.559 272.089C559.559 272.089 373.348 275.874 253.043 227.089C126.043 175.588 88.316 100.501 88.316 100.501" stroke="url(#paint3_linear_0_1394)" stroke-width="6" stroke-linecap="round"/>
<path d="M79.0584 324.726C205.543 331.589 291.376 316.124 379.043 268.589C491.543 207.589 560.053 91.4988 560.053 91.4988" stroke="url(#paint4_linear_0_1394)" stroke-width="6" stroke-linecap="round"/>
<circle cx="79" cy="324.088" r="6" fill="white"/>
<circle cx="559.043" cy="272.089" r="10" fill="#5A91FF" stroke="white" stroke-width="4"/>
<path d="M40.6603 384.452H42.6546L45.6943 389.742H45.8193L48.8591 384.452H50.8534L46.6318 391.52V396.088H44.8818V391.52L40.6603 384.452ZM61.1066 390.27C61.1066 391.512 60.8793 392.581 60.4248 393.475C59.9702 394.365 59.3471 395.05 58.5554 395.531C57.7676 396.009 56.8717 396.247 55.8679 396.247C54.8604 396.247 53.9607 396.009 53.1691 395.531C52.3812 395.05 51.76 394.363 51.3054 393.469C50.8509 392.575 50.6236 391.509 50.6236 390.27C50.6236 389.028 50.8509 387.961 51.3054 387.071C51.76 386.177 52.3812 385.492 53.1691 385.014C53.9607 384.533 54.8604 384.293 55.8679 384.293C56.8717 384.293 57.7676 384.533 58.5554 385.014C59.3471 385.492 59.9702 386.177 60.4248 387.071C60.8793 387.961 61.1066 389.028 61.1066 390.27ZM59.3679 390.27C59.3679 389.323 59.2145 388.526 58.9077 387.878C58.6047 387.227 58.188 386.734 57.6577 386.401C57.1312 386.064 56.5346 385.895 55.8679 385.895C55.1975 385.895 54.599 386.064 54.0725 386.401C53.546 386.734 53.1293 387.227 52.8225 387.878C52.5195 388.526 52.3679 389.323 52.3679 390.27C52.3679 391.217 52.5195 392.016 52.8225 392.668C53.1293 393.316 53.546 393.808 54.0725 394.145C54.599 394.478 55.1975 394.645 55.8679 394.645C56.5346 394.645 57.1312 394.478 57.6577 394.145C58.188 393.808 58.6047 393.316 58.9077 392.668C59.2145 392.016 59.3679 391.217 59.3679 390.27ZM69.8597 384.452H71.6211V392.105C71.6211 392.92 71.4298 393.641 71.0472 394.27C70.6647 394.895 70.1268 395.387 69.4336 395.747C68.7404 396.103 67.9279 396.281 66.9961 396.281C66.0681 396.281 65.2575 396.103 64.5643 395.747C63.8711 395.387 63.3332 394.895 62.9506 394.27C62.5681 393.641 62.3768 392.92 62.3768 392.105V384.452H64.1325V391.963C64.1325 392.49 64.248 392.958 64.479 393.367C64.7139 393.776 65.0453 394.098 65.4734 394.333C65.9014 394.564 66.409 394.679 66.9961 394.679C67.587 394.679 68.0965 394.564 68.5245 394.333C68.9563 394.098 69.2859 393.776 69.5131 393.367C69.7442 392.958 69.8597 392.49 69.8597 391.963V384.452ZM77.5535 396.088H75.6899L79.8774 384.452H81.9058L86.0933 396.088H84.2297L80.9399 386.566H80.849L77.5535 396.088ZM77.866 391.531H83.9115V393.009H77.866V391.531ZM86.855 396.088V384.452H91.0027C91.9042 384.452 92.6523 384.607 93.247 384.918C93.8455 385.228 94.2925 385.658 94.5879 386.208C94.8834 386.753 95.0311 387.384 95.0311 388.1C95.0311 388.812 94.8815 389.439 94.5822 389.98C94.2868 390.518 93.8398 390.937 93.2413 391.236C92.6466 391.535 91.8985 391.685 90.997 391.685H87.855V390.173H90.8379C91.4061 390.173 91.8682 390.092 92.2243 389.929C92.5841 389.766 92.8474 389.53 93.0141 389.219C93.1807 388.908 93.2641 388.535 93.2641 388.1C93.2641 387.66 93.1788 387.28 93.0084 386.958C92.8417 386.636 92.5784 386.389 92.2186 386.219C91.8625 386.045 91.3947 385.958 90.8152 385.958H88.6106V396.088H86.855ZM92.5993 390.838L95.4743 396.088H93.4743L90.6561 390.838H92.5993ZM96.2487 396.088V384.452H103.544V385.963H98.0044V389.509H103.164V391.014H98.0044V394.577H103.612V396.088H96.2487ZM108.286 396.088V384.452H110.042V389.509H115.843V384.452H117.604V396.088H115.843V391.014H110.042V396.088H108.286ZM119.243 396.088V384.452H126.538V385.963H120.998V389.509H126.157V391.014H120.998V394.577H126.606V396.088H119.243ZM127.964 396.088V384.452H132.112C133.014 384.452 133.762 384.607 134.356 384.918C134.955 385.228 135.402 385.658 135.697 386.208C135.993 386.753 136.141 387.384 136.141 388.1C136.141 388.812 135.991 389.439 135.692 389.98C135.396 390.518 134.949 390.937 134.351 391.236C133.756 391.535 133.008 391.685 132.106 391.685H128.964V390.173H131.947C132.516 390.173 132.978 390.092 133.334 389.929C133.694 389.766 133.957 389.53 134.124 389.219C134.29 388.908 134.374 388.535 134.374 388.1C134.374 387.66 134.288 387.28 134.118 386.958C133.951 386.636 133.688 386.389 133.328 386.219C132.972 386.045 132.504 385.958 131.925 385.958H129.72V396.088H127.964ZM133.709 390.838L136.584 396.088H134.584L131.766 390.838H133.709ZM137.358 396.088V384.452H144.654V385.963H139.114V389.509H144.273V391.014H139.114V394.577H144.722V396.088H137.358Z" fill="white"/>
<path d="M537.706 396.088H533.763V384.452H537.786C538.941 384.452 539.934 384.685 540.763 385.151C541.597 385.613 542.237 386.278 542.684 387.145C543.131 388.012 543.354 389.05 543.354 390.259C543.354 391.471 543.129 392.512 542.678 393.384C542.231 394.255 541.585 394.923 540.741 395.389C539.9 395.855 538.888 396.088 537.706 396.088ZM535.871 394.264H537.604C538.415 394.264 539.091 394.117 539.633 393.821C540.174 393.522 540.581 393.077 540.854 392.486C541.127 391.891 541.263 391.149 541.263 390.259C541.263 389.369 541.127 388.63 540.854 388.043C540.581 387.452 540.178 387.011 539.644 386.719C539.114 386.423 538.455 386.276 537.667 386.276H535.871V394.264ZM545.308 396.088H543.058L547.154 384.452H549.756L553.859 396.088H551.609L548.501 386.838H548.41L545.308 396.088ZM545.381 391.526H551.518V393.219H545.381V391.526ZM552.49 384.452H554.87L557.717 389.6H557.831L560.677 384.452H563.058L558.825 391.747V396.088H556.723V391.747L552.49 384.452ZM571.301 384.452V396.088H569.193V386.503H569.125L566.404 388.242V386.31L569.296 384.452H571.301ZM577.474 396.247C576.629 396.247 575.879 396.105 575.224 395.821C574.572 395.537 574.061 395.149 573.69 394.656C573.322 394.16 573.14 393.598 573.144 392.969C573.14 392.48 573.246 392.031 573.462 391.622C573.678 391.213 573.97 390.872 574.337 390.6C574.708 390.323 575.121 390.147 575.576 390.071V389.992C574.977 389.859 574.493 389.554 574.121 389.077C573.754 388.596 573.572 388.041 573.576 387.412C573.572 386.814 573.739 386.28 574.076 385.81C574.413 385.34 574.875 384.971 575.462 384.702C576.049 384.429 576.72 384.293 577.474 384.293C578.22 384.293 578.885 384.429 579.468 384.702C580.055 384.971 580.517 385.34 580.854 385.81C581.195 386.28 581.366 386.814 581.366 387.412C581.366 388.041 581.178 388.596 580.803 389.077C580.432 389.554 579.953 389.859 579.366 389.992V390.071C579.82 390.147 580.229 390.323 580.593 390.6C580.96 390.872 581.252 391.213 581.468 391.622C581.688 392.031 581.797 392.48 581.797 392.969C581.797 393.598 581.612 394.16 581.241 394.656C580.869 395.149 580.358 395.537 579.707 395.821C579.059 396.105 578.315 396.247 577.474 396.247ZM577.474 394.622C577.909 394.622 578.288 394.548 578.61 394.401C578.932 394.249 579.182 394.037 579.36 393.764C579.538 393.492 579.629 393.177 579.633 392.821C579.629 392.45 579.532 392.122 579.343 391.838C579.157 391.55 578.902 391.325 578.576 391.162C578.254 390.999 577.887 390.918 577.474 390.918C577.057 390.918 576.686 390.999 576.36 391.162C576.034 391.325 575.777 391.55 575.587 391.838C575.402 392.122 575.311 392.45 575.315 392.821C575.311 393.177 575.398 393.492 575.576 393.764C575.754 394.033 576.004 394.244 576.326 394.395C576.652 394.547 577.034 394.622 577.474 394.622ZM577.474 389.321C577.83 389.321 578.144 389.249 578.417 389.105C578.693 388.961 578.911 388.761 579.07 388.503C579.229 388.245 579.311 387.948 579.315 387.611C579.311 387.278 579.231 386.986 579.076 386.736C578.921 386.482 578.705 386.287 578.428 386.151C578.152 386.011 577.833 385.941 577.474 385.941C577.106 385.941 576.782 386.011 576.502 386.151C576.226 386.287 576.01 386.482 575.854 386.736C575.703 386.986 575.629 387.278 575.633 387.611C575.629 387.948 575.705 388.245 575.86 388.503C576.019 388.757 576.237 388.958 576.513 389.105C576.794 389.249 577.114 389.321 577.474 389.321ZM587.048 396.31C586.112 396.31 585.309 396.073 584.639 395.6C583.972 395.122 583.459 394.435 583.099 393.537C582.743 392.636 582.565 391.55 582.565 390.281C582.569 389.012 582.749 387.933 583.105 387.043C583.464 386.149 583.978 385.467 584.644 384.997C585.315 384.528 586.116 384.293 587.048 384.293C587.98 384.293 588.781 384.528 589.451 384.997C590.122 385.467 590.635 386.149 590.991 387.043C591.351 387.937 591.531 389.016 591.531 390.281C591.531 391.554 591.351 392.641 590.991 393.543C590.635 394.441 590.122 395.126 589.451 395.6C588.785 396.073 587.983 396.31 587.048 396.31ZM587.048 394.531C587.775 394.531 588.349 394.173 588.769 393.458C589.194 392.738 589.406 391.679 589.406 390.281C589.406 389.357 589.309 388.581 589.116 387.952C588.923 387.323 588.65 386.85 588.298 386.531C587.946 386.209 587.529 386.048 587.048 386.048C586.324 386.048 585.752 386.408 585.332 387.128C584.911 387.844 584.699 388.895 584.696 390.281C584.692 391.209 584.785 391.99 584.974 392.622C585.167 393.255 585.44 393.732 585.792 394.054C586.144 394.372 586.563 394.531 587.048 394.531Z" fill="white"/>
<path d="M559 288.088L567 298.088L551 298.088L559 288.088Z" fill="#5A91FF"/>
<rect x="446" y="298.088" width="151" height="54" rx="16" fill="#5A91FF"/>
<path d="M464.638 321.088V309.452H468.786C469.691 309.452 470.441 309.617 471.036 309.946C471.63 310.276 472.075 310.727 472.371 311.298C472.666 311.867 472.814 312.507 472.814 313.219C472.814 313.935 472.664 314.579 472.365 315.151C472.07 315.719 471.623 316.17 471.024 316.503C470.429 316.833 469.681 316.997 468.78 316.997H465.928V315.509H468.621C469.193 315.509 469.657 315.41 470.013 315.213C470.369 315.012 470.63 314.74 470.797 314.395C470.964 314.05 471.047 313.658 471.047 313.219C471.047 312.78 470.964 312.389 470.797 312.048C470.63 311.708 470.367 311.441 470.007 311.247C469.651 311.054 469.181 310.958 468.598 310.958H466.393V321.088H464.638ZM474.736 321.088V312.361H476.378V313.747H476.469C476.628 313.278 476.908 312.908 477.31 312.639C477.715 312.367 478.173 312.23 478.685 312.23C478.791 312.23 478.916 312.234 479.06 312.242C479.207 312.249 479.323 312.259 479.406 312.27V313.895C479.338 313.876 479.217 313.855 479.043 313.833C478.868 313.806 478.694 313.793 478.52 313.793C478.118 313.793 477.76 313.878 477.446 314.048C477.135 314.215 476.889 314.448 476.707 314.747C476.526 315.043 476.435 315.38 476.435 315.759V321.088H474.736ZM484.24 321.264C483.422 321.264 482.708 321.077 482.098 320.702C481.488 320.327 481.015 319.802 480.678 319.128C480.34 318.454 480.172 317.666 480.172 316.764C480.172 315.859 480.34 315.067 480.678 314.389C481.015 313.711 481.488 313.185 482.098 312.81C482.708 312.435 483.422 312.247 484.24 312.247C485.058 312.247 485.772 312.435 486.382 312.81C486.992 313.185 487.465 313.711 487.803 314.389C488.14 315.067 488.308 315.859 488.308 316.764C488.308 317.666 488.14 318.454 487.803 319.128C487.465 319.802 486.992 320.327 486.382 320.702C485.772 321.077 485.058 321.264 484.24 321.264ZM484.246 319.838C484.776 319.838 485.215 319.698 485.564 319.418C485.912 319.137 486.17 318.764 486.337 318.298C486.507 317.833 486.592 317.319 486.592 316.759C486.592 316.202 486.507 315.691 486.337 315.225C486.17 314.755 485.912 314.378 485.564 314.094C485.215 313.81 484.776 313.668 484.246 313.668C483.712 313.668 483.268 313.81 482.916 314.094C482.568 314.378 482.308 314.755 482.138 315.225C481.971 315.691 481.888 316.202 481.888 316.759C481.888 317.319 481.971 317.833 482.138 318.298C482.308 318.764 482.568 319.137 482.916 319.418C483.268 319.698 483.712 319.838 484.246 319.838ZM493.881 321.264C493.036 321.264 492.309 321.073 491.699 320.691C491.093 320.304 490.627 319.772 490.301 319.094C489.975 318.416 489.812 317.639 489.812 316.764C489.812 315.878 489.979 315.096 490.312 314.418C490.646 313.736 491.116 313.204 491.722 312.821C492.328 312.439 493.042 312.247 493.864 312.247C494.527 312.247 495.117 312.37 495.636 312.617C496.155 312.859 496.574 313.2 496.892 313.639C497.214 314.079 497.405 314.592 497.466 315.179H495.812C495.722 314.77 495.513 314.418 495.188 314.122C494.866 313.827 494.434 313.679 493.892 313.679C493.419 313.679 493.004 313.804 492.648 314.054C492.295 314.3 492.021 314.653 491.824 315.111C491.627 315.566 491.528 316.103 491.528 316.725C491.528 317.361 491.625 317.91 491.818 318.372C492.011 318.834 492.284 319.192 492.636 319.446C492.992 319.7 493.411 319.827 493.892 319.827C494.214 319.827 494.506 319.768 494.767 319.651C495.032 319.53 495.254 319.357 495.432 319.134C495.614 318.91 495.741 318.641 495.812 318.327H497.466C497.405 318.891 497.222 319.395 496.915 319.838C496.608 320.281 496.197 320.63 495.682 320.884C495.17 321.137 494.57 321.264 493.881 321.264ZM499.283 321.088V312.361H500.925V313.747H501.016C501.175 313.278 501.455 312.908 501.857 312.639C502.262 312.367 502.72 312.23 503.232 312.23C503.338 312.23 503.463 312.234 503.607 312.242C503.754 312.249 503.87 312.259 503.953 312.27V313.895C503.885 313.876 503.764 313.855 503.589 313.833C503.415 313.806 503.241 313.793 503.067 313.793C502.665 313.793 502.307 313.878 501.993 314.048C501.682 314.215 501.436 314.448 501.254 314.747C501.072 315.043 500.982 315.38 500.982 315.759V321.088H499.283ZM507.885 321.281C507.332 321.281 506.832 321.179 506.385 320.975C505.938 320.766 505.584 320.465 505.322 320.071C505.065 319.677 504.936 319.194 504.936 318.622C504.936 318.13 505.031 317.725 505.22 317.406C505.41 317.088 505.665 316.836 505.987 316.651C506.309 316.465 506.669 316.325 507.067 316.23C507.464 316.136 507.87 316.064 508.283 316.014C508.805 315.954 509.23 315.905 509.555 315.867C509.881 315.825 510.118 315.759 510.266 315.668C510.413 315.577 510.487 315.429 510.487 315.225V315.185C510.487 314.689 510.347 314.304 510.067 314.031C509.79 313.759 509.377 313.622 508.828 313.622C508.256 313.622 507.805 313.749 507.476 314.003C507.15 314.253 506.925 314.531 506.8 314.838L505.203 314.475C505.393 313.944 505.669 313.516 506.033 313.191C506.4 312.861 506.822 312.622 507.3 312.475C507.777 312.323 508.279 312.247 508.805 312.247C509.154 312.247 509.523 312.289 509.913 312.372C510.307 312.452 510.675 312.6 511.016 312.816C511.36 313.031 511.643 313.34 511.862 313.742C512.082 314.139 512.192 314.656 512.192 315.293V321.088H510.533V319.895H510.464C510.355 320.115 510.19 320.331 509.97 320.543C509.75 320.755 509.468 320.931 509.124 321.071C508.779 321.211 508.366 321.281 507.885 321.281ZM508.254 319.918C508.724 319.918 509.125 319.825 509.459 319.639C509.796 319.454 510.052 319.211 510.226 318.912C510.404 318.609 510.493 318.285 510.493 317.941V316.816C510.432 316.876 510.315 316.933 510.141 316.986C509.97 317.035 509.775 317.079 509.555 317.117C509.336 317.151 509.122 317.183 508.913 317.213C508.705 317.24 508.531 317.262 508.391 317.281C508.061 317.323 507.76 317.393 507.487 317.492C507.218 317.59 507.002 317.732 506.839 317.918C506.68 318.1 506.601 318.342 506.601 318.645C506.601 319.066 506.756 319.384 507.067 319.6C507.377 319.812 507.773 319.918 508.254 319.918ZM520.994 314.492L519.455 314.764C519.39 314.567 519.288 314.38 519.148 314.202C519.011 314.024 518.826 313.878 518.591 313.764C518.356 313.651 518.063 313.594 517.71 313.594C517.229 313.594 516.828 313.702 516.506 313.918C516.184 314.13 516.023 314.405 516.023 314.742C516.023 315.033 516.131 315.268 516.347 315.446C516.563 315.624 516.911 315.77 517.392 315.884L518.778 316.202C519.581 316.387 520.18 316.673 520.574 317.06C520.968 317.446 521.165 317.948 521.165 318.566C521.165 319.088 521.013 319.554 520.71 319.963C520.411 320.369 519.992 320.687 519.455 320.918C518.92 321.149 518.301 321.264 517.597 321.264C516.619 321.264 515.822 321.056 515.205 320.639C514.587 320.219 514.208 319.622 514.068 318.85L515.71 318.6C515.813 319.028 516.023 319.352 516.341 319.571C516.659 319.787 517.074 319.895 517.585 319.895C518.142 319.895 518.587 319.78 518.92 319.548C519.254 319.314 519.42 319.028 519.42 318.691C519.42 318.418 519.318 318.189 519.114 318.003C518.913 317.817 518.604 317.677 518.188 317.583L516.71 317.259C515.896 317.073 515.294 316.778 514.903 316.372C514.517 315.967 514.324 315.454 514.324 314.833C514.324 314.317 514.468 313.867 514.756 313.48C515.044 313.094 515.441 312.793 515.949 312.577C516.456 312.357 517.038 312.247 517.693 312.247C518.636 312.247 519.379 312.452 519.92 312.861C520.462 313.266 520.82 313.81 520.994 314.492ZM527.107 312.361V313.725H522.339V312.361H527.107ZM523.618 310.27H525.317V318.526C525.317 318.855 525.366 319.103 525.464 319.27C525.563 319.433 525.69 319.545 525.845 319.605C526.004 319.662 526.177 319.691 526.362 319.691C526.499 319.691 526.618 319.681 526.72 319.662C526.822 319.643 526.902 319.628 526.959 319.617L527.266 321.02C527.167 321.058 527.027 321.096 526.845 321.134C526.663 321.175 526.436 321.198 526.163 321.202C525.716 321.209 525.3 321.13 524.913 320.963C524.527 320.797 524.214 320.539 523.976 320.191C523.737 319.842 523.618 319.405 523.618 318.878V310.27ZM528.986 321.088V312.361H530.685V321.088H528.986ZM529.844 311.014C529.548 311.014 529.295 310.916 529.082 310.719C528.874 310.518 528.77 310.28 528.77 310.003C528.77 309.723 528.874 309.484 529.082 309.287C529.295 309.086 529.548 308.986 529.844 308.986C530.139 308.986 530.391 309.086 530.599 309.287C530.812 309.484 530.918 309.723 530.918 310.003C530.918 310.28 530.812 310.518 530.599 310.719C530.391 310.916 530.139 311.014 529.844 311.014ZM534.669 315.906V321.088H532.97V312.361H534.601V313.781H534.709C534.91 313.319 535.224 312.948 535.652 312.668C536.084 312.387 536.627 312.247 537.283 312.247C537.877 312.247 538.398 312.372 538.845 312.622C539.292 312.869 539.639 313.236 539.885 313.725C540.131 314.213 540.254 314.817 540.254 315.537V321.088H538.555V315.742C538.555 315.109 538.391 314.615 538.061 314.259C537.732 313.899 537.279 313.719 536.703 313.719C536.309 313.719 535.959 313.804 535.652 313.975C535.349 314.145 535.108 314.395 534.93 314.725C534.756 315.05 534.669 315.444 534.669 315.906ZM545.072 321.281C544.519 321.281 544.019 321.179 543.572 320.975C543.125 320.766 542.771 320.465 542.51 320.071C542.252 319.677 542.124 319.194 542.124 318.622C542.124 318.13 542.218 317.725 542.408 317.406C542.597 317.088 542.853 316.836 543.175 316.651C543.497 316.465 543.857 316.325 544.254 316.23C544.652 316.136 545.057 316.064 545.47 316.014C545.993 315.954 546.417 315.905 546.743 315.867C547.069 315.825 547.305 315.759 547.453 315.668C547.601 315.577 547.675 315.429 547.675 315.225V315.185C547.675 314.689 547.535 314.304 547.254 314.031C546.978 313.759 546.565 313.622 546.016 313.622C545.444 313.622 544.993 313.749 544.663 314.003C544.338 314.253 544.112 314.531 543.987 314.838L542.391 314.475C542.58 313.944 542.857 313.516 543.22 313.191C543.588 312.861 544.01 312.622 544.487 312.475C544.964 312.323 545.466 312.247 545.993 312.247C546.341 312.247 546.711 312.289 547.101 312.372C547.495 312.452 547.862 312.6 548.203 312.816C548.548 313.031 548.83 313.34 549.05 313.742C549.269 314.139 549.379 314.656 549.379 315.293V321.088H547.72V319.895H547.652C547.542 320.115 547.377 320.331 547.158 320.543C546.938 320.755 546.656 320.931 546.311 321.071C545.966 321.211 545.554 321.281 545.072 321.281ZM545.442 319.918C545.911 319.918 546.313 319.825 546.646 319.639C546.983 319.454 547.239 319.211 547.413 318.912C547.591 318.609 547.68 318.285 547.68 317.941V316.816C547.62 316.876 547.502 316.933 547.328 316.986C547.158 317.035 546.963 317.079 546.743 317.117C546.523 317.151 546.309 317.183 546.101 317.213C545.893 317.24 545.718 317.262 545.578 317.281C545.249 317.323 544.947 317.393 544.675 317.492C544.406 317.59 544.19 317.732 544.027 317.918C543.868 318.1 543.788 318.342 543.788 318.645C543.788 319.066 543.944 319.384 544.254 319.6C544.565 319.812 544.961 319.918 545.442 319.918ZM555.716 312.361V313.725H550.949V312.361H555.716ZM552.227 310.27H553.926V318.526C553.926 318.855 553.975 319.103 554.074 319.27C554.172 319.433 554.299 319.545 554.455 319.605C554.614 319.662 554.786 319.691 554.972 319.691C555.108 319.691 555.227 319.681 555.33 319.662C555.432 319.643 555.511 319.628 555.568 319.617L555.875 321.02C555.777 321.058 555.636 321.096 555.455 321.134C555.273 321.175 555.045 321.198 554.773 321.202C554.326 321.209 553.909 321.13 553.523 320.963C553.136 320.797 552.824 320.539 552.585 320.191C552.347 319.842 552.227 319.405 552.227 318.878V310.27ZM557.595 321.088V312.361H559.294V321.088H557.595ZM558.453 311.014C558.158 311.014 557.904 310.916 557.692 310.719C557.483 310.518 557.379 310.28 557.379 310.003C557.379 309.723 557.483 309.484 557.692 309.287C557.904 309.086 558.158 308.986 558.453 308.986C558.749 308.986 559 309.086 559.209 309.287C559.421 309.484 559.527 309.723 559.527 310.003C559.527 310.28 559.421 310.518 559.209 310.719C559 310.916 558.749 311.014 558.453 311.014ZM565.256 321.264C564.438 321.264 563.723 321.077 563.114 320.702C562.504 320.327 562.03 319.802 561.693 319.128C561.356 318.454 561.188 317.666 561.188 316.764C561.188 315.859 561.356 315.067 561.693 314.389C562.03 313.711 562.504 313.185 563.114 312.81C563.723 312.435 564.438 312.247 565.256 312.247C566.074 312.247 566.788 312.435 567.398 312.81C568.008 313.185 568.481 313.711 568.818 314.389C569.155 315.067 569.324 315.859 569.324 316.764C569.324 317.666 569.155 318.454 568.818 319.128C568.481 319.802 568.008 320.327 567.398 320.702C566.788 321.077 566.074 321.264 565.256 321.264ZM565.261 319.838C565.792 319.838 566.231 319.698 566.58 319.418C566.928 319.137 567.186 318.764 567.352 318.298C567.523 317.833 567.608 317.319 567.608 316.759C567.608 316.202 567.523 315.691 567.352 315.225C567.186 314.755 566.928 314.378 566.58 314.094C566.231 313.81 565.792 313.668 565.261 313.668C564.727 313.668 564.284 313.81 563.932 314.094C563.583 314.378 563.324 314.755 563.153 315.225C562.987 315.691 562.903 316.202 562.903 316.759C562.903 317.319 562.987 317.833 563.153 318.298C563.324 318.764 563.583 319.137 563.932 319.418C564.284 319.698 564.727 319.838 565.261 319.838ZM572.919 315.906V321.088H571.22V312.361H572.851V313.781H572.959C573.16 313.319 573.474 312.948 573.902 312.668C574.334 312.387 574.877 312.247 575.533 312.247C576.127 312.247 576.648 312.372 577.095 312.622C577.542 312.869 577.889 313.236 578.135 313.725C578.381 314.213 578.504 314.817 578.504 315.537V321.088H576.805V315.742C576.805 315.109 576.641 314.615 576.311 314.259C575.982 313.899 575.529 313.719 574.953 313.719C574.559 313.719 574.209 313.804 573.902 313.975C573.599 314.145 573.358 314.395 573.18 314.725C573.006 315.05 572.919 315.444 572.919 315.906ZM489.244 333.492L487.705 333.764C487.64 333.567 487.538 333.38 487.398 333.202C487.261 333.024 487.076 332.878 486.841 332.764C486.606 332.651 486.313 332.594 485.96 332.594C485.479 332.594 485.078 332.702 484.756 332.918C484.434 333.13 484.273 333.405 484.273 333.742C484.273 334.033 484.381 334.268 484.597 334.446C484.813 334.624 485.161 334.77 485.642 334.884L487.028 335.202C487.831 335.387 488.43 335.673 488.824 336.06C489.218 336.446 489.415 336.948 489.415 337.566C489.415 338.088 489.263 338.554 488.96 338.963C488.661 339.369 488.242 339.687 487.705 339.918C487.17 340.149 486.551 340.264 485.847 340.264C484.869 340.264 484.072 340.056 483.455 339.639C482.837 339.219 482.458 338.622 482.318 337.85L483.96 337.6C484.063 338.028 484.273 338.352 484.591 338.571C484.909 338.787 485.324 338.895 485.835 338.895C486.392 338.895 486.837 338.78 487.17 338.548C487.504 338.314 487.67 338.028 487.67 337.691C487.67 337.418 487.568 337.189 487.364 337.003C487.163 336.817 486.854 336.677 486.438 336.583L484.96 336.259C484.146 336.073 483.544 335.778 483.153 335.372C482.767 334.967 482.574 334.454 482.574 333.833C482.574 333.317 482.718 332.867 483.006 332.48C483.294 332.094 483.691 331.793 484.199 331.577C484.706 331.357 485.288 331.247 485.943 331.247C486.886 331.247 487.629 331.452 488.17 331.861C488.712 332.266 489.07 332.81 489.244 333.492ZM492.357 343.361C492.103 343.361 491.872 343.34 491.663 343.298C491.455 343.261 491.3 343.219 491.197 343.173L491.607 341.781C491.917 341.865 492.194 341.901 492.436 341.889C492.679 341.878 492.893 341.787 493.078 341.617C493.268 341.446 493.434 341.168 493.578 340.781L493.788 340.202L490.595 331.361H492.413L494.624 338.134H494.714L496.925 331.361H498.749L495.152 341.253C494.985 341.708 494.773 342.092 494.516 342.406C494.258 342.725 493.951 342.963 493.595 343.122C493.239 343.281 492.826 343.361 492.357 343.361ZM500.345 340.088V331.361H501.976V332.781H502.084C502.266 332.3 502.563 331.925 502.976 331.656C503.389 331.384 503.883 331.247 504.459 331.247C505.042 331.247 505.531 331.384 505.925 331.656C506.322 331.929 506.616 332.304 506.805 332.781H506.896C507.105 332.316 507.436 331.944 507.891 331.668C508.345 331.387 508.887 331.247 509.516 331.247C510.307 331.247 510.953 331.495 511.453 331.992C511.957 332.488 512.209 333.236 512.209 334.236V340.088H510.51V334.395C510.51 333.804 510.349 333.376 510.027 333.111C509.705 332.846 509.321 332.713 508.874 332.713C508.321 332.713 507.891 332.884 507.584 333.225C507.277 333.562 507.124 333.995 507.124 334.526V340.088H505.43V334.287C505.43 333.814 505.283 333.433 504.987 333.145C504.692 332.857 504.307 332.713 503.834 332.713C503.512 332.713 503.214 332.798 502.942 332.969C502.673 333.136 502.455 333.369 502.288 333.668C502.125 333.967 502.044 334.314 502.044 334.708V340.088H500.345ZM514.486 343.361V331.361H516.145V332.776H516.287C516.385 332.594 516.527 332.384 516.713 332.145C516.899 331.906 517.156 331.698 517.486 331.52C517.815 331.338 518.251 331.247 518.793 331.247C519.497 331.247 520.126 331.425 520.679 331.781C521.232 332.137 521.666 332.651 521.98 333.321C522.298 333.992 522.457 334.798 522.457 335.742C522.457 336.685 522.3 337.494 521.986 338.168C521.671 338.838 521.24 339.355 520.69 339.719C520.141 340.079 519.514 340.259 518.81 340.259C518.279 340.259 517.846 340.17 517.509 339.992C517.175 339.814 516.914 339.605 516.724 339.367C516.535 339.128 516.389 338.916 516.287 338.73H516.185V343.361H514.486ZM516.151 335.725C516.151 336.338 516.24 336.876 516.418 337.338C516.596 337.8 516.853 338.162 517.19 338.423C517.527 338.681 517.94 338.81 518.429 338.81C518.937 338.81 519.361 338.675 519.702 338.406C520.043 338.134 520.3 337.764 520.474 337.298C520.652 336.833 520.741 336.308 520.741 335.725C520.741 335.149 520.654 334.632 520.48 334.173C520.31 333.715 520.052 333.353 519.707 333.088C519.366 332.823 518.94 332.691 518.429 332.691C517.937 332.691 517.52 332.817 517.179 333.071C516.842 333.325 516.586 333.679 516.412 334.134C516.238 334.588 516.151 335.119 516.151 335.725ZM528.435 331.361V332.725H523.668V331.361H528.435ZM524.946 329.27H526.645V337.526C526.645 337.855 526.694 338.103 526.793 338.27C526.891 338.433 527.018 338.545 527.173 338.605C527.332 338.662 527.505 338.691 527.69 338.691C527.827 338.691 527.946 338.681 528.048 338.662C528.151 338.643 528.23 338.628 528.287 338.617L528.594 340.02C528.495 340.058 528.355 340.096 528.173 340.134C527.991 340.175 527.764 340.198 527.491 340.202C527.045 340.209 526.628 340.13 526.241 339.963C525.855 339.797 525.543 339.539 525.304 339.191C525.065 338.842 524.946 338.405 524.946 337.878V329.27ZM533.896 340.264C533.078 340.264 532.364 340.077 531.754 339.702C531.144 339.327 530.671 338.802 530.334 338.128C529.997 337.454 529.828 336.666 529.828 335.764C529.828 334.859 529.997 334.067 530.334 333.389C530.671 332.711 531.144 332.185 531.754 331.81C532.364 331.435 533.078 331.247 533.896 331.247C534.714 331.247 535.429 331.435 536.038 331.81C536.648 332.185 537.122 332.711 537.459 333.389C537.796 334.067 537.964 334.859 537.964 335.764C537.964 336.666 537.796 337.454 537.459 338.128C537.122 338.802 536.648 339.327 536.038 339.702C535.429 340.077 534.714 340.264 533.896 340.264ZM533.902 338.838C534.432 338.838 534.872 338.698 535.22 338.418C535.569 338.137 535.826 337.764 535.993 337.298C536.163 336.833 536.249 336.319 536.249 335.759C536.249 335.202 536.163 334.691 535.993 334.225C535.826 333.755 535.569 333.378 535.22 333.094C534.872 332.81 534.432 332.668 533.902 332.668C533.368 332.668 532.925 332.81 532.572 333.094C532.224 333.378 531.964 333.755 531.794 334.225C531.627 334.691 531.544 335.202 531.544 335.759C531.544 336.319 531.627 336.833 531.794 337.298C531.964 337.764 532.224 338.137 532.572 338.418C532.925 338.698 533.368 338.838 533.902 338.838ZM539.861 340.088V331.361H541.491V332.781H541.599C541.781 332.3 542.079 331.925 542.491 331.656C542.904 331.384 543.399 331.247 543.974 331.247C544.558 331.247 545.046 331.384 545.44 331.656C545.838 331.929 546.132 332.304 546.321 332.781H546.412C546.62 332.316 546.952 331.944 547.406 331.668C547.861 331.387 548.402 331.247 549.031 331.247C549.823 331.247 550.469 331.495 550.969 331.992C551.473 332.488 551.724 333.236 551.724 334.236V340.088H550.026V334.395C550.026 333.804 549.865 333.376 549.543 333.111C549.221 332.846 548.836 332.713 548.389 332.713C547.836 332.713 547.406 332.884 547.099 333.225C546.793 333.562 546.639 333.995 546.639 334.526V340.088H544.946V334.287C544.946 333.814 544.798 333.433 544.503 333.145C544.207 332.857 543.823 332.713 543.349 332.713C543.027 332.713 542.73 332.798 542.457 332.969C542.188 333.136 541.971 333.369 541.804 333.668C541.641 333.967 541.56 334.314 541.56 334.708V340.088H539.861ZM560.541 333.492L559.001 333.764C558.937 333.567 558.835 333.38 558.695 333.202C558.558 333.024 558.373 332.878 558.138 332.764C557.903 332.651 557.609 332.594 557.257 332.594C556.776 332.594 556.375 332.702 556.053 332.918C555.731 333.13 555.57 333.405 555.57 333.742C555.57 334.033 555.678 334.268 555.893 334.446C556.109 334.624 556.458 334.77 556.939 334.884L558.325 335.202C559.128 335.387 559.727 335.673 560.121 336.06C560.515 336.446 560.712 336.948 560.712 337.566C560.712 338.088 560.56 338.554 560.257 338.963C559.958 339.369 559.539 339.687 559.001 339.918C558.467 340.149 557.848 340.264 557.143 340.264C556.166 340.264 555.369 340.056 554.751 339.639C554.134 339.219 553.755 338.622 553.615 337.85L555.257 337.6C555.359 338.028 555.57 338.352 555.888 338.571C556.206 338.787 556.621 338.895 557.132 338.895C557.689 338.895 558.134 338.78 558.467 338.548C558.801 338.314 558.967 338.028 558.967 337.691C558.967 337.418 558.865 337.189 558.661 337.003C558.46 336.817 558.151 336.677 557.734 336.583L556.257 336.259C555.443 336.073 554.84 335.778 554.45 335.372C554.064 334.967 553.871 334.454 553.871 333.833C553.871 333.317 554.015 332.867 554.303 332.48C554.59 332.094 554.988 331.793 555.496 331.577C556.003 331.357 556.585 331.247 557.24 331.247C558.183 331.247 558.926 331.452 559.467 331.861C560.009 332.266 560.367 332.81 560.541 333.492Z" fill="white"/>
<path d="M545 89.0883L535 97.0883L535 81.0883L545 89.0883Z" fill="#3DF7FF"/>
<rect x="375" y="64.0883" width="160" height="54" rx="16" fill="#3DF7FF"/>
<path d="M393.661 87.0883V75.4519H397.809C398.714 75.4519 399.464 75.6167 400.059 75.9462C400.654 76.2758 401.099 76.7265 401.394 77.2985C401.69 77.8667 401.837 78.5068 401.837 79.2189C401.837 79.9348 401.688 80.5788 401.388 81.1508C401.093 81.7189 400.646 82.1697 400.048 82.503C399.453 82.8326 398.705 82.9973 397.803 82.9973H394.951V81.5087H397.644C398.216 81.5087 398.68 81.4102 399.036 81.2133C399.392 81.0125 399.654 80.7398 399.82 80.3951C399.987 80.0504 400.07 79.6583 400.07 79.2189C400.07 78.7795 399.987 78.3894 399.82 78.0485C399.654 77.7076 399.39 77.4405 399.031 77.2473C398.674 77.0542 398.205 76.9576 397.621 76.9576H395.417V87.0883H393.661ZM403.759 87.0883V78.361H405.401V79.7473H405.492C405.651 79.2777 405.932 78.9083 406.333 78.6394C406.738 78.3667 407.197 78.2303 407.708 78.2303C407.814 78.2303 407.939 78.2341 408.083 78.2417C408.231 78.2492 408.346 78.2587 408.43 78.2701V79.8951C408.362 79.8761 408.24 79.8553 408.066 79.8326C407.892 79.8061 407.718 79.7928 407.543 79.7928C407.142 79.7928 406.784 79.878 406.469 80.0485C406.159 80.2152 405.913 80.4481 405.731 80.7473C405.549 81.0428 405.458 81.3799 405.458 81.7587V87.0883H403.759ZM413.263 87.2644C412.445 87.2644 411.731 87.0769 411.121 86.7019C410.512 86.3269 410.038 85.8023 409.701 85.128C409.364 84.4538 409.195 83.6659 409.195 82.7644C409.195 81.8591 409.364 81.0674 409.701 80.3894C410.038 79.7114 410.512 79.1848 411.121 78.8098C411.731 78.4348 412.445 78.2473 413.263 78.2473C414.082 78.2473 414.796 78.4348 415.406 78.8098C416.015 79.1848 416.489 79.7114 416.826 80.3894C417.163 81.0674 417.332 81.8591 417.332 82.7644C417.332 83.6659 417.163 84.4538 416.826 85.128C416.489 85.8023 416.015 86.3269 415.406 86.7019C414.796 87.0769 414.082 87.2644 413.263 87.2644ZM413.269 85.8383C413.799 85.8383 414.239 85.6981 414.587 85.4178C414.936 85.1375 415.193 84.7644 415.36 84.2985C415.531 83.8326 415.616 83.3193 415.616 82.7587C415.616 82.2019 415.531 81.6905 415.36 81.2246C415.193 80.7549 414.936 80.378 414.587 80.0939C414.239 79.8098 413.799 79.6678 413.269 79.6678C412.735 79.6678 412.292 79.8098 411.94 80.0939C411.591 80.378 411.332 80.7549 411.161 81.2246C410.995 81.6905 410.911 82.2019 410.911 82.7587C410.911 83.3193 410.995 83.8326 411.161 84.2985C411.332 84.7644 411.591 85.1375 411.94 85.4178C412.292 85.6981 412.735 85.8383 413.269 85.8383ZM422.495 87.2587C421.79 87.2587 421.162 87.0788 420.609 86.7189C420.059 86.3553 419.628 85.8383 419.313 85.1678C419.003 84.4936 418.847 83.6848 418.847 82.7417C418.847 81.7985 419.004 80.9917 419.319 80.3212C419.637 79.6508 420.073 79.1375 420.626 78.7814C421.179 78.4254 421.806 78.2473 422.506 78.2473C423.048 78.2473 423.484 78.3383 423.813 78.5201C424.147 78.6981 424.404 78.9064 424.586 79.1451C424.772 79.3837 424.915 79.5939 425.018 79.7758H425.12V75.4519H426.819V87.0883H425.16V85.7303H425.018C424.915 85.9159 424.768 86.128 424.575 86.3667C424.385 86.6053 424.124 86.8136 423.79 86.9917C423.457 87.1697 423.025 87.2587 422.495 87.2587ZM422.87 85.8098C423.359 85.8098 423.772 85.6811 424.109 85.4235C424.45 85.1621 424.707 84.8004 424.881 84.3383C425.059 83.8761 425.148 83.3383 425.148 82.7246C425.148 82.1186 425.061 81.5883 424.887 81.1337C424.713 80.6792 424.457 80.325 424.12 80.0712C423.783 79.8174 423.366 79.6905 422.87 79.6905C422.359 79.6905 421.933 79.8231 421.592 80.0883C421.251 80.3534 420.993 80.7152 420.819 81.1735C420.648 81.6318 420.563 82.1489 420.563 82.7246C420.563 83.308 420.65 83.8326 420.825 84.2985C420.999 84.7644 421.256 85.1337 421.597 85.4064C421.942 85.6754 422.366 85.8098 422.87 85.8098ZM434.772 83.4689V78.361H436.477V87.0883H434.806V85.5769H434.715C434.514 86.0428 434.192 86.4311 433.749 86.7417C433.31 87.0485 432.763 87.2019 432.107 87.2019C431.547 87.2019 431.05 87.0788 430.619 86.8326C430.191 86.5826 429.853 86.2133 429.607 85.7246C429.365 85.236 429.244 84.6318 429.244 83.9121V78.361H430.942V83.7076C430.942 84.3023 431.107 84.7758 431.437 85.128C431.766 85.4803 432.194 85.6564 432.721 85.6564C433.039 85.6564 433.355 85.5769 433.67 85.4178C433.988 85.2587 434.251 85.0182 434.46 84.6962C434.672 84.3742 434.776 83.9652 434.772 83.4689ZM442.435 87.2644C441.591 87.2644 440.863 87.0731 440.254 86.6905C439.647 86.3042 439.182 85.772 438.856 85.0939C438.53 84.4159 438.367 83.6394 438.367 82.7644C438.367 81.878 438.534 81.0958 438.867 80.4178C439.201 79.736 439.67 79.2038 440.276 78.8212C440.882 78.4386 441.596 78.2473 442.418 78.2473C443.081 78.2473 443.672 78.3705 444.191 78.6167C444.71 78.8591 445.129 79.2 445.447 79.6394C445.769 80.0788 445.96 80.592 446.021 81.1792H444.367C444.276 80.7701 444.068 80.4178 443.742 80.1223C443.42 79.8269 442.988 79.6792 442.447 79.6792C441.973 79.6792 441.558 79.8042 441.202 80.0542C440.85 80.3004 440.576 80.6527 440.379 81.111C440.182 81.5655 440.083 82.1034 440.083 82.7246C440.083 83.361 440.18 83.9102 440.373 84.3723C440.566 84.8345 440.839 85.1924 441.191 85.4462C441.547 85.7 441.966 85.8269 442.447 85.8269C442.769 85.8269 443.06 85.7682 443.322 85.6508C443.587 85.5295 443.808 85.3572 443.987 85.1337C444.168 84.9102 444.295 84.6413 444.367 84.3269H446.021C445.96 84.8913 445.776 85.3951 445.469 85.8383C445.163 86.2814 444.752 86.6299 444.237 86.8837C443.725 87.1375 443.125 87.2644 442.435 87.2644ZM451.911 78.361V79.7246H447.144V78.361H451.911ZM448.423 76.2701H450.121V84.5258C450.121 84.8553 450.171 85.1034 450.269 85.2701C450.368 85.433 450.495 85.5447 450.65 85.6053C450.809 85.6621 450.981 85.6905 451.167 85.6905C451.303 85.6905 451.423 85.6811 451.525 85.6621C451.627 85.6432 451.707 85.628 451.763 85.6167L452.07 87.0201C451.972 87.058 451.832 87.0958 451.65 87.1337C451.468 87.1754 451.241 87.1981 450.968 87.2019C450.521 87.2095 450.104 87.1299 449.718 86.9633C449.332 86.7966 449.019 86.539 448.781 86.1905C448.542 85.842 448.423 85.4045 448.423 84.878V76.2701ZM453.79 87.0883V78.361H455.489V87.0883H453.79ZM454.648 77.0144C454.353 77.0144 454.099 76.9159 453.887 76.7189C453.679 76.5182 453.575 76.2795 453.575 76.003C453.575 75.7227 453.679 75.4841 453.887 75.2871C454.099 75.0864 454.353 74.986 454.648 74.986C454.944 74.986 455.196 75.0864 455.404 75.2871C455.616 75.4841 455.722 75.7227 455.722 76.003C455.722 76.2795 455.616 76.5182 455.404 76.7189C455.196 76.9159 454.944 77.0144 454.648 77.0144ZM465.241 78.361L462.076 87.0883H460.258L457.087 78.361H458.911L461.121 85.0769H461.212L463.417 78.361H465.241ZM466.837 87.0883V78.361H468.536V87.0883H466.837ZM467.695 77.0144C467.4 77.0144 467.146 76.9159 466.934 76.7189C466.726 76.5182 466.621 76.2795 466.621 76.003C466.621 75.7227 466.726 75.4841 466.934 75.2871C467.146 75.0864 467.4 74.986 467.695 74.986C467.991 74.986 468.243 75.0864 468.451 75.2871C468.663 75.4841 468.769 75.7227 468.769 76.003C468.769 76.2795 468.663 76.5182 468.451 76.7189C468.243 76.9159 467.991 77.0144 467.695 77.0144ZM474.896 78.361V79.7246H470.129V78.361H474.896ZM471.407 76.2701H473.106V84.5258C473.106 84.8553 473.155 85.1034 473.254 85.2701C473.352 85.433 473.479 85.5447 473.634 85.6053C473.793 85.6621 473.966 85.6905 474.151 85.6905C474.288 85.6905 474.407 85.6811 474.509 85.6621C474.612 85.6432 474.691 85.628 474.748 85.6167L475.055 87.0201C474.956 87.058 474.816 87.0958 474.634 87.1337C474.452 87.1754 474.225 87.1981 473.952 87.2019C473.505 87.2095 473.089 87.1299 472.702 86.9633C472.316 86.7966 472.004 86.539 471.765 86.1905C471.526 85.842 471.407 85.4045 471.407 84.878V76.2701ZM477.849 90.361C477.595 90.361 477.364 90.3402 477.156 90.2985C476.947 90.2606 476.792 90.2189 476.69 90.1735L477.099 88.7814C477.409 88.8648 477.686 88.9008 477.928 88.8894C478.171 88.878 478.385 88.7871 478.57 88.6167C478.76 88.4462 478.926 88.1678 479.07 87.7814L479.281 87.2019L476.087 78.361H477.906L480.116 85.1337H480.207L482.417 78.361H484.241L480.644 88.253C480.478 88.7076 480.265 89.092 480.008 89.4064C479.75 89.7246 479.443 89.9633 479.087 90.1223C478.731 90.2814 478.318 90.361 477.849 90.361ZM492.612 87.2814C492.058 87.2814 491.558 87.1792 491.112 86.9746C490.665 86.7663 490.31 86.4652 490.049 86.0712C489.791 85.6773 489.663 85.1943 489.663 84.6223C489.663 84.1299 489.757 83.7246 489.947 83.4064C490.136 83.0883 490.392 82.8364 490.714 82.6508C491.036 82.4652 491.396 82.325 491.793 82.2303C492.191 82.1356 492.596 82.0636 493.009 82.0144C493.532 81.9538 493.956 81.9045 494.282 81.8667C494.608 81.825 494.844 81.7587 494.992 81.6678C495.14 81.5769 495.214 81.4292 495.214 81.2246V81.1848C495.214 80.6886 495.074 80.3042 494.793 80.0314C494.517 79.7587 494.104 79.6223 493.555 79.6223C492.983 79.6223 492.532 79.7492 492.202 80.003C491.877 80.253 491.651 80.5314 491.526 80.8383L489.93 80.4746C490.119 79.9443 490.396 79.5163 490.759 79.1905C491.127 78.861 491.549 78.6223 492.026 78.4746C492.504 78.3231 493.005 78.2473 493.532 78.2473C493.88 78.2473 494.25 78.289 494.64 78.3723C495.034 78.4519 495.401 78.5996 495.742 78.8155C496.087 79.0314 496.369 79.3402 496.589 79.7417C496.808 80.1394 496.918 80.6564 496.918 81.2928V87.0883H495.259V85.8951H495.191C495.081 86.1148 494.916 86.3307 494.697 86.5428C494.477 86.7549 494.195 86.9311 493.85 87.0712C493.505 87.2114 493.093 87.2814 492.612 87.2814ZM492.981 85.9178C493.451 85.9178 493.852 85.825 494.185 85.6394C494.522 85.4538 494.778 85.2114 494.952 84.9121C495.13 84.6091 495.219 84.2852 495.219 83.9405V82.8155C495.159 82.8761 495.041 82.933 494.867 82.986C494.697 83.0352 494.502 83.0788 494.282 83.1167C494.062 83.1508 493.848 83.183 493.64 83.2133C493.432 83.2398 493.257 83.2625 493.117 83.2814C492.788 83.3231 492.487 83.3932 492.214 83.4917C491.945 83.5902 491.729 83.7322 491.566 83.9178C491.407 84.0996 491.327 84.342 491.327 84.6451C491.327 85.0655 491.483 85.3837 491.793 85.5996C492.104 85.8117 492.5 85.9178 492.981 85.9178ZM500.88 81.9064V87.0883H499.181V78.361H500.812V79.7814H500.92C501.121 79.3193 501.435 78.9481 501.863 78.6678C502.295 78.3875 502.838 78.2473 503.494 78.2473C504.088 78.2473 504.609 78.3723 505.056 78.6223C505.503 78.8686 505.85 79.236 506.096 79.7246C506.342 80.2133 506.465 80.8174 506.465 81.5371V87.0883H504.766V81.7417C504.766 81.1091 504.602 80.6148 504.272 80.2587C503.942 79.8989 503.49 79.7189 502.914 79.7189C502.52 79.7189 502.17 79.8042 501.863 79.9746C501.56 80.1451 501.319 80.3951 501.141 80.7246C500.967 81.0504 500.88 81.4443 500.88 81.9064ZM512.011 87.2587C511.306 87.2587 510.677 87.0788 510.124 86.7189C509.575 86.3553 509.143 85.8383 508.829 85.1678C508.518 84.4936 508.363 83.6848 508.363 82.7417C508.363 81.7985 508.52 80.9917 508.835 80.3212C509.153 79.6508 509.588 79.1375 510.141 78.7814C510.694 78.4254 511.321 78.2473 512.022 78.2473C512.564 78.2473 512.999 78.3383 513.329 78.5201C513.662 78.6981 513.92 78.9064 514.102 79.1451C514.287 79.3837 514.431 79.5939 514.533 79.7758H514.636V75.4519H516.335V87.0883H514.675V85.7303H514.533C514.431 85.9159 514.283 86.128 514.09 86.3667C513.901 86.6053 513.639 86.8136 513.306 86.9917C512.973 87.1697 512.541 87.2587 512.011 87.2587ZM512.386 85.8098C512.874 85.8098 513.287 85.6811 513.624 85.4235C513.965 85.1621 514.223 84.8004 514.397 84.3383C514.575 83.8761 514.664 83.3383 514.664 82.7246C514.664 82.1186 514.577 81.5883 514.403 81.1337C514.228 80.6792 513.973 80.325 513.636 80.0712C513.299 79.8174 512.882 79.6905 512.386 79.6905C511.874 79.6905 511.448 79.8231 511.107 80.0883C510.766 80.3534 510.509 80.7152 510.335 81.1735C510.164 81.6318 510.079 82.1489 510.079 82.7246C510.079 83.308 510.166 83.8326 510.34 84.2985C510.514 84.7644 510.772 85.1337 511.113 85.4064C511.458 85.6754 511.882 85.8098 512.386 85.8098ZM411.31 98.236H409.538C409.469 97.8572 409.343 97.5239 409.157 97.236C408.971 96.9481 408.744 96.7038 408.475 96.503C408.206 96.3023 407.905 96.1508 407.572 96.0485C407.242 95.9462 406.892 95.8951 406.521 95.8951C405.85 95.8951 405.25 96.0636 404.719 96.4008C404.193 96.7379 403.776 97.2322 403.469 97.8837C403.166 98.5352 403.015 99.3307 403.015 100.27C403.015 101.217 403.166 102.016 403.469 102.668C403.776 103.319 404.195 103.812 404.725 104.145C405.255 104.478 405.852 104.645 406.515 104.645C406.882 104.645 407.231 104.596 407.56 104.497C407.894 104.395 408.195 104.245 408.464 104.048C408.733 103.852 408.96 103.611 409.146 103.327C409.335 103.039 409.466 102.709 409.538 102.338L411.31 102.344C411.216 102.916 411.032 103.442 410.759 103.923C410.49 104.401 410.144 104.814 409.719 105.162C409.299 105.507 408.818 105.774 408.276 105.963C407.735 106.153 407.144 106.247 406.504 106.247C405.496 106.247 404.598 106.009 403.81 105.531C403.022 105.05 402.401 104.363 401.947 103.469C401.496 102.575 401.271 101.509 401.271 100.27C401.271 99.0277 401.498 97.9614 401.952 97.0712C402.407 96.1773 403.028 95.4917 403.816 95.0144C404.604 94.5333 405.5 94.2928 406.504 94.2928C407.121 94.2928 407.697 94.3818 408.231 94.5598C408.769 94.7341 409.252 94.9917 409.68 95.3326C410.108 95.6697 410.462 96.0826 410.742 96.5712C411.022 97.0561 411.212 97.611 411.31 98.236ZM416.951 106.264C416.133 106.264 415.419 106.077 414.809 105.702C414.199 105.327 413.726 104.802 413.388 104.128C413.051 103.454 412.883 102.666 412.883 101.764C412.883 100.859 413.051 100.067 413.388 99.3894C413.726 98.7114 414.199 98.1848 414.809 97.8098C415.419 97.4348 416.133 97.2473 416.951 97.2473C417.769 97.2473 418.483 97.4348 419.093 97.8098C419.703 98.1848 420.176 98.7114 420.513 99.3894C420.851 100.067 421.019 100.859 421.019 101.764C421.019 102.666 420.851 103.454 420.513 104.128C420.176 104.802 419.703 105.327 419.093 105.702C418.483 106.077 417.769 106.264 416.951 106.264ZM416.957 104.838C417.487 104.838 417.926 104.698 418.275 104.418C418.623 104.137 418.881 103.764 419.048 103.298C419.218 102.833 419.303 102.319 419.303 101.759C419.303 101.202 419.218 100.691 419.048 100.225C418.881 99.7549 418.623 99.378 418.275 99.0939C417.926 98.8098 417.487 98.6678 416.957 98.6678C416.423 98.6678 415.979 98.8098 415.627 99.0939C415.279 99.378 415.019 99.7549 414.849 100.225C414.682 100.691 414.599 101.202 414.599 101.759C414.599 102.319 414.682 102.833 414.849 103.298C415.019 103.764 415.279 104.137 415.627 104.418C415.979 104.698 416.423 104.838 416.957 104.838ZM424.614 100.906V106.088H422.915V97.361H424.546V98.7814H424.654C424.855 98.3193 425.169 97.9481 425.597 97.6678C426.029 97.3875 426.573 97.2473 427.228 97.2473C427.823 97.2473 428.344 97.3723 428.79 97.6223C429.237 97.8686 429.584 98.236 429.83 98.7246C430.076 99.2133 430.2 99.8174 430.2 100.537V106.088H428.501V100.742C428.501 100.109 428.336 99.6148 428.006 99.2587C427.677 98.8989 427.224 98.7189 426.648 98.7189C426.254 98.7189 425.904 98.8042 425.597 98.9746C425.294 99.1451 425.054 99.3951 424.876 99.7246C424.701 100.05 424.614 100.444 424.614 100.906ZM436.154 106.264C435.309 106.264 434.582 106.073 433.972 105.691C433.366 105.304 432.9 104.772 432.575 104.094C432.249 103.416 432.086 102.639 432.086 101.764C432.086 100.878 432.253 100.096 432.586 99.4178C432.919 98.736 433.389 98.2038 433.995 97.8212C434.601 97.4386 435.315 97.2473 436.137 97.2473C436.8 97.2473 437.391 97.3705 437.91 97.6167C438.429 97.8591 438.847 98.2 439.165 98.6394C439.487 99.0788 439.679 99.592 439.739 100.179H438.086C437.995 99.7701 437.787 99.4178 437.461 99.1223C437.139 98.8269 436.707 98.6792 436.165 98.6792C435.692 98.6792 435.277 98.8042 434.921 99.0542C434.569 99.3004 434.294 99.6527 434.097 100.111C433.9 100.566 433.802 101.103 433.802 101.725C433.802 102.361 433.898 102.91 434.092 103.372C434.285 103.834 434.558 104.192 434.91 104.446C435.266 104.7 435.684 104.827 436.165 104.827C436.487 104.827 436.779 104.768 437.04 104.651C437.306 104.53 437.527 104.357 437.705 104.134C437.887 103.91 438.014 103.641 438.086 103.327H439.739C439.679 103.891 439.495 104.395 439.188 104.838C438.881 105.281 438.47 105.63 437.955 105.884C437.444 106.137 436.844 106.264 436.154 106.264ZM445.317 106.264C444.458 106.264 443.717 106.081 443.096 105.713C442.478 105.342 442.001 104.821 441.664 104.151C441.331 103.477 441.164 102.687 441.164 101.781C441.164 100.887 441.331 100.1 441.664 99.4178C442.001 98.736 442.471 98.2038 443.073 97.8212C443.679 97.4386 444.388 97.2473 445.198 97.2473C445.691 97.2473 446.168 97.3288 446.63 97.4917C447.092 97.6545 447.507 97.9102 447.874 98.2587C448.242 98.6072 448.531 99.0598 448.744 99.6167C448.956 100.17 449.062 100.842 449.062 101.634V102.236H442.124V100.963H447.397C447.397 100.516 447.306 100.12 447.124 99.7758C446.942 99.4273 446.687 99.1527 446.357 98.9519C446.031 98.7511 445.649 98.6508 445.21 98.6508C444.732 98.6508 444.316 98.7682 443.96 99.003C443.607 99.2341 443.335 99.5371 443.141 99.9121C442.952 100.283 442.857 100.687 442.857 101.122V102.117C442.857 102.7 442.96 103.196 443.164 103.605C443.372 104.014 443.662 104.327 444.033 104.543C444.405 104.755 444.838 104.861 445.335 104.861C445.656 104.861 445.95 104.816 446.215 104.725C446.48 104.63 446.71 104.49 446.903 104.304C447.096 104.119 447.244 103.889 447.346 103.617L448.954 103.906C448.825 104.38 448.594 104.795 448.261 105.151C447.931 105.503 447.516 105.778 447.016 105.975C446.52 106.168 445.954 106.264 445.317 106.264ZM452.646 100.906V106.088H450.947V97.361H452.577V98.7814H452.685C452.886 98.3193 453.201 97.9481 453.629 97.6678C454.06 97.3875 454.604 97.2473 455.259 97.2473C455.854 97.2473 456.375 97.3723 456.822 97.6223C457.269 97.8686 457.615 98.236 457.862 98.7246C458.108 99.2133 458.231 99.8174 458.231 100.537V106.088H456.532V100.742C456.532 100.109 456.367 99.6148 456.038 99.2587C455.708 98.8989 455.255 98.7189 454.68 98.7189C454.286 98.7189 453.935 98.8042 453.629 98.9746C453.326 99.1451 453.085 99.3951 452.907 99.7246C452.733 100.05 452.646 100.444 452.646 100.906ZM464.583 97.361V98.7246H459.816V97.361H464.583ZM461.094 95.2701H462.793V103.526C462.793 103.855 462.843 104.103 462.941 104.27C463.04 104.433 463.166 104.545 463.322 104.605C463.481 104.662 463.653 104.691 463.839 104.691C463.975 104.691 464.094 104.681 464.197 104.662C464.299 104.643 464.379 104.628 464.435 104.617L464.742 106.02C464.644 106.058 464.504 106.096 464.322 106.134C464.14 106.175 463.913 106.198 463.64 106.202C463.193 106.209 462.776 106.13 462.39 105.963C462.004 105.797 461.691 105.539 461.452 105.191C461.214 104.842 461.094 104.405 461.094 103.878V95.2701ZM466.462 106.088V97.361H468.104V98.7473H468.195C468.354 98.2777 468.635 97.9083 469.036 97.6394C469.442 97.3667 469.9 97.2303 470.411 97.2303C470.517 97.2303 470.642 97.2341 470.786 97.2417C470.934 97.2492 471.049 97.2587 471.133 97.2701V98.8951C471.065 98.8761 470.943 98.8553 470.769 98.8326C470.595 98.8061 470.421 98.7928 470.246 98.7928C469.845 98.7928 469.487 98.878 469.173 99.0485C468.862 99.2152 468.616 99.4481 468.434 99.7473C468.252 100.043 468.161 100.38 468.161 100.759V106.088H466.462ZM475.065 106.281C474.512 106.281 474.012 106.179 473.565 105.975C473.118 105.766 472.763 105.465 472.502 105.071C472.245 104.677 472.116 104.194 472.116 103.622C472.116 103.13 472.21 102.725 472.4 102.406C472.589 102.088 472.845 101.836 473.167 101.651C473.489 101.465 473.849 101.325 474.246 101.23C474.644 101.136 475.049 101.064 475.462 101.014C475.985 100.954 476.409 100.905 476.735 100.867C477.061 100.825 477.298 100.759 477.445 100.668C477.593 100.577 477.667 100.429 477.667 100.225V100.185C477.667 99.6886 477.527 99.3042 477.246 99.0314C476.97 98.7587 476.557 98.6223 476.008 98.6223C475.436 98.6223 474.985 98.7492 474.656 99.003C474.33 99.253 474.104 99.5314 473.979 99.8383L472.383 99.4746C472.572 98.9443 472.849 98.5163 473.212 98.1905C473.58 97.861 474.002 97.6223 474.479 97.4746C474.957 97.3231 475.459 97.2473 475.985 97.2473C476.334 97.2473 476.703 97.289 477.093 97.3723C477.487 97.4519 477.854 97.5996 478.195 97.8155C478.54 98.0314 478.822 98.3402 479.042 98.7417C479.262 99.1394 479.371 99.6564 479.371 100.293V106.088H477.712V104.895H477.644C477.534 105.115 477.37 105.331 477.15 105.543C476.93 105.755 476.648 105.931 476.303 106.071C475.959 106.211 475.546 106.281 475.065 106.281ZM475.434 104.918C475.904 104.918 476.305 104.825 476.638 104.639C476.976 104.454 477.231 104.211 477.406 103.912C477.584 103.609 477.673 103.285 477.673 102.941V101.816C477.612 101.876 477.495 101.933 477.32 101.986C477.15 102.035 476.955 102.079 476.735 102.117C476.515 102.151 476.301 102.183 476.093 102.213C475.885 102.24 475.71 102.262 475.57 102.281C475.241 102.323 474.94 102.393 474.667 102.492C474.398 102.59 474.182 102.732 474.019 102.918C473.86 103.1 473.781 103.342 473.781 103.645C473.781 104.066 473.936 104.384 474.246 104.6C474.557 104.812 474.953 104.918 475.434 104.918ZM485.708 97.361V98.7246H480.941V97.361H485.708ZM482.219 95.2701H483.918V103.526C483.918 103.855 483.968 104.103 484.066 104.27C484.165 104.433 484.291 104.545 484.447 104.605C484.606 104.662 484.778 104.691 484.964 104.691C485.1 104.691 485.219 104.681 485.322 104.662C485.424 104.643 485.504 104.628 485.56 104.617L485.867 106.02C485.769 106.058 485.629 106.096 485.447 106.134C485.265 106.175 485.038 106.198 484.765 106.202C484.318 106.209 483.901 106.13 483.515 105.963C483.129 105.797 482.816 105.539 482.577 105.191C482.339 104.842 482.219 104.405 482.219 103.878V95.2701ZM487.587 106.088V97.361H489.286V106.088H487.587ZM488.445 96.0144C488.15 96.0144 487.896 95.9159 487.684 95.7189C487.476 95.5182 487.371 95.2795 487.371 95.003C487.371 94.7227 487.476 94.4841 487.684 94.2871C487.896 94.0864 488.15 93.986 488.445 93.986C488.741 93.986 488.993 94.0864 489.201 94.2871C489.413 94.4841 489.519 94.7227 489.519 95.003C489.519 95.2795 489.413 95.5182 489.201 95.7189C488.993 95.9159 488.741 96.0144 488.445 96.0144ZM495.248 106.264C494.43 106.264 493.716 106.077 493.106 105.702C492.496 105.327 492.022 104.802 491.685 104.128C491.348 103.454 491.18 102.666 491.18 101.764C491.18 100.859 491.348 100.067 491.685 99.3894C492.022 98.7114 492.496 98.1848 493.106 97.8098C493.716 97.4348 494.43 97.2473 495.248 97.2473C496.066 97.2473 496.78 97.4348 497.39 97.8098C498 98.1848 498.473 98.7114 498.81 99.3894C499.147 100.067 499.316 100.859 499.316 101.764C499.316 102.666 499.147 103.454 498.81 104.128C498.473 104.802 498 105.327 497.39 105.702C496.78 106.077 496.066 106.264 495.248 106.264ZM495.254 104.838C495.784 104.838 496.223 104.698 496.572 104.418C496.92 104.137 497.178 103.764 497.344 103.298C497.515 102.833 497.6 102.319 497.6 101.759C497.6 101.202 497.515 100.691 497.344 100.225C497.178 99.7549 496.92 99.378 496.572 99.0939C496.223 98.8098 495.784 98.6678 495.254 98.6678C494.719 98.6678 494.276 98.8098 493.924 99.0939C493.576 99.378 493.316 99.7549 493.146 100.225C492.979 100.691 492.896 101.202 492.896 101.759C492.896 102.319 492.979 102.833 493.146 103.298C493.316 103.764 493.576 104.137 493.924 104.418C494.276 104.698 494.719 104.838 495.254 104.838ZM502.911 100.906V106.088H501.212V97.361H502.843V98.7814H502.951C503.152 98.3193 503.466 97.9481 503.894 97.6678C504.326 97.3875 504.87 97.2473 505.525 97.2473C506.12 97.2473 506.64 97.3723 507.087 97.6223C507.534 97.8686 507.881 98.236 508.127 98.7246C508.373 99.2133 508.496 99.8174 508.496 100.537V106.088H506.798V100.742C506.798 100.109 506.633 99.6148 506.303 99.2587C505.974 98.8989 505.521 98.7189 504.945 98.7189C504.551 98.7189 504.201 98.8042 503.894 98.9746C503.591 99.1451 503.351 99.3951 503.173 99.7246C502.998 100.05 502.911 100.444 502.911 100.906Z" fill="#134A47"/>
<circle cx="561" cy="88.0883" r="10" fill="#3DF7FF" stroke="white" stroke-width="4"/>
<defs>
<linearGradient id="paint0_linear_0_1394" x1="43.4286" y1="223.372" x2="624.715" y2="250.024" gradientUnits="userSpaceOnUse">
<stop stop-color="#F175B9"/>
<stop offset="0.305" stop-color="#8089FF"/>
<stop offset="0.81" stop-color="#3DF7FF"/>
</linearGradient>
<linearGradient id="paint1_linear_0_1394" x1="561" y1="331.5" x2="79" y2="251.5" gradientUnits="userSpaceOnUse">
<stop offset="0.513085" stop-color="#5A91FF"/>
<stop offset="0.799452" stop-color="#5A91FF" stop-opacity="0.58"/>
<stop offset="1" stop-color="#5A91FF" stop-opacity="0"/>
</linearGradient>
<linearGradient id="paint2_linear_0_1394" x1="560.5" y1="119.923" x2="71.5783" y2="243.871" gradientUnits="userSpaceOnUse">
<stop offset="0.0812449" stop-color="#3DF7FF" stop-opacity="0"/>
<stop offset="0.2" stop-color="#3DF7FF" stop-opacity="0.512923"/>
<stop offset="0.351763" stop-color="#3DF7FF"/>
<stop offset="0.661149" stop-color="#8089FF"/>
<stop offset="1" stop-color="#F175B9"/>
</linearGradient>
<linearGradient id="paint3_linear_0_1394" x1="92.0429" y1="96.0885" x2="571.952" y2="231.345" gradientUnits="userSpaceOnUse">
<stop stop-color="#134A47"/>
<stop offset="0.299667" stop-color="#5A91FF"/>
<stop offset="1" stop-color="#5A91FF"/>
</linearGradient>
<linearGradient id="paint4_linear_0_1394" x1="119.83" y1="340.144" x2="573.505" y2="305.226" gradientUnits="userSpaceOnUse">
<stop stop-color="#F175B9"/>
<stop offset="0.305" stop-color="#8089FF"/>
<stop offset="0.81" stop-color="#3DF7FF"/>
</linearGradient>
</defs>
</svg>
