<svg width="52" height="53" viewBox="0 0 52 53" fill="none" xmlns="http://www.w3.org/2000/svg">
<path fill-rule="evenodd" clip-rule="evenodd" d="M25.1011 1.85308C25.4991 1.34255 26.27 1.33902 26.6727 1.84589L27.279 2.6091C27.6379 3.06078 28.3035 3.11598 28.7318 2.72959L29.4556 2.07668C29.9363 1.64314 30.6959 1.77349 31.0045 2.34246L31.4695 3.19979C31.7445 3.70682 32.3902 3.8767 32.8791 3.57062L33.7052 3.05346C34.2538 2.71002 34.9791 2.97027 35.1843 3.58413L35.4933 4.5088C35.6761 5.05586 36.2825 5.33526 36.8171 5.11873L37.7206 4.75278C38.3205 4.50979 38.9898 4.8921 39.0851 5.53231L39.2288 6.49694C39.3138 7.06758 39.8627 7.44811 40.4269 7.32752L41.3795 7.12391C42.0126 6.98859 42.6054 7.48136 42.5881 8.12853L42.5621 9.10326C42.5467 9.67994 43.0211 10.15 43.5976 10.1293L44.5719 10.0944C45.2189 10.0712 45.7171 10.6595 45.5876 11.2938L45.3927 12.2484C45.2772 12.8137 45.6628 13.3591 46.2342 13.4389L47.1994 13.5736C47.8405 13.663 48.2289 14.3287 47.9915 14.9308L47.6338 15.8377C47.4222 16.3742 47.7071 16.978 48.2558 17.1559L49.1833 17.4565C49.7991 17.656 50.0659 18.379 49.7274 18.9307L49.2173 19.7621C48.9156 20.2538 49.0914 20.8981 49.601 21.1684L50.4623 21.6253C51.0342 21.9287 51.1714 22.6873 50.7422 23.1718L50.0958 23.9014C49.7132 24.3332 49.7745 24.9984 50.2295 25.3531L50.9979 25.9523C51.5085 26.3504 51.512 27.1212 51.0051 27.5239L50.2419 28.1302C49.7901 28.4891 49.7349 29.1548 50.1214 29.5831L50.7746 30.3071C51.2083 30.7877 51.0779 31.5475 50.5088 31.8561L49.6518 32.3207C49.1446 32.5957 48.9746 33.2417 49.2809 33.7306L49.7979 34.5561C50.1415 35.1046 49.8813 35.8302 49.2674 36.0353L48.3422 36.3445C47.7951 36.5273 47.5157 37.134 47.7324 37.6686L48.0985 38.5718C48.3417 39.1717 47.9594 39.8411 47.3191 39.9365L46.3548 40.0802C45.7843 40.1652 45.4038 40.7138 45.5241 41.2779L45.7275 42.2313C45.8625 42.8643 45.3699 43.4568 44.7229 43.4396L43.7487 43.4137C43.1721 43.3983 42.7021 43.8726 42.7227 44.4491L42.7576 45.4237C42.7807 46.0706 42.1923 46.5688 41.558 46.4392L40.6033 46.2441C40.0381 46.1286 39.4926 46.5141 39.4128 47.0855L39.2779 48.0508C39.1883 48.6919 38.5225 49.0802 37.9204 48.8426L37.0136 48.4848C36.477 48.2731 35.8731 48.5579 35.6952 49.1067L35.3945 50.0346C35.1949 50.6504 34.4718 50.9171 33.9201 50.5785L33.0897 50.0689C32.598 49.7671 31.9537 49.9428 31.6833 50.4523L31.2261 51.3138C30.9226 51.8857 30.164 52.0228 29.6795 51.5935L28.9505 50.9474C28.5187 50.5647 27.8535 50.6259 27.4987 51.0809L26.8996 51.8492C26.5015 52.3597 25.7307 52.3632 25.328 51.8563L24.7217 51.0932C24.3628 50.6415 23.6972 50.5863 23.2689 50.9728L22.5449 51.626C22.0642 52.0597 21.3044 51.9293 20.9959 51.3602L20.5312 50.5031C20.2563 49.9959 19.6103 49.826 19.1213 50.1322L18.2953 50.6495C17.7466 50.9931 17.0209 50.7327 16.816 50.1185L16.5076 49.1942C16.3249 48.6468 15.7181 48.3672 15.1833 48.584L14.2798 48.9502C13.6798 49.1934 13.0103 48.811 12.915 48.1706L12.7716 47.2065C12.6868 46.6359 12.138 46.2552 11.5738 46.3756L10.6203 46.5791C9.98728 46.7142 9.39464 46.2213 9.412 45.5743L9.43814 44.6003C9.45361 44.0236 8.97927 43.5534 8.40275 43.5741L7.4284 43.6089C6.78141 43.6321 6.2833 43.0437 6.41288 42.4094L6.60795 41.4546C6.72342 40.8894 6.338 40.3439 5.76666 40.264L4.80016 40.1289C4.15913 40.0393 3.77084 39.3735 4.00845 38.7715L4.36618 37.865C4.57795 37.3284 4.29302 36.7244 3.74423 36.5466L2.81662 36.246C2.2008 36.0465 1.93396 35.3234 2.27258 34.7716L2.78234 33.9411C3.08406 33.4495 2.90848 32.8053 2.39906 32.5348L1.53758 32.0773C0.965987 31.7738 0.828882 31.0155 1.25799 30.5311L1.90419 29.8015C2.28663 29.3698 2.2255 28.7049 1.77073 28.3501L1.00168 27.7501C0.491298 27.3519 0.487985 26.5811 0.994925 26.1785L1.75777 25.5727C2.20957 25.214 2.26489 24.5484 1.87853 24.1199L1.22529 23.3955C0.791767 22.9148 0.922309 22.1551 1.49144 21.8466L2.34826 21.3823C2.85548 21.1074 3.02552 20.4615 2.71939 19.9725L2.20221 19.1463C1.85872 18.5976 2.11916 17.8721 2.7332 17.6672L3.65729 17.3587C4.20452 17.176 4.48409 16.5695 4.26753 16.0348L3.90141 15.1308C3.6584 14.5308 4.04085 13.8615 4.68116 13.7663L5.6456 13.6228C6.21633 13.5379 6.59699 12.989 6.47641 12.4247L6.27276 11.4718C6.13746 10.8386 6.6303 10.2458 7.27749 10.2631L8.25202 10.2893C8.82874 10.3048 9.29888 9.83034 9.27819 9.25378L9.24324 8.27986C9.22003 7.63287 9.80835 7.13469 10.4427 7.26422L11.3972 7.45913C11.9625 7.57456 12.5079 7.18896 12.5877 6.61751L12.7224 5.65169C12.8119 5.01051 13.4777 4.62203 14.0799 4.85967L14.9868 5.21755C15.5234 5.42934 16.1275 5.14429 16.3052 4.59538L16.6055 3.66795C16.8049 3.05204 17.5281 2.78505 18.0799 3.12364L18.9107 3.63343C19.4023 3.93513 20.0466 3.75941 20.317 3.24985L20.7738 2.389C21.0772 1.81727 21.8355 1.68 22.3201 2.10909L23.0502 2.75558C23.482 3.13802 24.147 3.07674 24.5017 2.6218L25.1011 1.85308Z" fill="url(#paint0_linear_0_634)"/>
<path fill-rule="evenodd" clip-rule="evenodd" d="M26.0006 15.0589C32.4955 15.0589 37.7929 20.3563 37.7929 26.8513C37.7929 33.3462 32.4955 38.6437 26.0006 38.6437C19.5057 38.6437 14.2083 33.3462 14.2083 26.8513C14.2083 20.3563 19.5057 15.0589 26.0006 15.0589ZM41.1129 25.8769C41.6503 25.8769 42.0883 26.3149 42.0883 26.8513C42.0883 27.3876 41.6503 27.8267 41.1129 27.8267C40.5756 27.8267 40.1385 27.3886 40.1385 26.8513C40.1385 26.3139 40.5756 25.8769 41.1129 25.8769ZM10.8882 25.8769C11.4256 25.8769 11.8636 26.3149 11.8636 26.8513C11.8636 27.3876 11.4256 27.8267 10.8882 27.8267C10.3508 27.8267 9.91382 27.3886 9.91382 26.8513C9.91382 26.3139 10.3519 25.8769 10.8882 25.8769ZM26.0006 7.95483C36.4087 7.95483 44.8966 16.4438 44.8966 26.8509C44.8966 37.2581 36.4087 45.747 26.0006 45.747C15.5925 45.747 7.10425 37.2594 7.10425 26.8513C7.10425 16.4431 15.5932 7.95483 26.0006 7.95483Z" fill="#134A47"/>
<path d="M25.7251 11.946L24.7629 9.00244L25.5969 9.01707L26.1257 10.8329L26.7155 9.03645L27.5548 9.05108L26.4838 11.9586L26.4471 14.0655L25.6884 14.0526L25.7251 11.9457V11.946Z" fill="white"/>
<path d="M28.5 14.3208L29.8039 9.46069L30.9018 9.75556C31.1909 9.83277 31.4306 9.97867 31.6225 10.1936C31.7878 10.3756 31.8762 10.6143 31.8881 10.9092C31.8962 11.0663 31.8731 11.2445 31.819 11.4428C31.7327 11.769 31.5745 12.0067 31.3497 12.1574C31.2558 12.2199 31.1524 12.2611 31.0433 12.2778C31.1892 12.3835 31.2949 12.543 31.3589 12.7573C31.4004 12.9015 31.4133 13.0777 31.3966 13.2834C31.3885 13.3892 31.3674 13.5038 31.3334 13.627C31.2518 13.9354 31.1229 14.18 30.9487 14.3636C30.8127 14.5088 30.6491 14.6078 30.4573 14.6649C30.2406 14.7282 30.0403 14.7347 29.8577 14.686L28.5003 14.3214L28.5 14.3208ZM29.4856 13.8092L29.7914 13.8909C30.0403 13.9579 30.2451 13.8762 30.4103 13.6457C30.4675 13.5668 30.5114 13.4702 30.5416 13.3566C30.6144 13.0848 30.6161 12.8736 30.5454 12.723C30.4828 12.5835 30.3617 12.4896 30.1808 12.441L29.875 12.3594L29.486 13.8096L29.4856 13.8092ZM30.0631 11.6574L30.3689 11.739C30.5957 11.8006 30.7783 11.7299 30.9161 11.5289C30.9664 11.4534 31.0079 11.3551 31.0399 11.234C31.095 11.033 31.0858 10.8667 31.0161 10.7371C30.9511 10.6177 30.8464 10.5378 30.7022 10.4994L30.3954 10.4167L30.0628 11.6574H30.0631Z" fill="white"/>
<path d="M22.0432 14.65L20.9089 9.74573L23.0118 9.26074L23.1835 10.0028L21.8187 10.3178L22.1282 11.6557L23.1257 11.4262L23.2975 12.1683L22.3003 12.3979L22.6088 13.7362L23.9732 13.4212L24.146 14.1633L22.0428 14.65H22.0432Z" fill="white"/>
<path d="M32.8765 14.722L32.1078 15.6046L31.4375 15.1859L34.828 11.3748L35.7132 11.9274L33.7624 16.6409L33.0856 16.2165L33.5475 15.1421L32.8761 14.7224L32.8765 14.722ZM34.6572 12.6253L33.3679 14.1592L33.8444 14.4568L34.6572 12.6253Z" fill="white"/>
<path d="M17.6256 11.1081L20.0135 13.7071L18.5303 10.6663L19.2125 10.334L21.4194 14.8591L20.6865 15.2162L18.3344 12.7769L19.7478 15.6746L19.0663 16.0072L16.8594 11.4812L17.6256 11.1084V11.1081Z" fill="white"/>
<path d="M34.9989 17.8999C34.7656 17.6584 34.6537 17.3727 34.6591 17.0422C34.6649 16.7106 34.787 16.4296 35.0258 16.2001L37.0014 14.2917C37.2418 14.0595 37.5286 13.9465 37.8608 13.9537C38.1934 13.9601 38.4744 14.0833 38.705 14.323C38.9376 14.5635 39.0495 14.8485 39.0423 15.1808C39.0338 15.5114 38.9117 15.7926 38.673 16.0222L38.2598 16.4218L37.7125 15.8552L38.1366 15.4457C38.223 15.3621 38.2683 15.26 38.271 15.1379C38.2727 15.0175 38.2326 14.9128 38.1486 14.8267C38.0649 14.7393 37.9622 14.6961 37.8428 14.6944C37.7217 14.6944 37.6187 14.7349 37.5323 14.8186L35.5502 16.7316C35.4638 16.8153 35.4189 16.917 35.4179 17.0364C35.4152 17.1558 35.4563 17.2585 35.54 17.3449C35.6236 17.4312 35.7257 17.4772 35.8457 17.4789C35.9651 17.4826 36.0682 17.4421 36.1552 17.3585L36.6538 16.8762L37.201 17.4418L36.6956 17.9305C36.4549 18.1621 36.1685 18.275 35.8379 18.2669C35.5073 18.2594 35.2264 18.1363 34.9985 17.9002L34.9989 17.8999Z" fill="white"/>
<path d="M14.3378 13.3158C14.5939 13.1008 14.8871 13.008 15.2187 13.0376C15.5482 13.0689 15.821 13.2104 16.0342 13.4637L17.7987 15.5669C18.0146 15.8241 18.1072 16.1169 18.0759 16.4478C18.0463 16.7784 17.9048 17.0511 17.6507 17.2644C17.3946 17.4793 17.1008 17.5712 16.7719 17.5399C16.4424 17.5096 16.1713 17.3671 15.9564 17.1127L14.1929 15.0095C13.9777 14.7534 13.8845 14.4596 13.9144 14.1286C13.9447 13.7981 14.0851 13.528 14.3378 13.3158ZM15.4176 13.9596C15.3408 13.8678 15.2425 13.8164 15.1238 13.8052C15.0061 13.796 14.8997 13.829 14.8068 13.9062C14.715 13.9834 14.6636 14.0827 14.6517 14.2021C14.6408 14.3215 14.6738 14.4279 14.7507 14.5198L16.5206 16.6294C16.5978 16.7212 16.6961 16.7726 16.8155 16.7818C16.9365 16.791 17.0423 16.757 17.1341 16.6797C17.227 16.6025 17.2783 16.5032 17.2875 16.3859C17.2987 16.2665 17.2654 16.1618 17.1882 16.0699L15.4176 13.9593V13.9596Z" fill="white"/>
<path d="M38.0977 19.0326L36.7145 19.8309L36.3359 19.1741L40.6957 16.656L41.0749 17.3138L39.521 18.211L41.5388 18.1164L41.9439 18.818L39.6461 18.9449L37.6732 21.4906L37.2267 20.7172L38.599 19.0051L38.0973 19.0326H38.0977Z" fill="white"/>
<path d="M14.6706 20.8066L14.2574 21.4423L10.0364 18.7L10.6295 17.7879L14.0458 19.1646L11.3845 16.6261L11.9545 15.7483L16.1749 18.4905L15.7616 19.1259L13.1092 17.4029L15.4035 19.6785L15.0709 20.1894L12.0246 19.0874L14.6706 20.8066Z" fill="white"/>
<path d="M10.5534 36.1284C10.3854 35.8382 10.3459 35.5332 10.4323 35.2118C10.5187 34.8921 10.7051 34.6479 10.9908 34.4843L13.3677 33.1103C13.6578 32.9433 13.9629 32.9028 14.2843 32.9909C14.604 33.0773 14.8482 33.2647 15.0145 33.5521C15.1815 33.8415 15.2213 34.1462 15.1328 34.4659C15.0465 34.7856 14.8591 35.0281 14.571 35.1941L14.0741 35.4815L13.6803 34.7989L14.1918 34.504C14.2955 34.4435 14.3635 34.3554 14.3948 34.2377C14.4271 34.1211 14.4125 34.0109 14.352 33.9054C14.2924 33.8017 14.204 33.7347 14.0863 33.7051C13.9707 33.6738 13.8605 33.6885 13.7558 33.7493L11.3717 35.1271C11.2669 35.1866 11.1992 35.274 11.1679 35.3896C11.1387 35.5056 11.1533 35.6138 11.2128 35.7185C11.2734 35.8229 11.3608 35.891 11.4764 35.9243C11.592 35.9556 11.7022 35.9416 11.8063 35.8818L12.6623 35.3879L12.4518 35.0223L13.112 34.6404L13.7163 35.6872L12.1937 36.5671C11.9046 36.7341 11.5995 36.7728 11.2798 36.6865C10.9605 36.5984 10.718 36.4127 10.5544 36.128L10.5534 36.1284Z" fill="white"/>
<path d="M40.8563 36.92L36.5417 34.3281L37.6539 32.4766L38.3069 32.8697L37.5859 34.0703L38.7623 34.7774L39.2894 33.9002L39.9434 34.2934L39.4163 35.1695L40.5937 35.8766L41.3157 34.676L41.9687 35.0681L40.8563 36.9197V36.92Z" fill="white"/>
<path d="M13.4308 39.6871C13.1938 39.45 13.0765 39.1671 13.0754 38.8375C13.0765 38.5086 13.1931 38.2267 13.4271 37.9927L16.1785 35.2419L16.7036 35.7674L13.9577 38.5114C13.8733 38.5967 13.8308 38.6987 13.8325 38.8198C13.8325 38.9392 13.8757 39.0423 13.9611 39.1266C14.0454 39.213 14.1485 39.2552 14.2678 39.2552C14.3872 39.2552 14.4882 39.2126 14.5736 39.1276L17.3189 36.3823L17.8773 36.9408L15.1266 39.6925C14.8889 39.9313 14.6039 40.0486 14.276 40.0442C13.9464 40.0405 13.6645 39.9211 13.4302 39.6871H13.4308Z" fill="white"/>
<path d="M38.0935 40.1225L34.4714 36.6252L35.9713 35.0713L36.5205 35.6005L35.5468 36.6089L36.5352 37.5642L37.246 36.8276L37.7952 37.3564L37.0834 38.0931L38.0707 39.0464L39.0444 38.038L39.5937 38.5689L38.0938 40.1228L38.0935 40.1225Z" fill="white"/>
<path d="M17.4363 41.2828L16.6677 42.1664L15.9973 41.7477L19.3881 37.9365L20.2734 38.4892L18.3226 43.2006L17.6458 42.7782L18.1076 41.7038L17.4363 41.2831V41.2828ZM19.217 39.1871L17.9274 40.7199L18.4039 41.0185L19.2167 39.1871H19.217Z" fill="white"/>
<path d="M32.6807 38.7744L32.0121 39.2243L31.5859 38.5924L33.5493 37.2681L33.9755 37.9007L33.3096 38.3499L35.6947 41.8867L35.0658 42.3101L32.6807 38.7744Z" fill="white"/>
<path d="M22.8195 39.3422C23.2293 39.4442 23.5021 39.6327 23.6378 39.9071C23.7572 40.1459 23.7728 40.4424 23.6847 40.7951L23.5082 41.5053C23.4218 41.8498 23.2181 42.1096 22.8957 42.2821L22.9093 44.5488L22.1131 44.3502L22.125 42.4004C22.1046 42.396 22.0829 42.3902 22.0601 42.3841L21.635 42.2783L21.1758 44.1159L20.4402 43.9322L21.6581 39.0518L22.8199 39.3419L22.8195 39.3422ZM22.9648 40.6281C23.0355 40.3452 22.9318 40.169 22.6505 40.0993L22.206 39.9881L21.8166 41.5505L22.2601 41.6607C22.3777 41.6899 22.4869 41.6736 22.59 41.611C22.693 41.5488 22.7569 41.4576 22.7865 41.341L22.9648 40.6281Z" fill="white"/>
<path d="M29.3788 39.2914L31.2789 42.2652L30.3467 39.0132L31.0759 38.8047L32.4628 43.642L31.6785 43.8668L29.7886 41.0565L30.6759 44.1545L29.9464 44.363L28.5598 39.5257L29.3791 39.2914H29.3788Z" fill="white"/>
<path d="M25.9461 43.6116L25.823 44.7754L25.0339 44.8166L25.6226 39.7487L26.664 39.6936L27.7717 44.673L26.9756 44.7145L26.7368 43.5691L25.9461 43.6112V43.6116ZM26.2005 40.8731L26.025 42.8678L26.5862 42.8385L26.2005 40.8731Z" fill="white"/>
<path d="M25.9992 6.30972H25.9975C20.341 6.30972 15.2062 8.61664 11.4858 12.338C7.76442 16.0584 5.45718 21.1943 5.45718 26.8506V26.8516C5.45718 32.5082 7.76408 37.6427 11.4858 41.3641C15.2065 45.0848 20.342 47.3917 25.9986 47.3917H25.9996C31.6558 47.3917 36.7906 45.0848 40.512 41.3641C44.2327 37.6427 46.5396 32.5078 46.5406 26.8506V26.8495C46.5396 21.193 44.2334 16.0581 40.512 12.3377C36.791 8.6163 31.6558 6.30938 25.9996 6.30938M25.9986 5.81079H25.9996C31.7939 5.81079 37.0535 8.17382 40.8647 11.985C44.6759 15.7965 47.0382 21.0562 47.0382 26.8495V26.8506C47.0382 32.6449 44.6752 37.9053 40.8637 41.7168C37.0532 45.5283 31.7935 47.8903 25.9992 47.8903H25.9982C20.2039 47.8903 14.9436 45.5273 11.1328 41.7158C7.32161 37.9053 4.95825 32.6456 4.95825 26.8512V26.8502C4.95825 21.0559 7.32127 15.7955 11.1328 11.985C14.9443 8.17382 20.2039 5.81079 25.9972 5.81079H25.9982H25.9986Z" fill="#134A47"/>
<path d="M24.4465 28.0212L20.8842 24.3584L18.6875 26.6171L24.4465 32.5386L33.3125 23.4223L31.1158 21.1636L24.4465 28.0212Z" fill="#FFF8E8"/>
<defs>
<linearGradient id="paint0_linear_0_634" x1="3.52857" y1="27.2391" x2="50.8104" y2="28.7296" gradientUnits="userSpaceOnUse">
<stop stop-color="#F276D3"/>
<stop offset="0.3" stop-color="#5A91FF"/>
<stop offset="0.835" stop-color="#3EF8FF"/>
</linearGradient>
</defs>
</svg>
