<svg width="54" height="55" viewBox="0 0 54 55" fill="none" xmlns="http://www.w3.org/2000/svg">
<path d="M27 43.1305C26.8596 43.1305 26.7084 43.0873 26.5788 43.0117C19.7532 38.8969 13.122 38.8969 6.28559 43.0117C6.03719 43.1629 5.72399 43.1629 5.46479 43.0225C5.22719 42.8821 5.06519 42.6121 5.06519 42.3205V9.63965C5.06519 9.33726 5.23799 9.05645 5.49719 8.91605C12.7548 5.13605 20.1096 5.13605 27.3672 8.91605C27.6372 9.05645 27.7992 9.33726 27.7992 9.63965V42.3205C27.7992 42.6121 27.6372 42.8821 27.3888 43.0225C27.27 43.0981 27.1404 43.1305 27 43.1305ZM16.4376 38.3353C19.6992 38.3353 22.95 39.1993 26.19 40.9273V10.1365C19.7208 6.90725 13.1652 6.90725 6.68519 10.1365V40.9381C9.92519 39.1993 13.1868 38.3353 16.4376 38.3353Z" fill="#F175B9"/>
<path fill-rule="evenodd" clip-rule="evenodd" d="M26.8208 43.1085C26.8809 43.1228 26.9414 43.1304 27.0001 43.1304C27.1405 43.1304 27.2917 43.098 27.4105 43.0116C30.3929 41.2137 33.3403 40.2013 36.2832 39.9746C40.0747 39.6831 43.8588 40.6955 47.7011 43.0118C47.8307 43.0874 47.9819 43.1306 48.1223 43.1306C48.224 43.1306 48.3201 43.1136 48.4064 43.0754C48.4467 43.0608 48.4862 43.0432 48.5245 43.0224C48.7729 42.882 48.9349 42.612 48.9349 42.3204V12.0698H49.9378C50.683 12.0698 51.2986 12.6746 51.2986 13.4306V45.0854C51.2986 45.6794 50.9854 46.1978 50.4778 46.4894C49.9594 46.781 49.3546 46.7702 48.847 46.4678L46.4818 45.0422C40.3906 41.3702 34.7314 41.3702 28.6402 45.0422L26.9986 46.0358L25.357 45.0422C19.2658 41.3702 13.6066 41.3702 7.51541 45.0422L5.15021 46.4678C4.64261 46.7702 4.03781 46.781 3.51941 46.4894C3.00101 46.1978 2.69861 45.6794 2.69861 45.0854V13.4306C2.69861 12.6854 3.30341 12.0698 4.05941 12.0698H5.06533V42.3204C5.06533 42.612 5.22733 42.882 5.46493 43.0224C5.72413 43.1628 6.03733 43.1628 6.28573 43.0116C13.0882 38.9172 19.6876 38.8969 26.4774 42.9507C26.5114 42.9774 26.548 43.0015 26.5871 43.0226C26.6615 43.0629 26.7403 43.0916 26.8208 43.1085ZM48.9349 10.4498V9.6288C48.9349 9.3264 48.7729 9.0456 48.5029 8.9052C41.3641 5.19 34.1389 5.1252 27.0001 8.7108C19.8613 5.1252 12.6253 5.19 5.49733 8.9052C5.23813 9.0456 5.06533 9.3264 5.06533 9.6288V10.4498H4.05941C2.41781 10.4498 1.07861 11.789 1.07861 13.4306V45.0854C1.07861 46.2734 1.69421 47.321 2.73101 47.9042C3.75701 48.4874 4.97741 48.4766 5.99261 47.861L8.35781 46.4354C13.9198 43.0766 18.9526 43.0766 24.5254 46.4354L26.5882 47.6774C26.8366 47.8286 27.1606 47.8286 27.4198 47.6774L29.4826 46.4354C35.0446 43.0766 40.0774 43.0766 45.6502 46.4354L48.0154 47.861C48.5338 48.1742 49.1062 48.3254 49.6786 48.3254C50.2294 48.3254 50.7802 48.185 51.277 47.9042C52.303 47.321 52.9186 46.2626 52.9186 45.0854V13.4306C52.9186 11.789 51.5794 10.4498 49.9378 10.4498H48.9349ZM26.1767 10.1204C19.7045 6.9055 13.1537 6.90725 6.68533 10.1256V40.9272C9.92533 39.1992 13.1869 38.3352 16.4377 38.3352C19.6932 38.3352 22.9395 39.1979 26.1767 40.9232V10.1204ZM47.3123 40.9258C40.8325 37.4743 34.2832 37.4664 27.8075 40.9307V10.1366C30.9753 8.55532 34.1639 7.74836 37.3541 7.71573C37.2928 7.82936 37.2579 7.95874 37.2579 8.0953V22.7509C37.2579 23.0641 37.4415 23.3557 37.7331 23.4853C38.0247 23.6149 38.3703 23.5717 38.6079 23.3557L41.7183 20.5909L44.8287 23.3557C44.9799 23.4853 45.1743 23.5609 45.3687 23.5609C45.4767 23.5609 45.5955 23.5393 45.7035 23.4853C45.9951 23.3557 46.1787 23.0641 46.1787 22.7509V9.60498C46.5568 9.77122 46.9347 9.94843 47.3123 10.1366V40.9258ZM38.801 7.75402C40.7221 7.87534 42.6427 8.27741 44.5587 8.96023V20.9581L42.2583 18.9169C41.9451 18.6469 41.4807 18.6469 41.1783 18.9169L38.8779 20.9581V8.0953C38.8779 7.97385 38.8503 7.85808 38.801 7.75402ZM12.2793 27.4919C12.2793 28.8311 13.3701 29.9219 14.7093 29.9219C16.0485 29.9219 17.1393 28.8311 17.1717 27.4919V25.2455C17.7981 25.2131 18.4245 25.1051 19.0401 24.9107C20.8545 24.3275 22.3233 23.0855 23.1981 21.4007C24.0621 19.7159 24.2241 17.7935 23.6517 15.9899C23.0685 14.1755 21.8265 12.7067 20.1417 11.8319C18.4569 10.9679 16.5345 10.8059 14.7201 11.3783C12.9057 11.9615 11.4369 13.2035 10.5621 14.8883C10.2597 15.4715 10.2057 16.1303 10.4001 16.7459C10.5945 17.3615 11.0265 17.8691 11.5989 18.1607C12.1713 18.4631 12.8301 18.5171 13.4457 18.3227C14.0613 18.1283 14.5689 17.7071 14.8713 17.1239C15.1413 16.5839 15.6057 16.1951 16.1781 16.0115C16.7613 15.8279 17.3661 15.8711 17.8953 16.1519C18.4245 16.4219 18.8133 16.8863 18.9969 17.4587C19.1805 18.0203 19.1265 18.6359 18.8565 19.1651C18.5757 19.7051 18.1113 20.0939 17.5389 20.2775C16.9665 20.4611 16.3617 20.4071 15.8325 20.1371C15.0765 19.7483 14.1693 19.7807 13.4457 20.2235C12.7221 20.6663 12.2793 21.4547 12.2793 22.2971V27.4919ZM14.2881 21.6059C14.4177 21.5303 14.5581 21.4871 14.7093 21.4871C14.8389 21.4871 14.9685 21.5195 15.0765 21.5843C15.9945 22.0595 17.0421 22.1459 18.0249 21.8327C19.0077 21.5195 19.8069 20.8391 20.2821 19.9211C20.7573 19.0031 20.8437 17.9555 20.5305 16.9727C20.2065 15.9899 19.5369 15.1907 18.6189 14.7155C17.7009 14.2403 16.6533 14.1539 15.6705 14.4671C14.6877 14.7803 13.8885 15.4607 13.4133 16.3787C13.3161 16.5731 13.1433 16.7135 12.9381 16.7783C12.7329 16.8431 12.5169 16.8215 12.3225 16.7243C12.1281 16.6271 11.9877 16.4543 11.9229 16.2491C11.8581 16.0439 11.8797 15.8279 11.9769 15.6335C12.6465 14.3267 13.7913 13.3655 15.1845 12.9227C16.5777 12.4799 18.0681 12.6095 19.3641 13.2791C20.6709 13.9487 21.6321 15.0935 22.0749 16.4867C22.5177 17.8799 22.3881 19.3595 21.7185 20.6663C21.0489 21.9731 19.9041 22.9343 18.5109 23.3771C17.8197 23.6039 17.0961 23.6903 16.3941 23.6255C16.1673 23.6039 15.9405 23.6795 15.7785 23.8307C15.6165 23.9819 15.5193 24.1979 15.5193 24.4247V27.4919C15.5193 27.9347 15.1521 28.3019 14.7093 28.3019C14.2665 28.3019 13.8993 27.9347 13.8993 27.4919V22.2971C13.8993 22.0163 14.0505 21.7571 14.2881 21.6059ZM14.472 37.0282C12.7656 37.0282 11.3724 35.635 11.3724 33.9286C11.3724 32.2222 12.7656 30.829 14.472 30.829C16.1784 30.829 17.5716 32.2222 17.5716 33.9286C17.5716 35.635 16.1892 37.0282 14.472 37.0282ZM14.472 32.449C13.6512 32.449 12.9924 33.1078 12.9924 33.9286C12.9924 34.7494 13.6512 35.4082 14.472 35.4082C15.2928 35.4082 15.9516 34.7494 15.9516 33.9286C15.9516 33.1078 15.2928 32.449 14.472 32.449ZM33.9652 28.0105H45.0892C45.532 28.0105 45.8992 27.6433 45.8992 27.2005C45.8992 26.7577 45.532 26.3905 45.0892 26.3905H33.9652C33.5224 26.3905 33.1552 26.7577 33.1552 27.2005C33.1552 27.6433 33.5224 28.0105 33.9652 28.0105ZM31.3739 28.0105H30.0347C29.5919 28.0105 29.2247 27.6433 29.2247 27.2005C29.2247 26.7577 29.5919 26.3905 30.0347 26.3905H31.3739C31.8167 26.3905 32.1839 26.7577 32.1839 27.2005C32.1839 27.6433 31.8275 28.0105 31.3739 28.0105ZM33.9652 32.093H45.0892C45.532 32.093 45.8992 31.7258 45.8992 31.283C45.8992 30.8402 45.532 30.473 45.0892 30.473H33.9652C33.5224 30.473 33.1552 30.8402 33.1552 31.283C33.1552 31.7258 33.5224 32.093 33.9652 32.093ZM31.3739 32.093H30.0347C29.5919 32.093 29.2247 31.7258 29.2247 31.283C29.2247 30.8402 29.5919 30.473 30.0347 30.473H31.3739C31.8167 30.473 32.1839 30.8402 32.1839 31.283C32.1839 31.7258 31.8275 32.093 31.3739 32.093ZM33.9652 36.1751H45.0892C45.532 36.1751 45.8992 35.8079 45.8992 35.3651C45.8992 34.9223 45.532 34.5551 45.0892 34.5551H33.9652C33.5224 34.5551 33.1552 34.9223 33.1552 35.3651C33.1552 35.8079 33.5224 36.1751 33.9652 36.1751ZM31.3739 36.1751H30.0347C29.5919 36.1751 29.2247 35.8079 29.2247 35.3651C29.2247 34.9223 29.5919 34.5551 30.0347 34.5551H31.3739C31.8167 34.5551 32.1839 34.9223 32.1839 35.3651C32.1839 35.8079 31.8275 36.1751 31.3739 36.1751ZM30.0347 13.3873H34.9919C35.4455 13.3873 35.8019 13.0201 35.8019 12.5773C35.8019 12.1345 35.4347 11.7673 34.9919 11.7673H30.0347C29.5919 11.7673 29.2247 12.1345 29.2247 12.5773C29.2247 13.0201 29.5919 13.3873 30.0347 13.3873ZM34.9919 17.124H30.0347C29.5919 17.124 29.2247 16.7568 29.2247 16.314C29.2247 15.8712 29.5919 15.504 30.0347 15.504H34.9919C35.4347 15.504 35.8019 15.8712 35.8019 16.314C35.8019 16.7568 35.4455 17.124 34.9919 17.124ZM30.0347 20.8606H34.9919C35.4455 20.8606 35.8019 20.4934 35.8019 20.0506C35.8019 19.6078 35.4347 19.2406 34.9919 19.2406H30.0347C29.5919 19.2406 29.2247 19.6078 29.2247 20.0506C29.2247 20.4934 29.5919 20.8606 30.0347 20.8606Z" fill="#F175B9"/>
</svg>
