<svg width="54" height="55" viewBox="0 0 54 55" fill="none" xmlns="http://www.w3.org/2000/svg">
<g clip-path="url(#clip0_0_892)">
<path d="M23.2255 29.2414L21.1781 27.199L23.2252 25.1569C25.0657 23.3225 26.4964 21.3558 27.4774 19.3117C27.5314 19.1991 27.5561 19.0747 27.549 18.95C27.5419 18.8253 27.5033 18.7045 27.4368 18.5988C27.3702 18.4931 27.278 18.406 27.1687 18.3457C27.0594 18.2853 26.9365 18.2537 26.8116 18.2537H10.2248C10.1 18.2537 9.97715 18.2854 9.86787 18.3457C9.75859 18.406 9.66639 18.4931 9.59989 18.5987C9.53339 18.7044 9.49477 18.8252 9.48763 18.9498C9.48049 19.0744 9.50507 19.1988 9.55907 19.3114C10.5399 21.3556 11.9708 23.3222 13.8108 25.156L15.856 27.1986L13.8109 29.2413C9.5463 33.4994 7.56887 38.3215 7.93358 43.5736C7.94649 43.7602 8.0297 43.9349 8.16642 44.0625C8.30314 44.19 8.48318 44.261 8.67018 44.261H28.3663C28.5533 44.261 28.7333 44.1901 28.8701 44.0625C29.0068 43.9349 29.0901 43.7602 29.103 43.5736C29.468 38.3218 27.4902 33.4997 23.2255 29.2414ZM27.6626 42.7843H9.37386C9.25331 38.2419 11.095 34.0409 14.8545 30.2862L17.4227 27.721C17.4914 27.6525 17.5459 27.571 17.5831 27.4814C17.6203 27.3917 17.6394 27.2956 17.6394 27.1985C17.6394 27.1015 17.6203 27.0054 17.5831 26.9157C17.5459 26.8261 17.4914 26.7446 17.4227 26.676L14.854 24.1104C13.5275 22.8092 12.3814 21.3361 11.4463 19.7303H25.5902C24.6551 21.3362 23.509 22.8094 22.1823 24.1106L19.6111 26.6757C19.5423 26.7443 19.4877 26.8258 19.4505 26.9155C19.4132 27.0052 19.3941 27.1014 19.3941 27.1985C19.3941 27.2957 19.4132 27.3919 19.4505 27.4816C19.4877 27.5713 19.5423 27.6528 19.6111 27.7213L22.1821 30.2864C25.9416 34.0405 27.7831 38.242 27.6626 42.7843ZM33.5116 46.4077H32.3867C33.0519 42.8374 32.8508 39.3698 31.7826 36.0936C30.7485 32.9211 28.9051 29.9321 26.2982 27.199C28.9276 24.4422 30.7798 21.4254 31.8088 18.2222C32.8535 14.9695 33.0473 11.5306 32.3871 7.99015H33.5112C33.9739 7.99015 34.4321 7.89901 34.8596 7.72195C35.2871 7.54488 35.6755 7.28535 36.0026 6.95817C36.3298 6.63099 36.5894 6.24258 36.7664 5.8151C36.9435 5.38762 37.0346 4.92945 37.0346 4.46675C37.0346 4.00406 36.9435 3.54589 36.7664 3.11841C36.5894 2.69093 36.3298 2.30252 36.0026 1.97534C35.6755 1.64816 35.2871 1.38863 34.8596 1.21156C34.4321 1.03449 33.9739 0.943359 33.5112 0.943359H3.52193C2.58747 0.943359 1.69128 1.31457 1.03051 1.97534C0.369749 2.6361 -0.00146484 3.53229 -0.00146484 4.46675C-0.00146484 5.40122 0.369749 6.29741 1.03051 6.95817C1.69128 7.61894 2.58747 7.99015 3.52193 7.99015H4.64907C3.98547 11.5532 4.18501 15.0134 5.24687 18.2839C6.27973 21.4641 8.12554 24.4603 10.738 27.1994C8.14072 29.9226 6.30082 32.901 5.2647 36.0614C4.18733 39.3476 3.98272 42.8265 4.65002 46.4079H3.52151C2.58998 46.413 1.69834 46.7866 1.04145 47.4471C0.384551 48.1076 0.0158126 49.0013 0.0158126 49.9328C0.0158126 50.8643 0.384551 51.758 1.04145 52.4185C1.69834 53.079 2.58998 53.4526 3.52151 53.4577H33.5116C34.4431 53.4526 35.3347 53.079 35.9916 52.4185C36.6485 51.758 37.0172 50.8643 37.0172 49.9328C37.0172 49.0013 36.6485 48.1076 35.9916 47.4471C35.3347 46.7866 34.4431 46.413 33.5116 46.4079V46.4077ZM1.47657 4.46528C1.47716 3.92303 1.69285 3.40317 2.07632 3.01979C2.45978 2.63641 2.97969 2.42082 3.52193 2.42034H33.5116C34.0543 2.42034 34.5748 2.63595 34.9586 3.01972C35.3424 3.4035 35.558 3.92401 35.558 4.46675C35.558 5.0095 35.3424 5.53001 34.9586 5.91378C34.5748 6.29756 34.0543 6.51316 33.5116 6.51316H3.52193C2.9793 6.5123 2.45917 6.29618 2.07571 5.91224C1.69224 5.5283 1.47677 5.00791 1.47657 4.46528ZM12.2919 27.7211C12.3606 27.6526 12.4151 27.5711 12.4523 27.4814C12.4895 27.3918 12.5087 27.2956 12.5087 27.1985C12.5087 27.1015 12.4895 27.0053 12.4523 26.9157C12.4151 26.826 12.3606 26.7445 12.2919 26.6759C6.83143 21.2244 4.76847 14.9384 6.15348 7.99015H30.8813C32.2689 14.9371 30.2071 21.2224 24.7441 26.6764C24.6754 26.7449 24.6209 26.8264 24.5837 26.9161C24.5465 27.0057 24.5273 27.1019 24.5273 27.199C24.5273 27.296 24.5465 27.3922 24.5837 27.4819C24.6209 27.5715 24.6754 27.653 24.7441 27.7216C30.2049 33.1736 32.268 39.4602 30.8824 46.4077H6.15316C4.76825 39.4592 6.83228 33.1728 12.2923 27.7216L12.2919 27.7211ZM33.5111 51.9801H3.52193C2.98133 51.9762 2.46419 51.7588 2.08329 51.3751C1.70239 50.9915 1.48863 50.4728 1.48863 49.9322C1.48863 49.3916 1.70239 48.8729 2.08329 48.4892C2.46419 48.1056 2.98133 47.8881 3.52193 47.8842H33.5116C34.0522 47.8881 34.5693 48.1056 34.9502 48.4892C35.3311 48.8729 35.5448 49.3916 35.5448 49.9322C35.5448 50.4728 35.3311 50.9915 34.9502 51.3751C34.5693 51.7588 34.0522 51.9762 33.5116 51.9801H33.5111ZM43.1384 16.3372C40.9902 16.3372 38.8902 16.9742 37.1041 18.1677C35.3179 19.3611 33.9257 21.0575 33.1036 23.0422C32.2815 25.0268 32.0664 27.2107 32.4855 29.3177C32.9046 31.4246 33.939 33.36 35.458 34.879C36.977 36.398 38.9124 37.4325 41.0193 37.8516C43.1262 38.2707 45.3101 38.0557 47.2948 37.2336C49.2795 36.4116 50.9759 35.0194 52.1694 33.2333C53.3629 31.4471 54 29.3472 54 27.199C53.9968 24.3192 52.8515 21.5584 50.8152 19.5221C48.779 17.4858 46.0181 16.3404 43.1384 16.3372ZM43.1384 36.5834C41.2823 36.5833 39.4679 36.0328 37.9247 35.0016C36.3815 33.9703 35.1787 32.5046 34.4685 30.7897C33.7582 29.0749 33.5725 27.188 33.9346 25.3676C34.2968 23.5472 35.1906 21.875 36.5031 20.5626C37.8156 19.2502 39.4878 18.3565 41.3083 17.9944C43.1287 17.6324 45.0156 17.8183 46.7304 18.5286C48.4452 19.2389 49.9108 20.4418 50.942 21.9851C51.9731 23.5285 52.5235 25.3429 52.5235 27.199C52.5207 29.6871 51.531 32.0726 49.7715 33.8319C48.0121 35.5913 45.6266 36.5809 43.1384 36.5836V36.5834ZM47.1835 27.1988C47.1835 27.3946 47.1057 27.5823 46.9672 27.7208C46.8288 27.8592 46.641 27.937 46.4452 27.937H43.1384C42.9426 27.937 42.7548 27.8592 42.6164 27.7208C42.4779 27.5823 42.4001 27.3946 42.4001 27.1988V21.8773C42.4001 21.6815 42.4779 21.4937 42.6164 21.3553C42.7548 21.2168 42.9426 21.139 43.1384 21.139C43.3342 21.139 43.522 21.2168 43.6605 21.3553C43.7989 21.4937 43.8767 21.6815 43.8767 21.8773V26.4605H46.4448C46.5418 26.4604 46.6378 26.4795 46.7275 26.5166C46.8171 26.5537 46.8986 26.608 46.9672 26.6766C47.0358 26.7452 47.0902 26.8266 47.1273 26.9163C47.1644 27.0059 47.1835 27.102 47.1835 27.199V27.1988ZM43.1384 18.8547C41.4878 18.855 39.8743 19.3448 38.502 20.2621C37.1296 21.1794 36.0602 22.483 35.4288 24.0081C34.7974 25.5332 34.6324 27.2113 34.9547 28.8302C35.277 30.4491 36.0722 31.9361 37.2396 33.103C38.407 34.27 39.8942 35.0646 41.5132 35.3863C43.1322 35.7081 44.8103 35.5425 46.3352 34.9105C47.86 34.2785 49.1633 33.2086 50.0801 31.8359C50.9969 30.4633 51.4861 28.8496 51.4857 27.199C51.4828 24.9863 50.6024 22.8651 49.0375 21.3008C47.4726 19.7365 45.3511 18.8568 43.1384 18.8547ZM43.1384 34.0693C41.78 34.069 40.4522 33.6659 39.3228 32.9111C38.1935 32.1562 37.3133 31.0834 36.7936 29.8284C36.2739 28.5733 36.138 27.1923 36.4031 25.86C36.6682 24.5277 37.3223 23.304 38.2829 22.3434C39.2434 21.3829 40.4672 20.7287 41.7995 20.4636C43.1318 20.1985 44.5128 20.3344 45.7678 20.8542C47.0229 21.3739 48.0957 22.254 48.8505 23.3834C49.6054 24.5127 50.0085 25.8406 50.0088 27.199C50.0067 29.0205 49.2822 30.7668 47.9942 32.0547C46.7062 33.3427 44.9599 34.0672 43.1384 34.0693Z" fill="#F175B9"/>
</g>
<defs>
<clipPath id="clip0_0_892">
<rect width="54" height="54" fill="white" transform="translate(0 0.200195)"/>
</clipPath>
</defs>
</svg>
