<svg width="54" height="55" viewBox="0 0 54 55" fill="none" xmlns="http://www.w3.org/2000/svg">
<g clip-path="url(#clip0_0_878)">
<path fill-rule="evenodd" clip-rule="evenodd" d="M28.3498 40.7004H26.2349C26.0998 40.6999 25.9702 40.6458 25.8749 40.5501L24.9749 39.6501C24.4504 39.125 23.7056 38.8838 22.9729 39.0016C22.2401 39.1194 21.6086 39.582 21.2751 40.245L21.2238 40.344C21.1504 40.4917 21.0105 40.5949 20.8478 40.6215C20.6851 40.6481 20.5196 40.5947 20.4031 40.4781L19.575 39.65C19.0505 39.1249 18.3057 38.8837 17.573 39.0015C16.8402 39.1193 16.2087 39.5819 15.8752 40.2449L15.8239 40.3439C15.7505 40.4916 15.6106 40.5948 15.4479 40.6214C15.2852 40.648 15.1197 40.5946 15.0032 40.478C14.5697 40.0423 13.9798 39.7982 13.3651 39.8002H8.54987C8.05279 39.8002 7.6499 40.2032 7.6499 40.7002C7.6499 41.1971 8.0529 41.6001 8.54987 41.6001H13.3648C13.4999 41.6007 13.6295 41.6548 13.7248 41.7504C14.2493 42.2756 14.9941 42.5168 15.7268 42.399C16.4596 42.2812 17.0911 41.8186 17.4246 41.1556L17.4759 41.0566C17.5493 40.9089 17.6893 40.8057 17.8519 40.7791C18.0146 40.7525 18.1801 40.8059 18.2967 40.9225L19.1247 41.7505C19.6492 42.2757 20.394 42.5169 21.1267 42.3991C21.8595 42.2813 22.491 41.8187 22.8245 41.1557L22.8758 41.0567C22.9492 40.909 23.0892 40.8058 23.2518 40.7792C23.4145 40.7526 23.58 40.806 23.6966 40.9226L24.5965 41.8226C25.03 42.2583 25.6199 42.5023 26.2346 42.5003H28.3495C28.8466 42.5003 29.2495 42.0974 29.2495 41.6004C29.2495 41.1033 28.8469 40.7004 28.3498 40.7004Z" fill="#F175B9"/>
<path d="M48.882 21.023L48.2881 20.7224L48.5886 20.1293L49.6488 18.0332C50.4948 16.4546 49.9009 14.4891 48.3222 13.643C46.7436 12.797 44.7781 13.3909 43.932 14.9696V9.31393C43.932 7.32574 42.3202 5.71396 40.332 5.71396H39.432V3.01396C39.432 1.52285 38.2232 0.313965 36.732 0.313965C35.2409 0.313965 34.0321 1.52285 34.0321 3.01396V5.71396H30.4321V3.01396C30.4321 1.52285 29.2232 0.313965 27.7321 0.313965C26.241 0.313965 25.0321 1.52285 25.0321 3.01396V5.71396H21.4321V3.01396C21.4321 1.52285 20.2232 0.313965 18.7321 0.313965C17.241 0.313965 16.0321 1.52285 16.0321 3.01396V5.71396H12.4322V3.01396C12.4322 1.52285 11.2233 0.313965 9.73216 0.313965C8.24104 0.313965 7.03216 1.52285 7.03216 3.01396V5.71396H6.13219C4.144 5.71396 2.53223 7.32574 2.53223 9.31393V50.7139C2.53223 52.7021 4.144 54.3139 6.13219 54.3139H40.3322C42.3204 54.3139 43.9322 52.7021 43.9322 50.7139V29.3318L47.4728 22.3289L48.0668 22.6295C48.3943 22.7959 48.5255 23.1959 48.3602 23.524L45.8879 28.4138C45.664 28.8572 45.8416 29.3981 46.2848 29.6225C46.4102 29.6865 46.549 29.7198 46.6898 29.7197C47.0298 29.7202 47.341 29.529 47.4944 29.2256L49.9667 24.3358C50.5802 23.1215 50.095 21.6394 48.882 21.023ZM37.5421 37.9861L34.9401 39.9139L34.9546 36.6739L43.9879 18.8134L45.2803 19.4668L46.5727 20.1202L37.5421 37.9861ZM45.4531 15.9146C45.7173 15.3917 46.2704 15.0794 46.8547 15.1236C47.4389 15.1677 47.9389 15.5595 48.1216 16.1162C48.2432 16.4808 48.2134 16.879 48.0388 17.2214L47.3845 18.5139L46.0921 17.8641L44.8006 17.2107L45.4531 15.9146ZM35.8321 3.01396C35.8321 2.51689 36.235 2.114 36.732 2.114C37.2291 2.114 37.632 2.517 37.632 3.01396V10.214C37.632 10.7111 37.2291 11.114 36.732 11.114C36.235 11.114 35.8321 10.711 35.8321 10.214V3.01396ZM26.8321 3.01396C26.8321 2.51689 27.235 2.114 27.7321 2.114C28.2292 2.114 28.632 2.517 28.632 3.01396V10.214C28.632 10.7111 28.2291 11.114 27.7321 11.114C27.2351 11.114 26.8321 10.711 26.8321 10.214V3.01396ZM17.8321 3.01396C17.8321 2.51689 18.235 2.114 18.732 2.114C19.229 2.114 19.632 2.517 19.632 3.01396V10.214C19.632 10.7111 19.229 11.114 18.732 11.114C18.235 11.114 17.8321 10.711 17.8321 10.214V3.01396ZM8.83209 3.01396C8.83209 2.51689 9.23508 2.114 9.73205 2.114C10.229 2.114 10.632 2.517 10.632 3.01396V10.214C10.632 10.7111 10.229 11.114 9.73205 11.114C9.23508 11.114 8.83209 10.711 8.83209 10.214V3.01396ZM42.132 50.714C42.132 51.7081 41.3262 52.514 40.332 52.514H6.13209C5.13794 52.514 4.33205 51.7081 4.33205 50.714V9.31393C4.33205 8.31978 5.13794 7.51389 6.13209 7.51389H7.03205V10.2139C7.03205 11.705 8.24093 12.9139 9.73205 12.9139C11.2232 12.9139 12.4321 11.705 12.4321 10.2139V7.51389H16.032V10.2139C16.032 11.705 17.2409 12.9139 18.732 12.9139C20.2231 12.9139 21.432 11.705 21.432 10.2139V7.51389H25.032V10.2139C25.032 11.705 26.2409 12.9139 27.732 12.9139C29.2231 12.9139 30.432 11.705 30.432 10.2139V7.51389H34.0319V10.2139C34.0319 11.705 35.2408 12.9139 36.7319 12.9139C38.2231 12.9139 39.4319 11.705 39.4319 10.2139V7.51389H40.3319C41.3261 7.51389 42.1319 8.31978 42.1319 9.31393V18.4939L33.2525 36.0574C33.1891 36.1818 33.1559 36.3193 33.1553 36.4588L33.1366 40.814H31.3322C30.8351 40.814 30.4322 41.2169 30.4322 41.7139C30.4322 42.211 30.8352 42.6139 31.3322 42.6139H33.9611C33.9746 42.6139 33.9863 42.6067 33.9998 42.6058C34.0133 42.6048 34.0214 42.6139 34.0322 42.6139C34.2269 42.6139 34.4164 42.5507 34.5722 42.4339L38.7859 39.3019C38.8991 39.2188 38.9915 39.1106 39.0559 38.986L42.1322 32.8939V50.714H42.132Z" fill="#F175B9"/>
<path fill-rule="evenodd" clip-rule="evenodd" d="M8.54987 17.3004H39.1498C39.6469 17.3004 40.0498 16.8974 40.0498 16.4005C40.0498 15.9035 39.6469 15.5005 39.1498 15.5005H8.54987C8.05279 15.5005 7.6499 15.9034 7.6499 16.4005C7.6499 16.8975 8.05279 17.3004 8.54987 17.3004Z" fill="#F175B9"/>
<path fill-rule="evenodd" clip-rule="evenodd" d="M8.54987 23.6007H37.5389C38.036 23.6007 38.4389 23.1977 38.4389 22.7007C38.4389 22.2038 38.036 21.8008 37.5389 21.8008H8.54987C8.05279 21.8008 7.6499 22.2037 7.6499 22.7007C7.6499 23.1978 8.05279 23.6007 8.54987 23.6007Z" fill="#F175B9"/>
<path fill-rule="evenodd" clip-rule="evenodd" d="M8.54987 29.9005H34.3529C34.85 29.9005 35.2529 29.4976 35.2529 29.0005C35.2529 28.5035 34.85 28.1006 34.3529 28.1006H8.54987C8.05279 28.1006 7.6499 28.5035 7.6499 29.0005C7.6499 29.4976 8.05279 29.9005 8.54987 29.9005Z" fill="#F175B9"/>
<path fill-rule="evenodd" clip-rule="evenodd" d="M8.54987 36.2003H31.1669C31.664 36.2003 32.0669 35.7974 32.0669 35.3004C32.0669 34.8033 31.664 34.4004 31.1669 34.4004H8.54987C8.05279 34.4004 7.6499 34.8033 7.6499 35.3004C7.6499 35.7974 8.05279 36.2003 8.54987 36.2003Z" fill="#F175B9"/>
</g>
<defs>
<clipPath id="clip0_0_878">
<rect width="54" height="54" fill="white" transform="translate(0 0.200195)"/>
</clipPath>
</defs>
</svg>
