<svg width="87" height="15" viewBox="0 0 87 15" fill="none" xmlns="http://www.w3.org/2000/svg">
<path d="M7.22187 0.739952C7.32298 0.489918 7.67698 0.489918 7.7781 0.739952L9.24836 4.37548C9.29133 4.48174 9.39111 4.55423 9.50545 4.56227L13.4174 4.83712C13.6864 4.85603 13.7958 5.1927 13.5893 5.36614L10.586 7.88787C10.4982 7.96158 10.4601 8.07887 10.4878 8.1901L11.4353 11.9955C11.5004 12.2572 11.214 12.4653 10.9852 12.3224L7.65888 10.2454C7.56165 10.1847 7.43832 10.1847 7.34109 10.2454L4.01472 12.3224C3.78595 12.4653 3.49956 12.2572 3.56472 11.9955L4.51217 8.1901C4.53986 8.07887 4.50175 7.96158 4.41396 7.88787L1.41071 5.36613C1.20416 5.1927 1.31355 4.85603 1.58259 4.83712L5.49452 4.56227C5.60886 4.55423 5.70864 4.48174 5.75161 4.37548L7.22187 0.739952Z" fill="#FBBA00"/>
<path d="M25.2219 0.739952C25.323 0.489918 25.677 0.489918 25.7781 0.739952L27.2484 4.37548C27.2913 4.48174 27.3911 4.55423 27.5054 4.56227L31.4174 4.83712C31.6864 4.85603 31.7958 5.1927 31.5893 5.36614L28.586 7.88787C28.4982 7.96158 28.4601 8.07887 28.4878 8.1901L29.4353 11.9955C29.5004 12.2572 29.214 12.4653 28.9852 12.3224L25.6589 10.2454C25.5616 10.1847 25.4383 10.1847 25.3411 10.2454L22.0147 12.3224C21.786 12.4653 21.4996 12.2572 21.5647 11.9955L22.5122 8.1901C22.5399 8.07887 22.5017 7.96158 22.414 7.88787L19.4107 5.36613C19.2042 5.1927 19.3136 4.85603 19.5826 4.83712L23.4945 4.56227C23.6089 4.55423 23.7086 4.48174 23.7516 4.37548L25.2219 0.739952Z" fill="#FBBA00"/>
<path d="M43.2219 0.739952C43.323 0.489918 43.677 0.489918 43.7781 0.739952L45.2484 4.37548C45.2913 4.48174 45.3911 4.55423 45.5054 4.56227L49.4174 4.83712C49.6864 4.85603 49.7958 5.1927 49.5893 5.36614L46.586 7.88787C46.4982 7.96158 46.4601 8.07887 46.4878 8.1901L47.4353 11.9955C47.5004 12.2572 47.214 12.4653 46.9852 12.3224L43.6589 10.2454C43.5616 10.1847 43.4383 10.1847 43.3411 10.2454L40.0147 12.3224C39.786 12.4653 39.4996 12.2572 39.5647 11.9955L40.5122 8.1901C40.5399 8.07887 40.5017 7.96158 40.414 7.88787L37.4107 5.36613C37.2042 5.1927 37.3136 4.85603 37.5826 4.83712L41.4945 4.56227C41.6089 4.55423 41.7086 4.48174 41.7516 4.37548L43.2219 0.739952Z" fill="#FBBA00"/>
<path d="M61.2219 0.739952C61.323 0.489918 61.677 0.489918 61.7781 0.739952L63.2484 4.37548C63.2913 4.48174 63.3911 4.55423 63.5054 4.56227L67.4174 4.83712C67.6864 4.85603 67.7958 5.1927 67.5893 5.36614L64.586 7.88787C64.4982 7.96158 64.4601 8.07887 64.4878 8.1901L65.4353 11.9955C65.5004 12.2572 65.214 12.4653 64.9852 12.3224L61.6589 10.2454C61.5616 10.1847 61.4383 10.1847 61.3411 10.2454L58.0147 12.3224C57.786 12.4653 57.4996 12.2572 57.5647 11.9955L58.5122 8.1901C58.5399 8.07887 58.5017 7.96158 58.414 7.88787L55.4107 5.36613C55.2042 5.1927 55.3136 4.85603 55.5826 4.83712L59.4945 4.56227C59.6089 4.55423 59.7086 4.48174 59.7516 4.37548L61.2219 0.739952Z" fill="#FBBA00"/>
<path d="M79.2219 0.739952C79.323 0.489918 79.677 0.489918 79.7781 0.739952L81.2484 4.37548C81.2913 4.48174 81.3911 4.55423 81.5054 4.56227L85.4174 4.83712C85.6864 4.85603 85.7958 5.1927 85.5893 5.36614L82.586 7.88787C82.4982 7.96158 82.4601 8.07887 82.4878 8.1901L83.4353 11.9955C83.5004 12.2572 83.214 12.4653 82.9852 12.3224L79.6589 10.2454C79.5616 10.1847 79.4383 10.1847 79.3411 10.2454L76.0147 12.3224C75.786 12.4653 75.4996 12.2572 75.5647 11.9955L76.5122 8.1901C76.5399 8.07887 76.5017 7.96158 76.414 7.88787L73.4107 5.36613C73.2042 5.1927 73.3136 4.85603 73.5826 4.83712L77.4945 4.56227C77.6089 4.55423 77.7086 4.48174 77.7516 4.37548L79.2219 0.739952Z" fill="#FBBA00"/>
</svg>
