<svg width="1440" height="161" viewBox="0 0 1440 161" preserveAspectRatio="none" fill="none" xmlns="http://www.w3.org/2000/svg">
<path fill-rule="evenodd" clip-rule="evenodd" d="M1299.07 72.8433C1254.8 50.9664 1208.5 28.0885 1128.56 28.0885C1058.48 28.0885 1012.68 42.9466 962.982 59.0689C904.045 78.1896 839.626 99.0884 722.723 99.0884C599.225 99.0884 527.69 81.3736 466.621 66.2506C421.14 54.9879 381.465 45.1627 330.453 45.1627C224.416 45.1627 167.412 66.6837 118.055 85.3179C80.3727 99.5444 47.1471 112.088 -0.0390583 112.088L-0.0390563 89.5886C47.9976 89.5886 80.4004 72.2034 116.644 52.7576C162.634 28.0821 214.809 0.088638 312.959 0.0886466C372.609 0.0886518 417.477 16.3888 467.565 34.5854C530.843 57.5737 602.452 83.5887 722.723 83.5887C839.626 83.5887 904.045 61.954 962.982 42.16C1012.68 25.47 1058.48 10.0887 1128.56 10.0887C1207.49 10.0887 1273.42 36.5788 1326.18 57.7764C1375.81 77.7179 1413.78 92.9755 1439.96 77.0888L1439.96 160.435L1439.96 112.089C1378.48 112.088 1339.63 92.886 1299.07 72.8433Z" fill="#2E7B7A"/>
</svg>
